<svg width="20" height="20" viewBox="0 0 20 20" fill="none" xmlns="http://www.w3.org/2000/svg">
<path fill-rule="evenodd" clip-rule="evenodd" d="M10 6.87496C8.27415 6.87496 6.87504 8.27407 6.87504 9.99996C6.87504 11.7258 8.27415 13.125 10 13.125C11.7259 13.125 13.125 11.7258 13.125 9.99996C13.125 8.27407 11.7259 6.87496 10 6.87496ZM8.12504 9.99996C8.12504 8.96443 8.96451 8.12496 10 8.12496C11.0356 8.12496 11.875 8.96443 11.875 9.99996C11.875 11.0355 11.0356 11.875 10 11.875C8.96451 11.875 8.12504 11.0355 8.12504 9.99996Z" fill="black"/>
<path fill-rule="evenodd" clip-rule="evenodd" d="M9.97899 1.04163C9.60861 1.04162 9.29941 1.04161 9.04556 1.05893C8.78131 1.07696 8.53171 1.11583 8.28972 1.21607C7.7282 1.44866 7.28207 1.89479 7.04948 2.45631C6.92839 2.74864 6.8956 3.05672 6.88307 3.3916C6.87301 3.66079 6.73715 3.88538 6.53667 4.00113C6.33618 4.11688 6.07375 4.12223 5.83559 3.99636C5.53932 3.83977 5.25611 3.71412 4.9424 3.67282C4.33981 3.59349 3.73039 3.75678 3.2482 4.12678C3.0404 4.28623 2.88193 4.48296 2.7342 4.70279C2.59227 4.91397 2.43768 5.18175 2.25249 5.50251L2.23145 5.53897C2.04625 5.85972 1.89165 6.12749 1.77972 6.35599C1.66321 6.59385 1.57207 6.82945 1.53788 7.08914C1.45855 7.69172 1.62185 8.30115 1.99184 8.78333C2.18444 9.03433 2.43481 9.21676 2.71851 9.39502C2.94667 9.53837 3.07327 9.76839 3.07326 9.99994C3.07325 10.2315 2.94664 10.4615 2.71852 10.6048C2.43478 10.7831 2.18438 10.9655 1.99176 11.2165C1.62177 11.6987 1.45847 12.3081 1.5378 12.9107C1.57199 13.1704 1.66313 13.406 1.77964 13.6439C1.89156 13.8724 2.04616 14.1401 2.23136 14.4609L2.25241 14.4973C2.4376 14.8181 2.59219 15.0859 2.73411 15.2971C2.88185 15.5169 3.04032 15.7136 3.24812 15.8731C3.73031 16.2431 4.33973 16.4064 4.94232 16.327C5.25601 16.2857 5.5392 16.1601 5.83546 16.0035C6.07365 15.8776 6.33612 15.883 6.53663 15.9988C6.73714 16.1145 6.87301 16.3391 6.88308 16.6084C6.8956 16.9432 6.9284 17.2513 7.04948 17.5436C7.28207 18.1051 7.7282 18.5513 8.28972 18.7838C8.53171 18.8841 8.78131 18.923 9.04556 18.941C9.29941 18.9583 9.6086 18.9583 9.97899 18.9583H10.0211C10.3915 18.9583 10.7007 18.9583 10.9545 18.941C11.2188 18.923 11.4684 18.8841 11.7104 18.7838C12.2719 18.5513 12.718 18.1051 12.9506 17.5436C13.0717 17.2513 13.1045 16.9432 13.117 16.6083C13.1271 16.3391 13.2629 16.1145 13.4634 15.9987C13.6639 15.883 13.9264 15.8776 14.1646 16.0035C14.4608 16.1601 14.744 16.2857 15.0577 16.327C15.6603 16.4063 16.2697 16.243 16.7519 15.873C16.9597 15.7136 17.1181 15.5168 17.2659 15.297C17.4078 15.0858 17.5624 14.8181 17.7475 14.4973L17.7686 14.4609C17.9538 14.1401 18.1084 13.8723 18.2203 13.6438C18.3369 13.406 18.428 13.1704 18.4622 12.9107C18.5415 12.3081 18.3782 11.6987 18.0082 11.2165C17.8156 10.9655 17.5652 10.783 17.2815 10.6048C17.0534 10.4614 16.9268 10.2314 16.9268 9.99992C16.9268 9.76841 17.0534 9.53847 17.2815 9.39516C17.5653 9.21688 17.8157 9.03443 18.0083 8.78339C18.3783 8.3012 18.5416 7.69178 18.4623 7.08919C18.4281 6.8295 18.3369 6.59391 18.2204 6.35604C18.1085 6.12756 17.9539 5.85982 17.7687 5.53909L17.7477 5.50261C17.5625 5.18184 17.4079 4.91403 17.266 4.70285C17.1182 4.48302 16.9598 4.28629 16.752 4.12684C16.2698 3.75684 15.6603 3.59355 15.0577 3.67288C14.7441 3.71418 14.4609 3.83981 14.1646 3.99639C13.9264 4.12228 13.664 4.11693 13.4634 4.00116C13.2629 3.8854 13.1271 3.66077 13.117 3.39155C13.1045 3.0567 13.0717 2.74863 12.9506 2.45631C12.718 1.89479 12.2719 1.44866 11.7104 1.21607C11.4684 1.11583 11.2188 1.07696 10.9545 1.05893C10.7007 1.04161 10.3915 1.04162 10.0211 1.04163H9.97899ZM8.76807 2.37092C8.83237 2.34429 8.93005 2.31972 9.13065 2.30604C9.33687 2.29196 9.6032 2.29163 10 2.29163C10.3969 2.29163 10.6632 2.29196 10.8694 2.30604C11.07 2.31972 11.1677 2.34429 11.232 2.37092C11.4872 2.47664 11.69 2.67943 11.7957 2.93466C11.8291 3.01518 11.8567 3.14069 11.8679 3.43827C11.8926 4.09858 12.2334 4.73437 12.8384 5.08369C13.4435 5.43302 14.1645 5.41029 14.7487 5.10152C15.012 4.96237 15.1345 4.92356 15.2209 4.91218C15.4948 4.87612 15.7718 4.95035 15.991 5.11853C16.0462 5.16089 16.1163 5.2332 16.2285 5.40009C16.3438 5.57165 16.4772 5.80212 16.6756 6.14579C16.8741 6.48946 17.0069 6.72028 17.0979 6.9059C17.1863 7.08648 17.2139 7.18335 17.223 7.25235C17.259 7.52625 17.1848 7.80326 17.0166 8.02244C16.9636 8.09158 16.8687 8.17829 16.6165 8.33674C16.057 8.68825 15.6768 9.30125 15.6768 9.99985C15.6768 10.6985 16.057 11.3116 16.6165 11.6632C16.8686 11.8216 16.9635 11.9083 17.0165 11.9774C17.1847 12.1966 17.2589 12.4736 17.2229 12.7475C17.2138 12.8165 17.1862 12.9134 17.0978 13.094C17.0069 13.2796 16.874 13.5104 16.6756 13.8541C16.4771 14.1977 16.3437 14.4282 16.2284 14.5998C16.1162 14.7667 16.0461 14.839 15.9909 14.8813C15.7717 15.0495 15.4947 15.1237 15.2208 15.0877C15.1344 15.0763 15.0119 15.0375 14.7487 14.8984C14.1644 14.5896 13.4434 14.5669 12.8383 14.9162C12.2333 15.2656 11.8926 15.9013 11.8679 16.5616C11.8567 16.8592 11.8291 16.9847 11.7957 17.0653C11.69 17.3205 11.4872 17.5233 11.232 17.629C11.1677 17.6556 11.07 17.6802 10.8694 17.6939C10.6632 17.708 10.3969 17.7083 10 17.7083C9.6032 17.7083 9.33687 17.708 9.13065 17.6939C8.93005 17.6802 8.83237 17.6556 8.76807 17.629C8.51283 17.5233 8.31005 17.3205 8.20433 17.0653C8.17098 16.9847 8.14333 16.8592 8.1322 16.5617C8.10751 15.9013 7.76668 15.2656 7.16162 14.9162C6.55657 14.5669 5.83556 14.5896 5.25136 14.8984C4.98808 15.0375 4.86556 15.0764 4.77916 15.0877C4.50526 15.1238 4.22825 15.0496 4.00907 14.8814C3.95386 14.839 3.88375 14.7667 3.77159 14.5998C3.6563 14.4283 3.52284 14.1978 3.32442 13.8541C3.126 13.5105 2.99313 13.2796 2.90221 13.094C2.81376 12.9134 2.78619 12.8166 2.77711 12.7476C2.74105 12.4737 2.81527 12.1967 2.98345 11.9775C3.03651 11.9083 3.13138 11.8216 3.38354 11.6632C3.94303 11.3117 4.32322 10.6986 4.32326 10C4.3233 9.3013 3.94309 8.68819 3.38355 8.33661C3.13145 8.1782 3.03658 8.09151 2.98354 8.02238C2.81536 7.80321 2.74113 7.5262 2.77719 7.25229C2.78627 7.1833 2.81384 7.08642 2.90229 6.90585C2.99321 6.72022 3.12608 6.48941 3.3245 6.14574C3.52292 5.80207 3.65638 5.57159 3.77167 5.40003C3.88383 5.23315 3.95394 5.16084 4.00915 5.11847C4.22833 4.95029 4.50534 4.87607 4.77924 4.91213C4.86565 4.9235 4.98818 4.96232 5.25148 5.10149C5.83565 5.41025 6.55663 5.43298 7.16166 5.08367C7.76669 4.73436 8.10751 4.0986 8.1322 3.43831C8.14333 3.1407 8.17098 3.01518 8.20433 2.93466C8.31005 2.67943 8.51283 2.47664 8.76807 2.37092Z" fill="black"/>
</svg>
