<svg width="20" height="20" viewBox="0 0 20 20" fill="none" xmlns="http://www.w3.org/2000/svg">
<path d="M13.3333 8.33337L15.1244 8.87072C16.2687 9.21402 16.8409 9.38567 17.1704 9.82854C17.4999 10.2714 17.4999 10.8688 17.4999 12.0635L17.4999 18.3334" stroke="black" stroke-linejoin="round"/>
<path d="M6.66663 7.50006L9.16663 7.50006M6.66663 10.8334L9.16663 10.8334" stroke="black" stroke-linecap="round" stroke-linejoin="round"/>
<path d="M9.99992 18.3334V15.8334C9.99992 15.0477 9.99992 14.6549 9.75584 14.4108C9.51176 14.1667 9.11893 14.1667 8.33325 14.1667H7.49992C6.71424 14.1667 6.32141 14.1667 6.07733 14.4108C5.83325 14.6549 5.83325 15.0477 5.83325 15.8334L5.83325 18.3334" stroke="black" stroke-linejoin="round"/>
<path d="M1.66663 18.3334H18.3333" stroke="black" stroke-linecap="round"/>
<path d="M2.5 18.3334L2.5 5.59772C2.5 3.50543 2.5 2.45928 3.15932 1.94022C3.81864 1.42117 4.78951 1.70298 6.73127 2.2666L10.8979 3.47604C12.0697 3.81616 12.6556 3.98622 12.9945 4.44973C13.3333 4.91324 13.3333 5.54455 13.3333 6.80716L13.3333 18.3334" stroke="black" stroke-linecap="round" stroke-linejoin="round"/>
</svg>
