<svg width="505" height="541" viewBox="0 0 505 541" fill="none" xmlns="http://www.w3.org/2000/svg">
<g clip-path="url(#clip0_880_134301)">
<path d="M91.0538 282.702C90.6644 282.72 90.2789 282.618 89.9495 282.41C89.6202 282.202 89.3629 281.898 89.2125 281.539C89.0621 281.18 89.0259 280.784 89.1088 280.404C89.1917 280.024 89.3897 279.678 89.6759 279.414L89.8062 278.898C89.7891 278.856 89.7718 278.815 89.7544 278.774C89.3622 277.849 88.7048 277.061 87.865 276.508C87.0251 275.955 86.0403 275.662 85.034 275.666C84.0278 275.67 83.0452 275.97 82.2095 276.529C81.3738 277.088 80.7223 277.881 80.3369 278.809C78.7966 282.51 76.8356 286.217 76.3527 290.13C76.1401 291.859 76.2298 293.613 76.6179 295.312C73.0002 287.439 71.1216 278.882 71.1095 270.222C71.1087 268.049 71.2298 265.877 71.472 263.717C71.6723 261.947 71.95 260.189 72.3054 258.443C74.2444 248.973 78.4075 240.097 84.4529 232.543C87.3788 230.951 89.7451 228.502 91.2328 225.526C91.7718 224.456 92.1527 223.314 92.3637 222.136C92.0337 222.179 91.1192 217.164 91.3681 216.857C90.9081 216.16 90.0849 215.814 89.5825 215.135C87.0841 211.755 83.6418 212.345 81.8448 216.938C78.006 218.87 77.9689 222.076 80.3244 225.159C81.8229 227.12 82.0288 229.774 83.3437 231.874C83.2084 232.047 83.0677 232.214 82.9324 232.387C80.4596 235.559 78.3044 238.965 76.4976 242.557C76.937 238.533 76.4126 234.463 74.9675 230.681C73.503 227.156 70.7579 224.188 68.3405 221.141C65.4369 217.481 59.4826 219.078 58.9711 223.718C58.9661 223.763 58.9613 223.808 58.9566 223.853C59.3156 224.055 59.6671 224.269 60.011 224.496C60.443 224.784 60.7778 225.195 60.9714 225.676C61.1651 226.157 61.2085 226.686 61.0962 227.192C60.9838 227.698 60.7208 228.158 60.3416 228.512C59.9624 228.867 59.4848 229.099 58.9713 229.178L58.9187 229.186C59.0466 230.477 59.2727 231.756 59.5951 233.013C56.4939 244.978 63.1891 249.335 72.749 249.531C72.9601 249.639 73.1657 249.747 73.3768 249.85C71.5615 254.982 70.4229 260.327 69.9895 265.752C69.7442 268.953 69.7586 272.168 70.0328 275.366L70.0166 275.253C69.3239 271.696 67.4222 268.487 64.6327 266.168C60.4895 262.772 54.6359 261.522 50.1661 258.793C49.6911 258.489 49.1387 258.326 48.5742 258.325C48.0097 258.324 47.4566 258.483 46.9801 258.785C46.5035 259.087 46.1235 259.519 45.8848 260.029C45.6461 260.539 45.5587 261.107 45.6328 261.665C45.6388 261.705 45.6449 261.745 45.6511 261.785C46.3174 262.055 46.9662 262.367 47.5936 262.718C47.9527 262.921 48.3042 263.135 48.648 263.362C49.0801 263.65 49.4148 264.061 49.6084 264.542C49.8021 265.023 49.8455 265.551 49.7331 266.058C49.6208 266.564 49.3578 267.024 48.9786 267.378C48.5995 267.733 48.1218 267.965 47.6083 268.044L47.5557 268.052C47.5178 268.057 47.4854 268.063 47.4475 268.068C48.586 270.78 50.1839 273.276 52.1712 275.447C54.1103 285.892 62.4388 286.883 71.3476 283.841H71.3531C72.3305 288.078 73.7468 292.203 75.579 296.149H90.6755C90.7297 295.981 90.7783 295.808 90.8271 295.641C89.4297 295.729 88.0268 295.645 86.6498 295.393C87.7698 294.022 88.8899 292.64 90.01 291.269C90.035 291.243 90.0585 291.216 90.0803 291.188C90.6485 290.486 91.2221 289.79 91.7902 289.088L91.7905 289.087C91.8208 286.936 91.5728 284.79 91.0538 282.702Z" fill="#C8D9C7"/>
<path d="M406.369 282.702C406.759 282.72 407.144 282.618 407.473 282.41C407.803 282.202 408.06 281.898 408.21 281.539C408.361 281.18 408.397 280.784 408.314 280.404C408.231 280.024 408.033 279.678 407.747 279.414L407.617 278.898C407.634 278.856 407.651 278.815 407.668 278.774C408.061 277.849 408.718 277.061 409.558 276.508C410.398 275.955 411.383 275.662 412.389 275.666C413.395 275.67 414.378 275.97 415.213 276.529C416.049 277.088 416.701 277.881 417.086 278.809C418.626 282.51 420.587 286.217 421.07 290.13C421.283 291.859 421.193 293.613 420.805 295.312C424.423 287.439 426.301 278.882 426.313 270.222C426.314 268.049 426.193 265.877 425.951 263.717C425.751 261.947 425.473 260.189 425.118 258.443C423.179 248.973 419.015 240.097 412.97 232.543C410.044 230.951 407.678 228.502 406.19 225.526C405.651 224.456 405.27 223.314 405.059 222.136C405.389 222.179 406.304 217.164 406.055 216.857C406.515 216.16 407.338 215.814 407.84 215.135C410.339 211.755 413.781 212.345 415.578 216.938C419.417 218.87 419.454 222.076 417.099 225.159C415.6 227.12 415.394 229.774 414.079 231.874C414.215 232.047 414.355 232.214 414.49 232.387C416.963 235.559 419.119 238.965 420.925 242.557C420.486 238.533 421.01 234.463 422.455 230.681C423.92 227.156 426.665 224.188 429.082 221.141C431.986 217.481 437.94 219.078 438.452 223.718C438.457 223.763 438.462 223.808 438.466 223.853C438.107 224.055 437.756 224.269 437.412 224.496C436.98 224.784 436.645 225.195 436.451 225.676C436.258 226.157 436.214 226.686 436.327 227.192C436.439 227.698 436.702 228.158 437.081 228.512C437.46 228.867 437.938 229.099 438.452 229.178L438.504 229.186C438.376 230.477 438.15 231.756 437.828 233.013C440.929 244.978 434.234 249.335 424.674 249.531C424.463 249.639 424.257 249.747 424.046 249.85C425.861 254.982 427 260.327 427.433 265.752C427.679 268.953 427.664 272.168 427.39 275.366L427.406 275.253C428.099 271.696 430.001 268.487 432.79 266.168C436.933 262.772 442.787 261.522 447.257 258.793C447.732 258.489 448.284 258.326 448.849 258.325C449.413 258.324 449.966 258.483 450.443 258.785C450.919 259.087 451.299 259.519 451.538 260.029C451.777 260.539 451.864 261.107 451.79 261.665C451.784 261.705 451.778 261.745 451.772 261.785C451.106 262.055 450.457 262.367 449.829 262.718C449.47 262.921 449.119 263.135 448.775 263.362C448.343 263.65 448.008 264.061 447.814 264.542C447.621 265.023 447.577 265.551 447.69 266.058C447.802 266.564 448.065 267.024 448.444 267.378C448.823 267.733 449.301 267.965 449.815 268.044L449.867 268.052C449.905 268.057 449.938 268.063 449.975 268.068C448.837 270.78 447.239 273.276 445.252 275.447C443.313 285.892 434.984 286.883 426.075 283.841H426.07C425.092 288.078 423.676 292.203 421.844 296.149H406.747C406.693 295.981 406.645 295.808 406.596 295.641C407.993 295.729 409.396 295.645 410.773 295.393C409.653 294.022 408.533 292.64 407.413 291.269C407.388 291.243 407.364 291.216 407.343 291.188C406.774 290.486 406.201 289.79 405.633 289.088L405.632 289.087C405.602 286.936 405.85 284.79 406.369 282.702Z" fill="#C8D9C7"/>
<path d="M108.418 295.811H132.778C136.945 281.816 132.801 248.74 138.293 235.221C148.829 209.3 162.289 181.95 187.412 169.293C198.139 163.889 209.835 161.778 221.779 161.893C238.279 162.049 255.244 166.468 270.775 172.324C277.128 174.714 283.423 177.342 289.693 180.028C313.317 190.155 336.684 201.185 362.089 204.167C394.236 207.937 432.033 193.588 440.813 162.682C447.514 139.019 435.445 114.453 422.788 93.3205C410.132 72.1878 395.984 49.5767 398.295 25.1094C398.303 25.0273 398.312 24.9369 398.328 24.8548C399.198 16.0666 404.458 9.75079 411.805 5.70166H379.815C379.393 28.5263 392.629 48.6733 404.54 68.5657C417.197 89.6903 429.266 114.264 422.565 137.927C413.785 168.825 341.08 132.606 308.933 128.828C299.855 127.768 314.276 131.538 305.62 128.828C292.043 124.581 290.538 163.527 277.327 157.811C269.101 154.246 260.868 150.707 252.527 147.561C249.073 146.255 245.544 145.031 241.974 143.898C241.965 143.898 241.965 143.898 241.957 143.89C217.986 136.317 191.769 133.368 169.62 144.317C169.471 144.391 169.313 144.464 169.164 144.538C144.041 157.187 130.581 184.537 120.045 210.458C111.339 231.886 112.708 273.208 108.418 295.811Z" fill="#F2F2F2"/>
<path d="M243.952 295.094C305.746 295.094 355.84 245.12 355.84 183.473C355.84 121.827 305.746 71.8521 243.952 71.8521C182.158 71.8521 132.064 121.827 132.064 183.473C132.064 245.12 182.158 295.094 243.952 295.094Z" fill="white"/>
<path d="M243.633 295.811C132.931 298.348 130.503 245.88 130.503 183.473C130.503 121.067 181.396 70.2954 243.952 70.2954C306.508 70.2954 357.401 121.067 357.401 183.473C357.401 245.88 306.188 295.811 243.633 295.811ZM243.952 73.4096C183.117 73.4096 134.65 122.792 133.625 183.473C132.672 239.913 192.774 310.343 243.952 293.538C271.397 263.383 348.993 230.905 354.279 183.473C361.001 123.156 304.787 73.4096 243.952 73.4096Z" fill="#3F3D56"/>
<path d="M228.688 241.567C226.756 241.567 224.851 241.118 223.122 240.256C221.394 239.394 219.891 238.142 218.732 236.6L188.208 195.996C187.226 194.692 186.512 193.208 186.106 191.628C185.7 190.048 185.609 188.404 185.84 186.789C186.071 185.174 186.619 183.621 187.451 182.218C188.284 180.814 189.386 179.588 190.694 178.609C192.002 177.631 193.49 176.919 195.074 176.514C196.658 176.11 198.306 176.021 199.924 176.252C201.543 176.483 203.1 177.03 204.506 177.861C205.913 178.693 207.141 179.793 208.121 181.098L228.092 207.659L279.383 130.907C281.215 128.169 284.061 126.269 287.297 125.624C290.533 124.979 293.893 125.643 296.639 127.469C299.385 129.295 301.291 132.134 301.939 135.362C302.587 138.59 301.924 141.942 300.095 144.682L239.045 236.038C237.941 237.69 236.455 239.054 234.714 240.015C232.972 240.977 231.024 241.508 229.035 241.563C228.919 241.565 228.804 241.567 228.688 241.567Z" fill="#F2F2F2"/>
<path d="M9.5 295.898C9.49969 296.003 9.52032 296.108 9.56071 296.206C9.6011 296.303 9.66045 296.392 9.73535 296.467C9.81025 296.542 9.89921 296.601 9.99713 296.641C10.095 296.681 10.2 296.702 10.3059 296.702H494.694C494.908 296.702 495.113 296.617 495.264 296.466C495.415 296.315 495.5 296.111 495.5 295.898C495.5 295.684 495.415 295.48 495.264 295.329C495.113 295.178 494.908 295.094 494.694 295.094H10.3059C10.2 295.093 10.0951 295.114 9.99714 295.154C9.89922 295.195 9.81026 295.254 9.73536 295.329C9.66046 295.403 9.60111 295.492 9.56072 295.59C9.52033 295.687 9.49969 295.792 9.5 295.898Z" fill="#CCCCCC"/>
<path d="M315.401 288.017H308.85L305.733 262.806L315.403 262.807L315.401 288.017Z" fill="#FFB6B6"/>
<path d="M315.632 294.835L295.485 294.834V294.58C295.485 292.506 296.312 290.516 297.782 289.049C299.253 287.582 301.247 286.758 303.327 286.757L307.008 283.972L313.874 286.758L315.632 286.758L315.632 294.835Z" fill="#2F2E41"/>
<path d="M286.918 256.773L280.867 259.276L268.307 237.18L277.239 233.485L286.918 256.773Z" fill="#FFB6B6"/>
<path d="M289.75 262.983L271.14 270.681L271.042 270.447C270.245 268.53 270.245 266.376 271.04 264.459C271.835 262.542 273.361 261.019 275.282 260.224L277.612 256.244L285.024 256.194L286.648 255.521L289.75 262.983Z" fill="#2F2E41"/>
<path d="M322.892 144.607L276.398 149.453L270.178 170.35L248.639 204.881C248.639 204.881 263.669 230.117 262.258 229.842C260.846 229.567 263.667 236.446 265.643 236.047C267.618 235.648 269.673 240.133 268.307 240.93C266.941 241.728 272.421 248.471 272.421 248.471L280.796 240.971C282.578 227.566 280.425 215.636 272.757 205.773L296.752 179.93L301.302 178.046L304.914 273.942L318.272 274.161C321.958 255.245 323.81 238.219 320.929 226.073C320.929 226.073 321.343 189.586 322.923 189.985C324.503 190.384 323.163 185.631 323.163 185.631C323.163 185.631 321.78 181.582 323.48 179.903C325.18 178.224 324.118 168.346 324.118 168.346C326.927 158.998 326.082 151.28 322.892 144.607Z" fill="#2F2E41"/>
<path d="M287.143 67.489L299.996 64.1662L305.996 55.9106L320.245 57.6581L323.278 68.9188L333.423 74.793C333.423 74.793 327.816 133.954 329.15 137.203C330.483 140.451 335.265 140.183 331.181 144.371C327.097 148.558 326.556 146.872 327.504 151.431C328.452 155.99 335.36 160.814 327.504 160.767C319.648 160.719 272.245 160.043 273.599 154.638C274.953 149.234 274.932 150.606 276.974 147.218C279.017 143.829 280.391 145.723 279.704 140.723C279.017 135.722 279.694 132.344 279.694 129.642C279.694 126.94 281.963 102.384 281.963 102.384L287.143 67.489Z" fill="#E6E6E6"/>
<path d="M313.085 54.3843C321.424 54.3843 328.185 47.6401 328.185 39.3206C328.185 31.0011 321.424 24.2568 313.085 24.2568C304.746 24.2568 297.985 31.0011 297.985 39.3206C297.985 47.6401 304.746 54.3843 313.085 54.3843Z" fill="#FFB6B6"/>
<path d="M297.263 30.2041C298.589 31.2729 298.286 36.4713 299.763 35.624C301.24 34.7767 301.548 33.2594 303.249 33.2434C304.636 33.3198 305.944 33.9105 306.917 34.8994C307.098 35.0627 307.27 35.2338 307.437 35.403C307.591 35.3495 307.742 35.301 307.901 35.2613C309.094 34.9706 310.353 35.1476 311.419 35.7556C310.435 35.8257 309.497 36.2029 308.739 36.8337C309.064 37.1967 309.393 37.5618 309.74 37.8992C312.632 40.7264 318.561 37.7156 322.548 37.0363C319.228 40.6533 319.882 42.6725 320.708 47.5071L320.711 47.7712C320.881 46.6563 324.461 46.7118 323.871 48.1912C323.129 49.6527 322.202 51.0125 321.112 52.237C325.989 48.8664 329.926 44.2203 330.796 38.608C330.975 37.428 331.323 36.224 330.986 35.0735C330.843 34.4917 330.511 33.9737 330.041 33.6003C329.572 33.2269 328.992 33.0192 328.391 33.0095C328.934 31.288 329 29.4517 328.581 27.6959C328.161 25.9402 327.273 24.3306 326.01 23.0383C324.747 21.7459 323.157 20.8192 321.408 20.3566C319.659 19.894 317.818 19.9128 316.079 20.411C314.492 20.9734 312.945 21.6396 311.447 22.4053C309.935 23.1739 308.223 23.4631 306.542 23.2341C305.494 23.0182 304.433 22.4771 303.406 22.7835C302.216 23.1395 301.705 24.393 301.228 25.6032C302.123 25.9293 302.901 26.5143 303.461 27.2834C302.536 26.9427 301.526 26.9018 300.576 27.1665C300.558 27.1695 300.541 27.1742 300.525 27.1804C299.447 29.1061 299.385 29.5784 297.263 30.2041Z" fill="#2F2E41"/>
<path d="M302.242 60.1309C294.508 59.5097 287.446 65.4104 284.227 72.4531C281.007 79.4958 280.796 87.4852 280.64 95.2242L280.154 119.28C280.082 122.84 280.01 126.401 279.833 129.957C279.741 133.417 279.305 136.86 278.53 140.234C276.953 146.425 273.485 151.943 270.067 157.345C278.818 159.984 287.717 162.104 296.719 163.695C301.214 149.189 305.761 134.267 304.656 119.124C304.071 111.111 301.911 103.287 301.09 95.295C299.927 83.9755 301.468 72.5726 303.007 61.2978" fill="#3F3D56"/>
<path d="M321.016 61.4839C328.676 62.7127 334.132 70.1176 335.583 77.7215C337.034 85.3255 335.337 93.1363 333.646 100.691C331.895 108.519 330.144 116.346 328.392 124.174C327.615 127.649 326.837 131.125 326.163 134.621C325.509 138.018 328.25 142.374 328.281 145.833C328.339 152.221 327.096 157.482 329.13 163.54C320.002 164.03 310.852 163.981 301.729 163.394C300.815 148.238 299.95 132.666 304.628 118.218C307.104 110.572 311.065 103.484 313.765 95.9151C317.589 85.195 318.806 73.7531 319.995 62.4363" fill="#3F3D56"/>
<path d="M326.123 170.692C325.554 169.703 325.394 168.531 325.678 167.427C325.961 166.322 326.666 165.371 327.642 164.777C327.842 164.659 328.051 164.558 328.268 164.475L327.292 131.293L337.874 128.606L333.838 167.264C334.114 168.188 334.076 169.177 333.73 170.077C333.383 170.978 332.747 171.738 331.922 172.24C331.45 172.521 330.927 172.706 330.382 172.785C329.838 172.865 329.284 172.836 328.75 172.702C328.217 172.567 327.716 172.329 327.275 172.002C326.834 171.674 326.462 171.263 326.18 170.791C326.16 170.758 326.141 170.725 326.123 170.692Z" fill="#FFB6B6"/>
<path d="M325.35 74.74C325.35 74.74 332.737 68.5083 338.952 80.9683C345.167 93.4283 341.694 121.893 340.819 123.412C339.944 124.932 339.41 122.815 339.889 126.865C340.279 130.158 337.962 129.746 338.793 130.449C340.985 132.302 334.847 132.513 338 134.146C341.152 135.779 327.044 136.085 327.044 136.085C327.044 136.085 325.337 134.869 326.523 130.285C327.188 127.71 328.855 126.768 327.077 125.576C325.3 124.385 328.913 120.701 328.916 119.893C328.918 119.085 323.281 101.407 323.281 101.407L325.35 74.74Z" fill="#3F3D56"/>
<path d="M264.227 228.236C262.295 228.236 260.389 227.787 258.661 226.925C256.933 226.063 255.43 224.811 254.271 223.269L223.746 182.665C222.765 181.361 222.051 179.876 221.644 178.297C221.238 176.717 221.148 175.073 221.379 173.458C221.61 171.843 222.157 170.29 222.99 168.886C223.823 167.483 224.925 166.257 226.233 165.278C227.541 164.3 229.029 163.588 230.613 163.183C232.197 162.779 233.845 162.69 235.463 162.921C237.081 163.152 238.638 163.699 240.045 164.53C241.451 165.362 242.68 166.461 243.66 167.767L263.63 194.328L314.921 117.576C315.828 116.219 316.994 115.054 318.352 114.147C319.71 113.239 321.234 112.608 322.836 112.288C324.439 111.968 326.089 111.966 327.693 112.283C329.296 112.599 330.821 113.228 332.181 114.132C333.541 115.037 334.709 116.2 335.619 117.554C336.528 118.909 337.161 120.429 337.482 122.028C337.802 123.627 337.804 125.273 337.487 126.873C337.17 128.473 336.54 129.994 335.633 131.351L274.584 222.707C273.479 224.359 271.994 225.723 270.252 226.684C268.511 227.646 266.563 228.176 264.573 228.232C264.458 228.234 264.342 228.236 264.227 228.236Z" fill="#E43B4E"/>
<path d="M287.495 164.928C288.118 163.972 288.342 162.811 288.12 161.692C287.898 160.574 287.247 159.586 286.306 158.939C286.113 158.81 285.909 158.698 285.697 158.603L288.511 125.526L278.094 122.259L279.981 161.081C279.654 161.988 279.638 162.978 279.934 163.895C280.23 164.813 280.823 165.607 281.619 166.154C282.075 166.46 282.587 166.675 283.126 166.784C283.665 166.893 284.22 166.895 284.76 166.79C285.3 166.685 285.814 166.475 286.272 166.172C286.731 165.869 287.125 165.479 287.432 165.024C287.454 164.993 287.475 164.961 287.495 164.928Z" fill="#FFB6B6"/>
<path d="M293.592 69.2334C293.592 69.2334 286.562 62.6041 279.665 74.7023C272.769 86.8005 274.66 115.413 275.45 116.979C276.239 118.544 276.889 116.46 276.187 120.477C275.615 123.744 277.951 123.46 277.083 124.116C274.792 125.846 280.908 126.395 277.67 127.852C274.433 129.308 288.502 130.391 288.502 130.391C288.502 130.391 290.273 129.271 289.344 124.629C288.822 122.021 287.21 120.989 289.051 119.897C290.891 118.805 287.487 114.928 287.53 114.121C287.572 113.314 294.18 95.9736 294.18 95.9736L293.592 69.2334Z" fill="#3F3D56"/>
</g>
<path d="M243.298 429.939C210.277 429.88 74.3827 426.974 41.4475 430.322C31.77 431.306 34.9267 431.338 43.3948 433.611C50.902 435.625 81.513 455.998 53.2314 444.522C49.9018 443.171 35.7437 434.395 36.8244 433.898C54.1285 425.936 52.1522 424.084 65.5302 410.706" stroke="#464646" stroke-width="3" stroke-linecap="round"/>
<path d="M292.122 443.12C289.938 443.12 288.03 442.736 286.398 441.968C284.79 441.224 283.542 440.132 282.654 438.692C281.766 437.228 281.322 435.476 281.322 433.436C281.322 431.516 281.682 429.752 282.402 428.144C283.146 426.536 284.214 425.048 285.606 423.68C287.718 421.64 290.178 420.068 292.986 418.964C295.818 417.86 298.734 417.308 301.734 417.308C303.222 417.308 304.53 417.572 305.658 418.1C306.786 418.604 307.674 419.288 308.322 420.152C308.97 421.016 309.294 421.964 309.294 422.996C309.294 423.668 309.138 424.292 308.826 424.868C308.514 425.42 308.166 425.864 307.782 426.2C307.398 426.536 307.086 426.704 306.846 426.704C306.654 426.704 306.462 426.62 306.27 426.452C306.078 426.26 305.982 426.104 305.982 425.984C305.982 425.84 306.15 425.636 306.486 425.372C306.822 425.108 307.146 424.76 307.458 424.328C307.794 423.872 307.962 423.32 307.962 422.672C307.962 421.808 307.662 421.052 307.062 420.404C306.486 419.732 305.67 419.216 304.614 418.856C303.582 418.472 302.394 418.28 301.05 418.28C298.386 418.28 295.794 418.844 293.274 419.972C290.754 421.076 288.546 422.564 286.65 424.436C285.33 425.756 284.334 427.148 283.662 428.612C282.99 430.076 282.654 431.768 282.654 433.688C282.654 435.536 283.086 437.084 283.95 438.332C284.838 439.556 286.026 440.48 287.514 441.104C289.002 441.704 290.67 442.004 292.518 442.004C294.63 442.004 296.874 441.668 299.25 440.996C300.642 440.612 301.818 440.18 302.778 439.7C303.738 439.196 304.458 438.728 304.938 438.296C305.394 437.888 305.73 437.588 305.946 437.396C306.162 437.204 306.342 437.108 306.486 437.108C306.654 437.108 306.738 437.216 306.738 437.432C306.738 437.672 306.594 437.972 306.306 438.332C306.042 438.692 305.742 439.004 305.406 439.268C304.566 439.916 303.498 440.504 302.202 441.032C300.93 441.536 299.658 441.956 298.386 442.292C297.258 442.58 296.178 442.784 295.146 442.904C294.114 443.048 293.106 443.12 292.122 443.12ZM307.098 442.148C306.714 442.148 306.522 441.956 306.522 441.572C306.522 441.068 306.702 440.276 307.062 439.196C307.422 438.092 307.89 436.832 308.466 435.416C309.066 433.976 309.702 432.5 310.374 430.988C310.758 430.148 311.154 429.332 311.562 428.54C311.97 427.724 312.354 427.016 312.714 426.416C316.266 420.416 318.474 417.416 319.338 417.416C319.674 417.416 319.842 417.584 319.842 417.92C319.842 418.136 319.674 418.544 319.338 419.144C319.026 419.72 318.606 420.404 318.078 421.196C317.574 421.964 317.022 422.744 316.422 423.536C315.846 424.328 315.294 425.06 314.766 425.732C314.262 426.38 313.854 426.872 313.542 427.208C313.278 427.52 312.978 427.976 312.642 428.576C312.33 429.176 312.018 429.8 311.706 430.448C311.394 431.072 311.142 431.624 310.95 432.104L309.582 435.488C309.942 435.008 310.41 434.468 310.986 433.868C312.354 432.356 313.77 431.216 315.234 430.448C316.722 429.656 317.97 429.26 318.978 429.26C319.53 429.26 319.974 429.428 320.31 429.764C320.646 430.1 320.814 430.508 320.814 430.988C320.814 431.924 320.202 433.496 318.978 435.704C317.754 437.888 317.142 439.232 317.142 439.736C317.142 440 317.286 440.132 317.574 440.132C318.246 440.132 318.978 439.892 319.77 439.412C320.562 438.908 321.378 438.272 322.218 437.504C323.058 436.736 323.874 435.968 324.666 435.2C324.762 435.104 324.906 435.056 325.098 435.056C325.458 435.056 325.638 435.2 325.638 435.488C325.638 435.752 325.47 436.052 325.134 436.388C323.526 437.996 322.146 439.196 320.994 439.988C319.842 440.78 318.63 441.176 317.358 441.176C316.398 441.176 315.918 440.732 315.918 439.844C315.918 439.508 315.978 439.184 316.098 438.872C316.218 438.56 316.41 438.14 316.674 437.612L318.33 434.336C318.738 433.52 319.038 432.836 319.23 432.284C319.422 431.732 319.518 431.312 319.518 431.024C319.518 430.616 319.266 430.412 318.762 430.412C317.874 430.412 316.83 430.772 315.63 431.492C314.454 432.188 313.194 433.244 311.85 434.66C311.082 435.476 310.386 436.34 309.762 437.252C309.162 438.164 308.682 439.148 308.322 440.204L307.89 441.464C307.722 441.92 307.458 442.148 307.098 442.148ZM325.651 442.148C324.643 442.148 323.851 441.8 323.275 441.104C322.699 440.408 322.411 439.556 322.411 438.548C322.411 436.82 322.987 435.044 324.139 433.22C324.451 432.716 324.811 432.224 325.219 431.744C325.627 431.24 326.071 430.76 326.551 430.304C327.271 429.608 328.027 429.032 328.819 428.576C329.611 428.12 330.379 427.892 331.123 427.892C332.347 427.892 332.959 428.468 332.959 429.62C332.959 431.06 332.119 432.368 330.439 433.544C328.879 434.6 327.343 435.128 325.831 435.128C325.567 435.128 325.327 435.116 325.111 435.092C324.919 435.044 324.739 434.996 324.571 434.948C324.331 435.404 324.115 435.992 323.923 436.712C323.731 437.432 323.635 438.056 323.635 438.584C323.635 440.168 324.331 440.96 325.723 440.96C326.851 440.96 327.919 440.768 328.927 440.384C329.935 439.976 331.135 439.22 332.527 438.116C333.391 437.444 334.039 436.904 334.471 436.496C334.903 436.088 335.371 435.656 335.875 435.2C336.019 435.104 336.151 435.056 336.271 435.056C336.391 435.056 336.511 435.092 336.631 435.164C336.751 435.236 336.811 435.344 336.811 435.488C336.811 435.752 336.571 436.124 336.091 436.604C335.683 436.988 335.251 437.396 334.795 437.828C334.339 438.236 333.619 438.812 332.635 439.556C331.579 440.372 330.427 441.008 329.179 441.464C327.931 441.92 326.755 442.148 325.651 442.148ZM325.615 433.976C326.383 433.976 327.115 433.856 327.811 433.616C328.507 433.376 329.167 433.028 329.791 432.572C331.183 431.54 331.879 430.568 331.879 429.656C331.879 429.248 331.627 429.044 331.123 429.044C330.163 429.044 329.047 429.632 327.775 430.808C327.151 431.384 326.635 431.912 326.227 432.392C325.843 432.848 325.483 433.352 325.147 433.904C325.291 433.952 325.447 433.976 325.615 433.976ZM337.695 442.004C336.423 442.004 335.427 441.632 334.707 440.888C333.987 440.144 333.627 439.148 333.627 437.9C333.627 435.74 334.647 433.388 336.687 430.844C337.743 429.548 338.811 428.564 339.891 427.892C340.995 427.196 342.027 426.848 342.987 426.848C343.827 426.848 344.475 427.136 344.931 427.712C345.387 428.288 345.615 429.008 345.615 429.872C345.615 430.4 345.543 430.94 345.399 431.492C345.303 431.876 345.111 432.068 344.823 432.068C344.367 432.068 344.139 431.816 344.139 431.312C344.139 431.096 344.175 430.82 344.247 430.484C344.343 430.124 344.391 429.776 344.391 429.44C344.391 428.48 343.923 428 342.987 428C342.483 428 341.871 428.18 341.151 428.54C340.455 428.9 339.759 429.38 339.063 429.98C338.367 430.556 337.755 431.216 337.227 431.96C335.619 434.144 334.815 436.1 334.815 437.828C334.815 439.82 335.715 440.816 337.515 440.816C338.643 440.816 339.723 440.648 340.755 440.312C341.787 439.952 342.999 439.22 344.391 438.116C345.255 437.444 345.903 436.904 346.335 436.496C346.767 436.088 347.235 435.656 347.739 435.2C347.883 435.104 348.015 435.056 348.135 435.056C348.255 435.056 348.375 435.092 348.495 435.164C348.615 435.236 348.675 435.344 348.675 435.488C348.675 435.752 348.435 436.124 347.955 436.604C347.547 436.988 347.115 437.396 346.659 437.828C346.203 438.236 345.483 438.812 344.499 439.556C343.443 440.372 342.315 440.984 341.115 441.392C339.939 441.8 338.799 442.004 337.695 442.004ZM355.015 443.192C354.775 443.192 354.595 443.048 354.475 442.76L353.971 441.536C353.443 440.264 352.687 439.004 351.703 437.756C350.719 436.484 349.747 435.32 348.787 434.264C348.259 435.344 347.791 436.316 347.383 437.18C346.975 438.044 346.603 438.86 346.267 439.628C345.931 440.372 345.571 441.152 345.187 441.968C345.091 442.208 344.923 442.328 344.683 442.328C344.275 442.328 344.071 442.16 344.071 441.824C344.071 441.68 344.119 441.5 344.215 441.284C344.335 441.044 344.443 440.804 344.539 440.564C345.163 439.052 345.967 437.252 346.951 435.164C347.959 433.076 349.099 430.796 350.371 428.324C352.795 423.596 354.739 420.212 356.203 418.172C356.539 417.692 356.863 417.26 357.175 416.876C357.511 416.492 357.799 416.3 358.039 416.3C358.471 416.3 358.687 416.528 358.687 416.984C358.687 417.608 357.775 419.264 355.951 421.952C355.807 422.168 355.555 422.528 355.195 423.032C354.835 423.536 354.451 424.088 354.043 424.688C353.635 425.264 353.251 425.804 352.891 426.308C352.555 426.788 352.327 427.124 352.207 427.316L349.615 432.464C355.423 429.08 358.543 427.388 358.975 427.388C359.359 427.388 359.551 427.604 359.551 428.036C359.551 428.3 359.407 428.492 359.119 428.612C358.063 429.116 357.223 429.524 356.599 429.836C355.999 430.148 355.387 430.472 354.763 430.808C354.235 431.144 353.551 431.552 352.711 432.032C351.895 432.512 350.923 433.064 349.795 433.688C350.371 434.312 350.995 435.044 351.667 435.884C352.339 436.7 352.963 437.552 353.539 438.44C354.139 439.304 354.631 440.108 355.015 440.852C355.399 441.596 355.591 442.196 355.591 442.652C355.591 443.012 355.399 443.192 355.015 443.192ZM369.477 442.4C369.069 442.4 368.865 442.196 368.865 441.788C368.865 441.404 369.093 441.212 369.549 441.212C369.957 441.212 370.461 441.188 371.061 441.14C371.661 441.068 372.189 441.02 372.645 440.996C372.717 440.54 372.957 439.868 373.365 438.98C373.773 438.092 374.313 437.084 374.985 435.956C375.657 434.828 376.413 433.664 377.253 432.464L383.265 423.896C383.529 423.488 383.889 422.924 384.345 422.204C384.825 421.46 385.389 420.56 386.037 419.504C385.317 419.552 384.657 419.612 384.057 419.684C383.481 419.756 382.965 419.828 382.509 419.9C381.837 419.996 381.393 420.068 381.177 420.116C380.961 420.164 380.793 420.188 380.673 420.188C380.265 420.188 380.061 419.96 380.061 419.504C380.061 419.24 380.229 419.072 380.565 419C381.981 418.736 383.361 418.532 384.705 418.388C386.073 418.244 387.417 418.172 388.737 418.172C390.033 418.172 391.089 418.28 391.905 418.496C392.289 418.616 392.541 418.736 392.661 418.856C392.805 418.976 392.877 419.132 392.877 419.324C392.877 419.708 392.697 419.9 392.337 419.9C392.217 419.9 392.049 419.852 391.833 419.756C391.617 419.66 391.281 419.576 390.825 419.504C390.393 419.408 389.733 419.36 388.845 419.36C388.509 419.36 388.209 419.36 387.945 419.36C387.705 419.36 387.501 419.372 387.333 419.396C387.309 419.9 386.853 420.788 385.965 422.06L384.165 424.616L379.557 431.348C378.693 432.596 377.901 433.796 377.181 434.948C376.461 436.1 375.789 437.18 375.165 438.188C374.805 438.788 374.409 439.664 373.977 440.816C374.889 440.72 375.645 440.66 376.245 440.636C376.845 440.588 377.277 440.564 377.541 440.564C378.069 440.564 378.537 440.588 378.945 440.636C379.377 440.66 379.749 440.696 380.061 440.744C380.421 440.816 380.601 440.996 380.601 441.284C380.601 441.668 380.385 441.86 379.953 441.86C379.665 441.86 379.293 441.836 378.837 441.788C378.405 441.764 378.021 441.752 377.685 441.752C376.605 441.752 375.285 441.86 373.725 442.076C373.605 442.268 373.437 442.364 373.221 442.364C373.029 442.364 372.885 442.28 372.789 442.112C372.069 442.208 371.433 442.28 370.881 442.328C370.329 442.376 369.861 442.4 369.477 442.4ZM386.537 443.984C386.081 443.984 385.853 443.624 385.853 442.904C385.853 441.848 386.441 440 387.617 437.36C388.817 434.72 390.593 431.264 392.945 426.992C392.033 426.992 391.169 427.112 390.353 427.352C389.561 427.568 389.141 427.844 389.093 428.18C389.069 428.276 389.009 428.372 388.913 428.468C388.841 428.54 388.721 428.576 388.553 428.576C388.169 428.576 387.977 428.384 387.977 428C387.977 427.376 388.469 426.86 389.453 426.452C390.437 426.044 391.817 425.84 393.593 425.84L396.077 421.736C396.245 421.472 396.425 421.184 396.617 420.872C396.809 420.536 397.025 420.176 397.265 419.792C397.505 419.456 397.781 419.288 398.093 419.288C398.285 419.288 398.429 419.348 398.525 419.468C398.621 419.564 398.669 419.672 398.669 419.792C398.669 420.152 398.141 421.112 397.085 422.672C395.765 424.616 395.057 425.672 394.961 425.84C395.321 425.84 395.861 425.876 396.581 425.948C397.301 425.996 398.153 426.08 399.137 426.2C399.497 426.224 399.677 426.404 399.677 426.74C399.677 427.124 399.461 427.316 399.029 427.316C398.861 427.316 398.525 427.292 398.021 427.244C397.517 427.172 396.977 427.112 396.401 427.064C395.825 427.016 395.333 427.004 394.925 427.028L394.385 427.064C389.513 435.632 387.089 440.96 387.113 443.048L387.149 443.336V443.408C387.149 443.792 386.945 443.984 386.537 443.984ZM410.724 445.028C410.268 445.028 410.04 444.824 410.04 444.416C410.04 441.584 411.696 437.168 415.008 431.168C415.248 430.736 415.62 430.1 416.124 429.26C415.308 429.356 414.624 429.536 414.072 429.8C413.544 430.04 413.196 430.16 413.028 430.16C412.596 430.16 412.38 429.956 412.38 429.548C412.38 428.924 413.868 428.384 416.844 427.928C417.252 427.232 417.768 426.368 418.392 425.336C419.04 424.304 419.808 423.092 420.696 421.7C421.344 420.668 421.896 419.768 422.352 419C422.808 418.208 423.18 417.488 423.468 416.84C423.564 416.6 423.72 416.48 423.936 416.48C424.392 416.48 424.62 416.72 424.62 417.2C424.62 417.368 424.332 417.932 423.756 418.892C423.204 419.828 422.328 421.268 421.128 423.212L418.284 427.784C419.196 427.688 420.156 427.616 421.164 427.568C422.172 427.52 423.204 427.496 424.26 427.496C426.372 427.496 430.248 427.676 435.888 428.036C436.368 427.004 436.872 425.996 437.4 425.012C437.952 424.004 438.528 423.008 439.128 422.024C439.992 420.56 440.748 419.42 441.396 418.604C442.044 417.764 442.524 417.224 442.836 416.984C443.148 416.744 443.4 416.624 443.592 416.624C443.952 416.624 444.132 416.816 444.132 417.2C444.132 417.392 444.024 417.56 443.808 417.704C443.376 418.016 442.848 418.58 442.224 419.396C441.6 420.212 440.904 421.28 440.136 422.6C438.984 424.544 438 426.392 437.184 428.144C438.024 428.144 438.444 428.348 438.444 428.756C438.444 428.924 438.384 429.068 438.264 429.188C438.144 429.308 437.964 429.356 437.724 429.332L436.644 429.26C434.22 434.66 433.008 438.356 433.008 440.348V441.14C433.008 441.428 432.804 441.572 432.396 441.572C432.012 441.572 431.82 441.152 431.82 440.312C431.82 438.2 432.996 434.48 435.348 429.152C432.42 428.984 430.008 428.864 428.112 428.792C426.24 428.72 424.884 428.684 424.044 428.684C421.692 428.684 419.544 428.792 417.6 429.008L416.052 431.708C414.876 433.796 413.952 435.668 413.28 437.324C412.608 438.956 412.152 440.18 411.912 440.996C411.672 441.932 411.516 442.652 411.444 443.156C411.372 443.66 411.312 444.128 411.264 444.56C411.24 444.872 411.06 445.028 410.724 445.028ZM441.083 442.148C440.075 442.148 439.283 441.8 438.707 441.104C438.131 440.408 437.843 439.556 437.843 438.548C437.843 436.82 438.419 435.044 439.571 433.22C439.883 432.716 440.243 432.224 440.651 431.744C441.059 431.24 441.503 430.76 441.983 430.304C442.703 429.608 443.459 429.032 444.251 428.576C445.043 428.12 445.811 427.892 446.555 427.892C447.779 427.892 448.391 428.468 448.391 429.62C448.391 431.06 447.551 432.368 445.871 433.544C444.311 434.6 442.775 435.128 441.263 435.128C440.999 435.128 440.759 435.116 440.543 435.092C440.351 435.044 440.171 434.996 440.003 434.948C439.763 435.404 439.547 435.992 439.355 436.712C439.163 437.432 439.067 438.056 439.067 438.584C439.067 440.168 439.763 440.96 441.155 440.96C442.283 440.96 443.351 440.768 444.359 440.384C445.367 439.976 446.567 439.22 447.959 438.116C448.823 437.444 449.471 436.904 449.903 436.496C450.335 436.088 450.803 435.656 451.307 435.2C451.451 435.104 451.583 435.056 451.703 435.056C451.823 435.056 451.943 435.092 452.063 435.164C452.183 435.236 452.243 435.344 452.243 435.488C452.243 435.752 452.003 436.124 451.523 436.604C451.115 436.988 450.683 437.396 450.227 437.828C449.771 438.236 449.051 438.812 448.067 439.556C447.011 440.372 445.859 441.008 444.611 441.464C443.363 441.92 442.187 442.148 441.083 442.148ZM441.047 433.976C441.815 433.976 442.547 433.856 443.243 433.616C443.939 433.376 444.599 433.028 445.223 432.572C446.615 431.54 447.311 430.568 447.311 429.656C447.311 429.248 447.059 429.044 446.555 429.044C445.595 429.044 444.479 429.632 443.207 430.808C442.583 431.384 442.067 431.912 441.659 432.392C441.275 432.848 440.915 433.352 440.579 433.904C440.723 433.952 440.879 433.976 441.047 433.976ZM447.439 442.4C447.055 442.4 446.863 442.244 446.863 441.932C446.863 441.788 446.899 441.644 446.971 441.5C447.067 441.356 447.139 441.236 447.187 441.14L450.463 434.516C451.855 431.684 452.551 430.112 452.551 429.8C452.551 429.464 452.719 429.296 453.055 429.296C453.511 429.296 453.739 429.524 453.739 429.98C453.739 430.22 453.631 430.604 453.415 431.132C453.199 431.66 452.923 432.272 452.587 432.968C452.011 434.216 451.531 435.176 451.147 435.848C451.867 435.008 452.599 434.216 453.343 433.472C454.087 432.728 454.843 432.02 455.611 431.348C457.891 429.356 459.643 428.36 460.867 428.36C461.707 428.36 462.127 428.756 462.127 429.548C462.127 430.316 461.875 430.7 461.371 430.7C461.131 430.7 460.951 430.496 460.831 430.088C460.759 429.8 460.591 429.656 460.327 429.656C459.919 429.656 459.127 430.1 457.951 430.988C456.655 431.948 455.347 433.088 454.027 434.408C452.731 435.728 451.351 437.408 449.887 439.448L448.087 441.968C447.991 442.088 447.895 442.184 447.799 442.256C447.727 442.352 447.607 442.4 447.439 442.4ZM462.426 442.148C461.418 442.148 460.626 441.8 460.05 441.104C459.474 440.408 459.186 439.556 459.186 438.548C459.186 436.82 459.762 435.044 460.914 433.22C461.226 432.716 461.586 432.224 461.994 431.744C462.402 431.24 462.846 430.76 463.326 430.304C464.046 429.608 464.802 429.032 465.594 428.576C466.386 428.12 467.154 427.892 467.898 427.892C469.122 427.892 469.734 428.468 469.734 429.62C469.734 431.06 468.894 432.368 467.214 433.544C465.654 434.6 464.118 435.128 462.606 435.128C462.342 435.128 462.102 435.116 461.886 435.092C461.694 435.044 461.514 434.996 461.346 434.948C461.106 435.404 460.89 435.992 460.698 436.712C460.506 437.432 460.41 438.056 460.41 438.584C460.41 440.168 461.106 440.96 462.498 440.96C463.626 440.96 464.694 440.768 465.702 440.384C466.71 439.976 467.91 439.22 469.302 438.116C470.166 437.444 470.814 436.904 471.246 436.496C471.678 436.088 472.146 435.656 472.65 435.2C472.794 435.104 472.926 435.056 473.046 435.056C473.166 435.056 473.286 435.092 473.406 435.164C473.526 435.236 473.586 435.344 473.586 435.488C473.586 435.752 473.346 436.124 472.866 436.604C472.458 436.988 472.026 437.396 471.57 437.828C471.114 438.236 470.394 438.812 469.41 439.556C468.354 440.372 467.202 441.008 465.954 441.464C464.706 441.92 463.53 442.148 462.426 442.148ZM462.39 433.976C463.158 433.976 463.89 433.856 464.586 433.616C465.282 433.376 465.942 433.028 466.566 432.572C467.958 431.54 468.654 430.568 468.654 429.656C468.654 429.248 468.402 429.044 467.898 429.044C466.938 429.044 465.822 429.632 464.55 430.808C463.926 431.384 463.41 431.912 463.002 432.392C462.618 432.848 462.258 433.352 461.922 433.904C462.066 433.952 462.222 433.976 462.39 433.976Z" fill="#464646"/>
<defs>
<clipPath id="clip0_880_134301">
<rect width="486" height="291" fill="white" transform="translate(9.5 5.70166)"/>
</clipPath>
</defs>
</svg>
