<svg width="20" height="20" viewBox="0 0 20 20" fill="none" xmlns="http://www.w3.org/2000/svg">
<path d="M1.66663 5L7.42748 8.26414C9.55129 9.46751 10.4486 9.46751 12.5724 8.26414L18.3333 5" stroke="black" stroke-linejoin="round"/>
<path d="M1.67976 11.2296C1.73424 13.7843 1.76148 15.0616 2.70409 16.0078C3.6467 16.9539 4.95857 16.9869 7.58232 17.0528C9.19939 17.0935 10.8005 17.0935 12.4176 17.0528C15.0414 16.9869 16.3532 16.9539 17.2958 16.0078C18.2384 15.0616 18.2657 13.7843 18.3202 11.2296C18.3377 10.4082 18.3377 9.59169 18.3202 8.77029C18.2657 6.21568 18.2384 4.93837 17.2958 3.99218C16.3532 3.04599 15.0414 3.01302 12.4176 2.9471C10.8005 2.90647 9.19938 2.90647 7.58231 2.94709C4.95857 3.01301 3.64669 3.04597 2.70409 3.99217C1.76148 4.93836 1.73424 6.21566 1.67976 8.77027C1.66225 9.59168 1.66225 10.4082 1.67976 11.2296Z" stroke="black" stroke-linejoin="round"/>
</svg>
