<svg width="20" height="20" viewBox="0 0 20 20" fill="none" xmlns="http://www.w3.org/2000/svg">
<path d="M18.3333 9.16663L1.66663 9.16663" stroke="black" stroke-linecap="round"/>
<path d="M1.66663 5.79142C1.66663 5.05597 1.66663 4.68825 1.72442 4.38195C1.97883 3.03355 3.03355 1.97883 4.38195 1.72442C4.68825 1.66663 5.05597 1.66663 5.79142 1.66663C6.11365 1.66663 6.27476 1.66663 6.4296 1.68111C7.09717 1.74353 7.7304 2.00582 8.24658 2.43372C8.3663 2.53297 8.48023 2.6469 8.70808 2.87475L9.16663 3.33329C9.84644 4.01311 10.1864 4.35302 10.5934 4.57948C10.817 4.70388 11.0542 4.80213 11.3003 4.87227C11.7482 4.99996 12.2289 4.99996 13.1903 4.99996H13.5017C15.6953 4.99996 16.7922 4.99996 17.5051 5.64118C17.5707 5.70016 17.6331 5.76257 17.6921 5.82815C18.3333 6.54109 18.3333 7.63791 18.3333 9.83155V11.6666C18.3333 14.8093 18.3333 16.3807 17.357 17.357C16.3807 18.3333 14.8093 18.3333 11.6666 18.3333H8.33329C5.1906 18.3333 3.61925 18.3333 2.64294 17.357C1.66663 16.3807 1.66663 14.8093 1.66663 11.6666V5.79142Z" stroke="black"/>
</svg>
