<svg width="20" height="20" viewBox="0 0 20 20" fill="none" xmlns="http://www.w3.org/2000/svg">
<path d="M17.9801 18.6868C18.1754 18.8821 18.4919 18.8821 18.6872 18.6868C18.8825 18.4916 18.8825 18.175 18.6872 17.9797L17.9801 18.6868ZM16.6468 17.3535L17.9801 18.6868L18.6872 17.9797L17.3539 16.6464L16.6468 17.3535ZM18.167 14.6666C18.167 12.7336 16.6 11.1666 14.667 11.1666V12.1666C16.0477 12.1666 17.167 13.2859 17.167 14.6666H18.167ZM14.667 11.1666C12.734 11.1666 11.167 12.7336 11.167 14.6666H12.167C12.167 13.2859 13.2863 12.1666 14.667 12.1666V11.1666ZM11.167 14.6666C11.167 16.5996 12.734 18.1666 14.667 18.1666V17.1666C13.2863 17.1666 12.167 16.0473 12.167 14.6666H11.167ZM14.667 18.1666C16.6 18.1666 18.167 16.5996 18.167 14.6666H17.167C17.167 16.0473 16.0477 17.1666 14.667 17.1666V18.1666Z" fill="black"/>
<path d="M18.3337 10.0534V7.6812C18.3337 6.06485 18.3337 5.25668 17.8455 4.75455C17.3573 4.25241 16.5717 4.25241 15.0003 4.25241H13.2681C12.5036 4.25241 12.4974 4.25092 11.8099 3.90691L9.03355 2.51758C7.87436 1.93749 7.29476 1.64745 6.67731 1.66761C6.05985 1.68777 5.4993 2.01503 4.3782 2.66955L3.35497 3.26693C2.53148 3.7477 2.11973 3.98809 1.89336 4.388C1.66699 4.7879 1.66699 5.2749 1.66699 6.2489V13.0964C1.66699 14.3762 1.66699 15.016 1.95221 15.3722C2.142 15.6092 2.40796 15.7684 2.70199 15.8213C3.14388 15.9006 3.68489 15.5848 4.76689 14.9531C5.50162 14.5241 6.20875 14.0786 7.08772 14.1994C7.82424 14.3007 8.50866 14.7654 9.16699 15.0948" stroke="black" stroke-linecap="round" stroke-linejoin="round"/>
<path d="M6.66699 1.66663L6.66699 14.1666" stroke="black" stroke-linejoin="round"/>
<path d="M12.5 4.16663V9.16663" stroke="black" stroke-linecap="round" stroke-linejoin="round"/>
</svg>
