<svg width="20" height="20" viewBox="0 0 20 20" fill="none" xmlns="http://www.w3.org/2000/svg">
<path d="M1.66667 10C1.66667 10.8766 1.81706 11.7181 2.09344 12.5M10.8447 7.5H17.918M9.16667 12.5H2.09344M17.918 7.5C16.8884 4.58702 14.1103 2.5 10.8447 2.5C12.1788 2.5 13.2689 5.635 13.3409 9.58333M17.918 7.5C18.1503 8.15723 18.2935 8.8565 18.3333 9.58333M2.09344 12.5C3.12303 15.413 5.90112 17.5 9.16667 17.5C7.87985 17.5 6.82011 14.5833 6.68193 10.8333" stroke="black" stroke-linecap="round" stroke-linejoin="round"/>
<path d="M1.66667 4.41429C1.66667 3.49898 1.66667 3.04133 1.82283 2.68641C1.98842 2.31003 2.27385 2.00752 2.62897 1.83201C2.96385 1.6665 3.39565 1.6665 4.25927 1.6665H5.00001C6.57135 1.6665 7.35703 1.6665 7.84518 2.18388C8.33334 2.70126 8.33334 3.53396 8.33334 5.19937V7.08193C8.33334 7.80838 8.33334 8.17161 8.11328 8.29643C7.89322 8.42126 7.60806 8.21977 7.03775 7.81681L6.95086 7.75541C6.53406 7.46091 6.32566 7.31366 6.08946 7.23786C5.85327 7.16207 5.6028 7.16207 5.10186 7.16207H4.25927C3.39565 7.16207 2.96385 7.16207 2.62897 6.99657C2.27385 6.82106 1.98842 6.51855 1.82283 6.14217C1.66667 5.78725 1.66667 5.32959 1.66667 4.41429Z" stroke="black"/>
<path d="M18.3333 14.4143C18.3333 13.499 18.3333 13.0413 18.1772 12.6864C18.0116 12.31 17.7262 12.0075 17.371 11.832C17.0362 11.6665 16.6044 11.6665 15.7407 11.6665H15C13.4287 11.6665 12.643 11.6665 12.1548 12.1839C11.6667 12.7013 11.6667 13.534 11.6667 15.1994V17.0819C11.6667 17.8084 11.6667 18.1716 11.8867 18.2964C12.1068 18.4213 12.3919 18.2198 12.9623 17.8168L13.0491 17.7554C13.466 17.4609 13.6744 17.3137 13.9105 17.2379C14.1467 17.1621 14.3972 17.1621 14.8981 17.1621H15.7407C16.6044 17.1621 17.0362 17.1621 17.371 16.9966C17.7262 16.8211 18.0116 16.5185 18.1772 16.1422C18.3333 15.7872 18.3333 15.3296 18.3333 14.4143Z" stroke="black"/>
</svg>
