<svg width="16" height="18" viewBox="0 0 16 18" fill="none" xmlns="http://www.w3.org/2000/svg">
<path d="M4.6665 12.3332C4.6665 14.6902 4.6665 15.8687 5.39874 16.6009C6.13097 17.3332 7.30948 17.3332 9.6665 17.3332H10.4998C12.8569 17.3332 14.0354 17.3332 14.7676 16.6009C15.4998 15.8687 15.4998 14.6902 15.4998 12.3332V5.6665C15.4998 3.30948 15.4998 2.13097 14.7676 1.39874C14.0354 0.666504 12.8569 0.666504 10.4998 0.666504H9.6665C7.30948 0.666504 6.13097 0.666504 5.39874 1.39874C4.6665 2.13097 4.6665 3.30948 4.6665 5.6665" stroke="#E43B4E" stroke-linecap="round"/>
<path d="M4.66667 15.25C2.70248 15.25 1.72039 15.25 1.11019 14.6398C0.5 14.0296 0.5 13.0475 0.5 11.0833V6.91667C0.5 4.95248 0.5 3.97039 1.11019 3.36019C1.72039 2.75 2.70248 2.75 4.66667 2.75" stroke="#E43B4E"/>
<path d="M3 8.99984L10.5 8.99984M10.5 8.99984L8.41667 11.0832M10.5 8.99984L8.41667 6.9165" stroke="#E43B4E" stroke-linecap="round" stroke-linejoin="round"/>
</svg>
