<svg width="20" height="20" viewBox="0 0 20 20" fill="none" xmlns="http://www.w3.org/2000/svg">
<path d="M7.70829 9.99996C7.70829 9.65478 7.98811 9.37496 8.33329 9.37496H9.37496V8.33329C9.37496 7.98811 9.65478 7.70829 9.99996 7.70829C10.3451 7.70829 10.625 7.98811 10.625 8.33329V9.37496H11.6666C12.0118 9.37496 12.2916 9.65478 12.2916 9.99996C12.2916 10.3451 12.0118 10.625 11.6666 10.625H10.625V11.6666C10.625 12.0118 10.3451 12.2916 9.99996 12.2916C9.65478 12.2916 9.37496 12.0118 9.37496 11.6666V10.625H8.33329C7.98811 10.625 7.70829 10.3451 7.70829 9.99996Z" fill="black"/>
<path fill-rule="evenodd" clip-rule="evenodd" d="M9.99996 1.04163C5.05241 1.04163 1.04163 5.05241 1.04163 9.99996C1.04163 14.9475 5.05241 18.9583 9.99996 18.9583C14.9475 18.9583 18.9583 14.9475 18.9583 9.99996C18.9583 5.05241 14.9475 1.04163 9.99996 1.04163ZM9.37496 2.3166C5.61621 2.61819 2.61819 5.61621 2.3166 9.37496H4.16663C4.5118 9.37496 4.79163 9.65478 4.79163 9.99996C4.79163 10.3451 4.5118 10.625 4.16663 10.625H2.3166C2.61819 14.3837 5.61621 17.3817 9.37496 17.6833V15.8333C9.37496 15.4881 9.65478 15.2083 9.99996 15.2083C10.3451 15.2083 10.625 15.4881 10.625 15.8333V17.6833C14.3837 17.3817 17.3817 14.3837 17.6833 10.625H15.8333C15.4881 10.625 15.2083 10.3451 15.2083 9.99996C15.2083 9.65478 15.4881 9.37496 15.8333 9.37496H17.6833C17.3817 5.61621 14.3837 2.61819 10.625 2.3166V4.16663C10.625 4.5118 10.3451 4.79163 9.99996 4.79163C9.65478 4.79163 9.37496 4.5118 9.37496 4.16663V2.3166Z" fill="black"/>
</svg>
