<svg width="435" height="375" viewBox="0 0 435 375" fill="none" xmlns="http://www.w3.org/2000/svg">
<g clip-path="url(#clip0_673_103833)">
<path d="M180.947 325.783L185.698 310.295C179.981 303.997 172.815 299.191 164.822 296.295C172.631 309.245 165.064 326.139 168.218 340.933C169.236 345.539 171.278 349.857 174.19 353.567C177.103 357.276 180.812 360.282 185.043 362.361L192.253 371.304C196.032 364.693 198.336 357.342 199.004 349.755C199.671 342.168 198.688 334.526 196.122 327.356C194.642 323.348 192.664 319.542 190.234 316.029C185.95 321.071 180.947 325.783 180.947 325.783Z" fill="#C8D9C7"/>
<path d="M154.822 327.762L152.174 311.778C144.251 308.694 135.697 307.591 127.252 308.567C140.011 316.672 140.765 335.171 150.179 347.004C153.143 350.672 156.894 353.626 161.154 355.646C165.413 357.666 170.072 358.7 174.785 358.672L185.223 363.457C185.661 355.854 184.446 348.245 181.664 341.156C178.881 334.068 174.597 327.667 169.105 322.395C165.995 319.468 162.529 316.945 158.789 314.885C157.201 321.311 154.822 327.762 154.822 327.762Z" fill="#C8D9C7"/>
<path d="M310.322 367.329L303.003 367.328L299.521 339.073L310.323 339.073L310.322 367.329Z" fill="#FFB6B6"/>
<path d="M312.187 374.429L288.59 374.429V374.13C288.59 371.692 289.558 369.353 291.28 367.629C293.003 365.905 295.339 364.936 297.774 364.936H297.775L302.085 361.663L310.127 364.937L312.187 364.937L312.187 374.429Z" fill="#2F2E41"/>
<path d="M428.539 340.609L423.549 345.967L400.525 329.252L407.89 321.343L428.539 340.609Z" fill="#FFB6B6"/>
<path d="M435 344.084L418.911 361.362L418.693 361.158C416.911 359.496 415.862 357.193 415.776 354.756C415.691 352.32 416.575 349.948 418.236 348.165L418.783 342.776L426.659 339.119L428.063 337.611L435 344.084Z" fill="#2F2E41"/>
<path d="M417.71 324.729L409.975 340.923L362.475 309.442L355.565 300.018L332.908 269.117L323.698 283.745L317.289 299.037C315.201 300.401 313.441 302.212 312.137 304.339C310.832 306.467 310.016 308.858 309.748 311.339L309.454 314.046L313.504 350.487L298.112 355.218L289.272 306.265L292.162 295.657L295.137 280.767L310.116 233.714H350.199L373.188 282.698L374.869 292.679L381.387 300.168L417.71 324.729Z" fill="#2F2E41"/>
<path d="M334.41 156.732L341.157 161.875L349.294 164.378C349.294 164.378 352.659 211.745 355.69 214.779C358.721 217.814 355.987 217.895 356.596 221.837C357.205 225.778 358.686 233.858 358.686 233.858C338.225 244.7 320.586 244.991 306.417 232.304C306.236 231.519 306.328 230.696 306.678 229.971C307.028 229.246 307.615 228.662 308.342 228.317C310.979 226.916 305.911 220.379 308.067 219.286C310.222 218.193 307.19 208.711 307.19 208.711L309.179 188.928L307.608 185.765L311.442 166.415L318.094 163.983L320.751 157.574L334.41 156.732Z" fill="#3F3D56"/>
<path d="M338.636 240.919C338.606 240.064 338.764 239.212 339.098 238.424C339.432 237.637 339.935 236.932 340.57 236.359C341.206 235.787 341.96 235.361 342.778 235.111C343.596 234.862 344.458 234.795 345.305 234.916L354.814 216.414L360.112 225.836L350.27 241.961C349.973 243.372 349.171 244.624 348.013 245.481C346.856 246.339 345.425 246.741 343.991 246.613C342.557 246.484 341.22 245.834 340.233 244.784C339.246 243.735 338.678 242.36 338.636 240.919Z" fill="#FFB6B6"/>
<path d="M354.652 236.393L375.048 204.751L374.98 204.605C374.903 204.438 370.285 194.453 365.809 185.308C365.12 183.899 364.434 182.511 363.769 181.181C363.482 180.607 363.199 180.045 362.921 179.495C361.041 175.786 359.399 172.72 358.418 171.264C356.25 167.971 353.022 165.52 349.27 164.317L349.176 164.293L349.086 164.33C347.25 165.106 345.734 166.484 344.786 168.237C343.838 169.991 343.516 172.016 343.872 173.978C345.641 183.44 349.583 192.362 355.387 200.038L358.693 204.401L347.203 229.407L354.652 236.393Z" fill="#3F3D56"/>
<path d="M284.515 115.102C285.077 115.747 285.49 116.508 285.726 117.331C285.963 118.153 286.016 119.018 285.882 119.863C285.748 120.709 285.431 121.514 284.952 122.224C284.473 122.933 283.845 123.529 283.112 123.969L287.364 144.336L277.321 140.355L274.823 121.625C274.166 120.343 274.002 118.864 274.361 117.468C274.721 116.073 275.58 114.858 276.774 114.054C277.969 113.25 279.417 112.912 280.844 113.105C282.27 113.298 283.577 114.009 284.515 115.102Z" fill="#FFB6B6"/>
<path d="M274.922 128.712L278.983 166.149L279.127 166.22C279.246 166.278 284.391 168.804 290.707 171.813C291.772 172.32 291.62 174.519 292.733 175.044C293.5 175.406 295.526 174.093 296.301 174.456C303.204 177.687 310.185 180.83 312.967 181.681C316.723 182.872 320.773 182.742 324.444 181.311L324.533 181.271L324.579 181.185C325.517 179.426 325.828 177.399 325.461 175.439C325.094 173.48 324.071 171.703 322.56 170.404C315.233 164.168 306.559 159.722 297.221 157.417L291.908 156.112L285.103 129.444L274.922 128.712Z" fill="#3F3D56"/>
<path d="M327.216 154.611C334.587 154.611 340.562 148.629 340.562 141.251C340.562 133.872 334.587 127.891 327.216 127.891C319.845 127.891 313.869 133.872 313.869 141.251C313.869 148.629 319.845 154.611 327.216 154.611Z" fill="#FFB6B6"/>
<path d="M313.965 132.298C315.063 129.102 320.526 126.885 329.384 126.577C338.242 126.269 340.488 136.717 340.488 136.717C346.402 141.519 334.174 154.374 333.583 153.911L333.849 151.496C334.289 147.495 336.161 144.374 333.781 140.205L331.495 140.231C328.543 140.799 325.592 141.367 322.64 141.935L326.135 138.856L326.036 138.703C324.55 139.478 322.932 139.97 321.266 140.153C319.388 140.263 317.335 139.515 316.435 137.861C316.195 137.406 316.048 136.908 316.003 136.396C313.471 137.409 312.312 140.534 312.312 140.534C312.312 140.534 312.867 135.495 313.965 132.298Z" fill="#2F2E41"/>
<path d="M53.7734 133.1C53.5923 132.87 53.3973 132.652 53.1895 132.446C53.2402 132.376 53.291 132.299 53.3418 132.23L53.7734 133.1Z" fill="#2F2E41"/>
<path d="M56.3687 186.833C54.1855 190.714 49.8254 192.881 45.5033 193.942C40.6487 195.214 35.5367 195.115 30.7348 193.656C30.1256 193.459 29.5163 193.23 28.9261 192.976C29.2098 192.222 29.4347 191.446 29.5988 190.657C29.8197 189.589 29.9303 188.501 29.9288 187.411C29.4479 188.35 28.825 189.209 28.0819 189.958C27.5088 190.561 26.8578 191.085 26.1462 191.515C23.9392 190.174 22.0281 188.397 20.5295 186.293C20.6247 186.058 20.7199 185.823 20.8088 185.588C21.2696 184.36 21.6346 183.098 21.9004 181.814C22.261 180.077 22.4418 178.308 22.4399 176.535C21.6573 178.063 20.6424 179.46 19.4315 180.677C19.0685 181.066 18.6828 181.433 18.2765 181.776C17.6473 179.863 17.404 177.844 17.5609 175.836C17.7178 173.828 18.2717 171.872 19.1904 170.08C21.7036 165.43 26.5778 162.666 30.9189 159.661C35.2663 156.656 39.6137 152.591 39.9818 147.311C40.2293 143.747 38.5792 140.177 39.2393 136.67C39.5169 135.191 40.1946 133.817 41.1985 132.697C42.2025 131.578 43.4942 130.755 44.933 130.319C46.3718 129.883 47.9024 129.851 49.3582 130.226C50.814 130.601 52.1391 131.369 53.1891 132.446C50.7266 135.94 48.2768 139.554 47.2804 143.709C46.265 147.94 47.0964 152.902 50.4283 155.704C51.5707 156.669 52.9733 157.355 53.8555 158.562C55.0296 160.163 55.0359 162.298 55.2263 164.267C55.6071 168.098 56.8574 171.783 57.5302 175.575C58.2093 179.362 58.2473 183.472 56.3687 186.833Z" fill="#2F2E41"/>
<path d="M11.6143 344.375L17.4067 348.854L37.4253 328.622L28.8762 322.01L11.6143 344.375Z" fill="#A0616A"/>
<path d="M11.8605 339.997L21.439 346.532L18.4077 350.459L22.4673 363.21C22.6679 363.84 22.6622 364.517 22.4509 365.144C22.2396 365.77 21.8338 366.312 21.2929 366.691C20.7519 367.07 20.1041 367.266 19.444 367.251C18.7838 367.235 18.1459 367.009 17.6234 366.605L6.72259 358.173L7.84202 352.836L4.11004 356.153L0 352.974L11.8605 339.997Z" fill="#2F2E41"/>
<path d="M41.001 144.387C41.0001 146.652 41.5549 148.883 42.6164 150.884C43.678 152.884 45.214 154.593 47.0896 155.861C48.9651 157.129 51.1229 157.916 53.3735 158.155C55.624 158.393 57.8986 158.074 59.9975 157.227C62.0964 156.38 63.9554 155.03 65.4114 153.295C66.8673 151.561 67.8757 149.496 68.3481 147.28C68.8204 145.065 68.7421 142.767 68.1203 140.589C67.4984 138.411 66.3518 136.419 64.7813 134.788L64.7149 134.721C64.6043 134.605 64.4937 134.489 64.3776 134.378L64.3754 134.378L64.3736 134.376L64.3724 134.374L64.3721 134.372C64.2283 134.24 64.0845 134.107 63.9351 133.979C61.5018 131.843 58.0818 129.523 54.5922 129.523C46.9548 129.523 41.001 136.742 41.001 144.387Z" fill="#2F2E41"/>
<path d="M119.805 137.28C119.872 138.018 119.775 138.761 119.523 139.458C119.271 140.155 118.87 140.788 118.347 141.313C117.824 141.838 117.192 142.241 116.497 142.495C115.801 142.749 115.059 142.847 114.321 142.783L80.085 173.725L74.1934 164.411L109.699 136.924C109.889 135.691 110.525 134.571 111.485 133.775C112.445 132.98 113.664 132.565 114.91 132.609C116.155 132.652 117.342 133.152 118.244 134.013C119.146 134.874 119.702 136.036 119.805 137.28Z" fill="#A0616A"/>
<path d="M65.4536 183.065C65.4536 183.065 66.7274 185.42 71.0786 181.783C74.5621 178.872 91.2513 166.234 94.8467 161.055C95.6677 161.38 96.5735 161.423 97.4216 161.177C98.2696 160.93 99.0117 160.409 99.5307 159.693L89.6796 151.057C86.7321 151.397 86.7953 153.379 87.1022 154.504L79.6713 157.874L60.4824 170.15L64.5026 181.379L65.4536 183.065Z" fill="#E43B4E"/>
<path d="M46.864 204.762L46.1464 208.182L45.5371 220.8L72.3627 222.276L71.5296 202.87L68.9294 198.593L46.864 204.762Z" fill="#A0616A"/>
<path d="M58.2331 159.194C64.6361 159.194 69.8266 153.998 69.8266 147.589C69.8266 141.18 64.6361 135.984 58.2331 135.984C51.8302 135.984 46.6396 141.18 46.6396 147.589C46.6396 153.998 51.8302 159.194 58.2331 159.194Z" fill="#A0616A"/>
<path d="M37.6504 190.393L37.5791 180.747C37.5775 177.276 38.7509 173.907 40.908 171.189C43.065 168.471 46.0784 166.566 49.4566 165.783L49.5003 165.772L51.7928 162.681L61.1067 163.613L62.8138 167.106L69.5628 171.128L72.1613 179.49C73.2883 180.242 74.2489 181.218 74.9832 182.357C75.7176 183.496 76.21 184.774 76.43 186.112C77.3122 191.753 73.3667 197.397 72.8974 198.044L71.6882 204.861L45.3826 209.507L45.169 209.534L37.6504 190.393Z" fill="#E43B4E"/>
<path d="M72.42 145.52C71.0677 146.377 69.6646 147.152 68.2185 147.839C66.7508 148.544 65.2156 149.1 63.6363 149.497C63.1844 148.504 62.6315 147.561 61.9862 146.683C62.1522 147.724 62.1565 148.785 61.9989 149.827C59.3812 150.25 56.7001 150.03 54.1862 149.186L52.003 145.52L51.838 149.611C50.0292 149.942 48.2267 150.253 46.418 150.577C46.3101 150.59 46.2022 150.615 46.1007 150.634C44.9773 145.564 46.5703 139.98 50.1117 136.601C51.87 134.94 54.0634 133.814 56.4364 133.352C58.8094 132.891 61.2645 133.114 63.5157 133.996C63.8013 134.11 64.0932 134.237 64.3725 134.371L64.3729 134.373L64.3743 134.375L64.3764 134.377L64.3788 134.377C64.5439 134.46 64.6835 134.656 64.8675 134.637C72.7881 133.754 73.042 139.904 72.42 145.52Z" fill="#2F2E41"/>
<path d="M53.1328 329.411L58.9342 333.878L78.9123 313.606L70.3501 307.012L53.1328 329.411Z" fill="#A0616A"/>
<path d="M53.8968 325.438L63.4884 331.953L60.4651 335.886L64.5504 348.629C64.7523 349.259 64.7479 349.936 64.5379 350.563C64.3278 351.189 63.9232 351.732 63.383 352.113C62.8428 352.493 62.1954 352.69 61.5352 352.676C60.875 352.662 60.2367 352.436 59.7134 352.033L48.7956 343.624L49.9042 338.284L46.1789 341.609L42.0625 338.438L53.8968 325.438Z" fill="#2F2E41"/>
<path d="M34.3076 304.668L34.3074 304.593L37.0568 299.85L34.2493 293.676L34.1651 277.815L34.6202 275.434C35.2323 272.231 35.0542 268.928 34.1013 265.81L34.05 256.155C33.9514 253.737 37.6945 251.609 36.8216 249.593C28.571 230.534 45.2467 215.995 45.3594 215.878L45.7002 215.524L47.5491 216.926L49.3089 216.928L73.0569 221.259L73.2284 221.579C74.1624 223.333 75.9651 229.378 76.072 232.113C77.2556 233.485 90.7373 249.101 91.9357 250.186C100.034 257.521 104.671 269.661 106.714 276.245C107.222 277.872 107.324 279.599 107.012 281.275C106.7 282.95 105.984 284.525 104.925 285.86L74.2665 319.475L66.0159 311.851L82.6052 281.592L81.4089 278.522C79.2625 278.125 77.32 276.996 75.9129 275.326L72.5537 271.334C71.6236 270.232 71.0326 268.884 70.8522 267.453L68.8151 267.207L61.5179 259.538L56.4553 305.431L55.0789 309.056L31.1096 337.263L20.9551 330.91L34.3076 304.668Z" fill="#2F2E41"/>
<path d="M30.6467 107.612C30.1862 108.192 29.8584 108.866 29.6864 109.587C29.5144 110.308 29.5024 111.058 29.6513 111.784C29.8001 112.51 30.1061 113.194 30.5478 113.789C30.9895 114.384 31.5561 114.874 32.2077 115.226L24.5859 137.813L30.8095 161.748L40.8451 157.207L34.6523 139.153L39.2855 112.874C39.8035 111.739 39.8876 110.453 39.5218 109.26C39.1561 108.068 38.366 107.05 37.3011 106.402C36.2363 105.753 34.9707 105.518 33.7443 105.741C32.5178 105.964 31.4157 106.629 30.6467 107.612Z" fill="#A0616A"/>
<path d="M39.8335 181.47C39.8335 181.47 37.4764 182.737 35.8371 177.305C34.5248 172.957 25.5937 149.348 25.4327 143.043C24.5681 142.863 23.7877 142.401 23.2144 141.729C22.6412 141.056 22.3077 140.212 22.2666 139.329L35.238 137.532C37.5142 139.437 36.3734 141.058 35.4992 141.83L39.9171 149.321L49.1513 169.543L41.5535 180.584L39.8335 181.47Z" fill="#E43B4E"/>
<path d="M46.415 150.576C47.7471 146.555 50.1357 142.966 53.3302 140.188C56.5247 137.409 60.4074 135.542 64.5711 134.782C64.5876 134.777 64.643 134.754 64.7149 134.721C64.7591 134.693 64.8144 134.666 64.8697 134.638C64.7038 134.544 64.5434 134.461 64.3775 134.378L64.3753 134.378L64.3736 134.376L64.3724 134.375L64.372 134.372C64.2282 134.24 64.0844 134.107 63.9351 133.979L63.5148 133.996C63.5148 133.996 48.7433 131.654 46.415 150.576Z" fill="#FD6584"/>
<path d="M237.02 279.896C238.632 277.47 237.678 273.998 234.888 272.14C232.099 270.283 228.531 270.743 226.919 273.169C225.307 275.595 226.261 279.067 229.05 280.924C231.84 282.782 235.408 282.321 237.02 279.896Z" fill="#F2F2F2"/>
<path d="M204.294 189.364C205.906 186.938 204.952 183.466 202.163 181.609C199.374 179.751 195.806 180.212 194.193 182.637C192.581 185.063 193.536 188.535 196.325 190.393C199.114 192.25 202.682 191.79 204.294 189.364Z" fill="#F2F2F2"/>
<path d="M341.148 328.735C342.76 326.31 341.806 322.837 339.016 320.98C336.227 319.122 332.659 319.583 331.047 322.008C329.435 324.434 330.389 327.906 333.178 329.764C335.967 331.621 339.536 331.161 341.148 328.735Z" fill="#F2F2F2"/>
<path d="M64.466 37.4852C66.0782 35.0596 65.124 31.5875 62.3347 29.73C59.5455 27.8724 55.9775 28.3329 54.3653 30.7585C52.7532 33.1841 53.7074 36.6562 56.4966 38.5138C59.2859 40.3713 62.8539 39.9108 64.466 37.4852Z" fill="#F2F2F2"/>
<path d="M193.584 8.89633C195.196 6.47075 194.242 2.99862 191.453 1.14109C188.664 -0.716443 185.096 -0.255963 183.484 2.16961C181.871 4.59518 182.826 8.06735 185.615 9.92488C188.404 11.7824 191.972 11.3219 193.584 8.89633Z" fill="#F2F2F2"/>
<path d="M132.476 248.754C134.088 246.329 133.134 242.857 130.345 240.999C127.555 239.141 123.987 239.602 122.375 242.028C120.763 244.453 121.717 247.925 124.506 249.783C127.296 251.64 130.864 251.18 132.476 248.754Z" fill="#E6E6E6"/>
<path d="M398.817 375H11.8841C11.6966 374.999 11.5169 374.924 11.3845 374.792C11.2521 374.659 11.1777 374.479 11.1777 374.291C11.1777 374.103 11.2521 373.923 11.3845 373.79C11.5169 373.657 11.6966 373.582 11.8841 373.582H398.817C399.005 373.582 399.185 373.656 399.318 373.789C399.451 373.922 399.526 374.103 399.526 374.291C399.526 374.479 399.451 374.659 399.318 374.792C399.185 374.925 399.005 375 398.817 375Z" fill="#CCCCCC"/>
<path d="M83.9016 139.468C80.6468 139.458 77.5096 138.248 75.0898 136.069C72.67 133.89 71.1373 130.895 70.7846 127.656L63.2307 57.4308C62.8596 53.944 63.8853 50.4523 66.0829 47.7217C68.2805 44.991 71.4705 43.2445 74.9529 42.8652L299.245 18.691C302.729 18.3193 306.217 19.3459 308.945 21.5457C311.673 23.7454 313.418 26.9385 313.797 30.4245L321.351 100.65C321.722 104.137 320.696 107.628 318.499 110.359C316.301 113.09 313.111 114.837 309.628 115.216L85.336 139.39C84.8596 139.442 84.3808 139.467 83.9016 139.468Z" fill="#E6E6E6"/>
<path d="M296.775 21.9511C296.354 21.9512 295.932 21.9739 295.513 22.0191L79.3077 45.3218C77.7959 45.4847 76.331 45.9441 74.9966 46.6738C73.6622 47.4034 72.4844 48.389 71.5306 49.5743C70.5767 50.7595 69.8654 52.1213 69.4372 53.5817C69.0091 55.0421 68.8725 56.5727 69.0353 58.086L72.8547 93.5927C73.472 99.3328 75.2128 104.895 77.9777 109.962C80.7425 115.028 84.4773 119.5 88.9687 123.122C93.4602 126.744 98.6203 129.445 104.154 131.07C109.689 132.696 115.489 133.215 121.223 132.597L273.252 116.211C278.969 115.595 284.508 113.857 289.555 111.098C294.601 108.339 299.055 104.612 302.662 100.13C306.269 95.6474 308.959 90.4979 310.578 84.9751C312.197 79.4522 312.714 73.6643 312.098 67.9416L308.265 32.3017C307.959 29.4629 306.618 26.8368 304.497 24.9267C302.377 23.0167 299.627 21.9571 296.775 21.9511Z" fill="white"/>
<path d="M251.246 58.9034L130.406 71.9276C130.06 71.9653 129.711 71.9345 129.377 71.8369C129.043 71.7392 128.732 71.5767 128.461 71.3587C128.191 71.1406 127.965 70.8712 127.799 70.5659C127.632 70.2606 127.527 69.9255 127.49 69.5796C127.453 69.2336 127.484 68.8838 127.582 68.55C127.68 68.2162 127.843 67.905 128.061 67.6342C128.279 67.3634 128.548 67.1383 128.854 66.9719C129.159 66.8054 129.494 66.7008 129.839 66.664L250.68 53.6397C251.025 53.602 251.375 53.6329 251.708 53.7305C252.042 53.8281 252.353 53.9906 252.624 54.2087C252.895 54.4268 253.12 54.6962 253.287 55.0014C253.453 55.3067 253.558 55.6419 253.595 55.9878C253.633 56.3337 253.601 56.6836 253.503 57.0174C253.405 57.3512 253.243 57.6624 253.024 57.9332C252.806 58.204 252.537 58.429 252.232 58.5955C251.926 58.762 251.591 58.8666 251.246 58.9034Z" fill="#E43B4E"/>
<path d="M252.984 75.0579L132.143 88.0822C131.446 88.1573 130.747 87.9521 130.201 87.5117C129.655 87.0713 129.306 86.4317 129.231 85.7337C129.156 85.0357 129.361 84.3364 129.801 83.7897C130.241 83.243 130.88 82.8937 131.577 82.8185L252.417 69.7943C253.115 69.7191 253.813 69.9243 254.359 70.3647C254.906 70.8052 255.255 71.4447 255.33 72.1427C255.405 72.8407 255.2 73.54 254.76 74.0867C254.32 74.6334 253.681 74.9828 252.984 75.0579Z" fill="#E43B4E"/>
<path d="M147.963 102.718L133.881 104.236C133.183 104.311 132.485 104.106 131.939 103.666C131.392 103.225 131.043 102.586 130.968 101.888C130.893 101.19 131.098 100.491 131.538 99.9438C131.978 99.3971 132.617 99.0477 133.314 98.9726L147.397 97.4548C147.742 97.4171 148.092 97.4479 148.425 97.5456C148.759 97.6432 149.07 97.8057 149.341 98.0238C149.612 98.2419 149.837 98.5112 150.004 98.8165C150.17 99.1218 150.275 99.457 150.312 99.8029C150.35 100.149 150.318 100.499 150.22 100.832C150.122 101.166 149.96 101.477 149.741 101.748C149.523 102.019 149.254 102.244 148.949 102.411C148.643 102.577 148.308 102.682 147.963 102.718Z" fill="#E43B4E"/>
<path d="M79.1468 60.3939C81.7758 60.3939 83.9069 58.2606 83.9069 55.6291C83.9069 52.9975 81.7758 50.8643 79.1468 50.8643C76.5179 50.8643 74.3867 52.9975 74.3867 55.6291C74.3867 58.2606 76.5179 60.3939 79.1468 60.3939Z" fill="#3F3D56"/>
<path d="M292.161 36.5698C294.79 36.5698 296.922 34.4365 296.922 31.805C296.922 29.1734 294.79 27.0402 292.161 27.0402C289.533 27.0402 287.401 29.1734 287.401 31.805C287.401 34.4365 289.533 36.5698 292.161 36.5698Z" fill="#3F3D56"/>
<path d="M227.807 134.39C227.37 134.005 227.024 133.528 226.793 132.993C226.563 132.457 226.455 131.878 226.477 131.295C226.716 124.374 225.577 117.475 223.127 110.999C222.919 110.455 222.835 109.871 222.881 109.29C222.927 108.709 223.102 108.145 223.393 107.641C223.671 107.155 224.053 106.737 224.51 106.415C224.967 106.093 225.489 105.875 226.04 105.776C231.572 102.434 237.244 101.496 242.901 102.988C243.813 102.854 244.743 103.049 245.525 103.54C246.306 104.03 246.887 104.783 247.163 105.663C249.454 113.106 250.728 120.824 250.951 128.609C250.972 129.543 250.656 130.453 250.061 131.172C249.465 131.892 248.631 132.372 247.71 132.525L230.97 135.293C230.409 135.387 229.834 135.355 229.287 135.199C228.74 135.042 228.235 134.766 227.807 134.39Z" fill="#E43B4E"/>
<path d="M229.294 114.225L243.383 111.895C243.499 111.876 243.61 111.835 243.71 111.773C243.81 111.711 243.896 111.63 243.965 111.535C244.033 111.439 244.082 111.331 244.109 111.217C244.135 111.102 244.139 110.984 244.12 110.868C244.101 110.752 244.059 110.641 243.997 110.541C243.935 110.441 243.854 110.355 243.759 110.287C243.663 110.218 243.555 110.169 243.441 110.143C243.326 110.116 243.208 110.113 243.092 110.132L229.003 112.462C228.77 112.501 228.562 112.631 228.424 112.824C228.287 113.016 228.231 113.256 228.27 113.489C228.308 113.722 228.438 113.931 228.63 114.069C228.822 114.207 229.06 114.263 229.294 114.225Z" fill="white"/>
<path d="M230.458 121.277L244.547 118.947C244.781 118.908 244.989 118.778 245.127 118.586C245.265 118.393 245.321 118.154 245.282 117.92C245.244 117.686 245.114 117.477 244.922 117.339C244.729 117.201 244.49 117.145 244.256 117.184L230.167 119.514C230.051 119.533 229.94 119.574 229.84 119.636C229.741 119.698 229.654 119.779 229.586 119.875C229.517 119.97 229.468 120.078 229.441 120.192C229.415 120.307 229.411 120.425 229.43 120.541C229.449 120.657 229.491 120.768 229.553 120.868C229.615 120.968 229.696 121.054 229.792 121.123C229.887 121.191 229.995 121.24 230.109 121.266C230.224 121.293 230.342 121.296 230.458 121.277Z" fill="white"/>
<path d="M231.622 128.328L245.711 125.998C245.945 125.96 246.153 125.83 246.291 125.637C246.429 125.445 246.485 125.205 246.446 124.971C246.408 124.738 246.278 124.529 246.086 124.391C245.893 124.253 245.654 124.197 245.42 124.236L231.331 126.566C231.215 126.585 231.105 126.626 231.005 126.688C230.906 126.75 230.819 126.831 230.751 126.927C230.683 127.022 230.634 127.13 230.607 127.244C230.581 127.359 230.577 127.477 230.596 127.593C230.615 127.708 230.657 127.819 230.719 127.919C230.781 128.019 230.861 128.105 230.957 128.173C231.052 128.242 231.16 128.29 231.274 128.317C231.388 128.344 231.506 128.348 231.622 128.328Z" fill="white"/>
</g>
<defs>
<clipPath id="clip0_673_103833">
<rect width="435" height="375" fill="white"/>
</clipPath>
</defs>
</svg>
