<svg width="19" height="18" viewBox="0 0 19 18" fill="none" xmlns="http://www.w3.org/2000/svg">
<path d="M7.1665 11.5324C7.1665 9.35666 7.1665 8.26881 7.89874 7.5929C8.63097 6.91699 9.80948 6.91699 12.1665 6.91699L12.9998 6.91699C15.3569 6.91699 16.5354 6.91699 17.2676 7.5929C17.9998 8.26881 17.9998 9.35666 17.9998 11.5324V12.3016C17.9998 14.4773 17.9998 15.5652 17.2676 16.2411C16.5354 16.917 15.3569 16.917 12.9998 16.917H12.1665C9.80948 16.917 8.63097 16.917 7.89874 16.2411C7.1665 15.5652 7.1665 14.4773 7.1665 12.3016L7.1665 11.5324Z" stroke="black" stroke-linecap="round" stroke-linejoin="round"/>
<path d="M9 10L16 10" stroke="black" stroke-width="0.5" stroke-linecap="round"/>
<path d="M9 12L16 12" stroke="black" stroke-width="0.5" stroke-linecap="round"/>
<path d="M9 14L16 14" stroke="black" stroke-width="0.5" stroke-linecap="round"/>
<path d="M13.8329 6.91683C13.831 4.45259 13.7936 3.17617 13.0764 2.30219C12.9379 2.13341 12.7831 1.97864 12.6143 1.84013C11.6924 1.0835 10.3226 1.0835 7.58301 1.0835C4.84344 1.0835 3.47366 1.0835 2.5517 1.84013C2.38292 1.97864 2.22815 2.1334 2.08964 2.30218C1.33301 3.22414 1.33301 4.59393 1.33301 7.3335C1.33301 10.0731 1.33301 11.4428 2.08964 12.3648C2.22815 12.5336 2.38292 12.6883 2.5517 12.8269C3.42568 13.5441 4.7021 13.5814 7.16634 13.5834" stroke="black" stroke-linecap="round" stroke-linejoin="round"/>
</svg>
