<svg width="337" height="291" viewBox="0 0 337 291" fill="none" xmlns="http://www.w3.org/2000/svg">
<g clip-path="url(#clip0_897_158548)">
<path d="M315.759 90.0309C315.113 40.1333 289.614 0 258.249 0C239.4 0 222.669 14.4939 212.178 36.8904L224.513 67.7884L207.465 48.7437C203.165 61.6301 200.725 76.3423 200.725 91.9677C200.69 103.811 202.151 115.612 205.073 127.091L238.132 121.771L208.546 138.286C218.185 164.666 235.802 182.682 256.108 183.871L252.194 290.152L264.305 290.583L261.716 183.764C290.632 181.015 313.794 144.122 315.65 97.9517L295.667 86.7974L315.759 90.0309Z" fill="#6A6A6A"/>
<path d="M71.4563 154.042H68.582V175.45H71.4563V154.042Z" fill="#E43B4E"/>
<path d="M81.7747 163.549L79.6696 165.507L70.0224 155.143L60.3718 165.507L58.2666 163.549L70.0224 150.93L81.7747 163.549Z" fill="#E43B4E"/>
<path d="M69.2234 186.21C64.6756 186.21 60.2298 184.863 56.4484 182.341C52.667 179.819 49.7198 176.234 47.9794 172.039C46.239 167.845 45.7836 163.229 46.6708 158.776C47.5581 154.324 49.7481 150.233 52.9639 147.023C56.1797 143.813 60.277 141.627 64.7374 140.741C69.1979 139.855 73.8213 140.31 78.023 142.047C82.2247 143.785 85.8159 146.727 88.3426 150.502C90.8692 154.277 92.2178 158.715 92.2178 163.255C92.211 169.341 89.7861 175.175 85.4753 179.479C81.1645 183.782 75.3198 186.203 69.2234 186.21ZM69.2234 143.169C65.244 143.169 61.354 144.347 58.0453 146.554C54.7365 148.761 52.1577 151.898 50.6349 155.568C49.112 159.238 48.7136 163.277 49.4899 167.173C50.2662 171.069 52.1825 174.648 54.9964 177.457C57.8102 180.266 61.3953 182.179 65.2982 182.954C69.2011 183.729 73.2466 183.332 76.923 181.811C80.5995 180.291 83.7419 177.717 85.9527 174.414C88.1635 171.111 89.3435 167.227 89.3435 163.255C89.3375 157.93 87.2158 152.824 83.4439 149.059C79.6719 145.293 74.5578 143.175 69.2234 143.169Z" fill="#E43B4E"/>
<path d="M94.2171 110.372H92.6323V122.175H94.2171V110.372Z" fill="#B0B0B0"/>
<path d="M99.9063 115.614L98.746 116.693L93.4267 110.979L88.1061 116.693L86.9453 115.614L93.4267 108.656L99.9063 115.614Z" fill="#B0B0B0"/>
<path d="M92.9861 128.108C90.4786 128.108 88.0275 127.365 85.9426 125.975C83.8577 124.584 82.2327 122.607 81.2732 120.295C80.3136 117.982 80.0625 115.438 80.5517 112.982C81.0409 110.527 82.2484 108.272 84.0214 106.502C85.7945 104.732 88.0535 103.527 90.5128 103.039C92.972 102.55 95.5212 102.801 97.8378 103.759C100.154 104.717 102.134 106.339 103.527 108.42C104.921 110.501 105.664 112.948 105.664 115.452C105.66 118.807 104.323 122.024 101.947 124.397C99.5698 126.769 96.3474 128.104 92.9861 128.108ZM92.9861 104.377C90.7921 104.377 88.6473 105.027 86.823 106.244C84.9988 107.461 83.5769 109.19 82.7373 111.214C81.8977 113.237 81.678 115.464 82.106 117.612C82.5341 119.76 83.5906 121.733 85.142 123.282C86.6934 124.831 88.67 125.886 90.8219 126.313C92.9738 126.74 95.2043 126.521 97.2313 125.683C99.2583 124.845 100.991 123.425 102.21 121.604C103.429 119.783 104.079 117.642 104.079 115.452C104.076 112.516 102.906 109.701 100.827 107.625C98.7469 105.549 95.9272 104.381 92.9861 104.377Z" fill="#B0B0B0"/>
<path d="M44.9168 81.1665H43.332V92.9697H44.9168V81.1665Z" fill="#B0B0B0"/>
<path d="M50.606 86.4085L49.4452 87.4878L44.1259 81.7738L38.8053 87.4878L37.6445 86.4085L44.1259 79.451L50.606 86.4085Z" fill="#B0B0B0"/>
<path d="M43.6858 98.9023C41.1783 98.9023 38.7272 98.16 36.6423 96.7693C34.5574 95.3787 32.9324 93.402 31.9729 91.0894C31.0133 88.7768 30.7622 86.232 31.2514 83.777C31.7406 81.3219 32.9481 79.0668 34.7211 77.2968C36.4942 75.5268 38.7532 74.3214 41.2125 73.833C43.6717 73.3447 46.2209 73.5953 48.5375 74.5532C50.8541 75.5112 52.8341 77.1333 54.2272 79.2146C55.6203 81.296 56.3638 83.7429 56.3638 86.2461C56.36 89.6015 55.0231 92.8185 52.6463 95.1912C50.2696 97.5639 47.0471 98.8985 43.6858 98.9023ZM43.6858 75.1719C41.4918 75.1719 39.347 75.8214 37.5227 77.0383C35.6985 78.2551 34.2766 79.9846 33.437 82.0082C32.5974 84.0317 32.3777 86.2584 32.8057 88.4066C33.2338 90.5547 34.2903 92.528 35.8417 94.0767C37.3931 95.6255 39.3698 96.6802 41.5216 97.1075C43.6735 97.5348 45.904 97.3155 47.931 96.4773C49.958 95.6391 51.6905 94.2197 52.9095 92.3986C54.1284 90.5774 54.779 88.4364 54.779 86.2461C54.7757 83.3101 53.6059 80.4952 51.5262 78.4191C49.4466 76.343 46.6269 75.1752 43.6858 75.1719Z" fill="#B0B0B0"/>
<path d="M133.116 226.31C132.762 225.946 132.49 225.511 132.317 225.034C132.145 224.557 132.076 224.049 132.115 223.543C132.155 223.037 132.302 222.545 132.546 222.101C132.791 221.656 133.127 221.268 133.533 220.963C133.706 220.828 133.89 220.707 134.082 220.6L131.037 207.502L138.119 210.041L139.925 222.09C140.349 222.843 140.485 223.725 140.308 224.572C140.131 225.418 139.652 226.171 138.961 226.692C138.108 227.353 137.043 227.68 135.966 227.61C134.889 227.539 133.875 227.077 133.116 226.31Z" fill="#FFB8B8"/>
<path d="M132.312 216.091L132.274 215.962C128.445 203.007 124.488 189.615 119.657 175.034L119.625 174.939L119.732 174.882C122.424 173.444 126.472 173.54 129.147 175.104C131.621 176.552 132.872 179.351 132.195 181.921L135.719 198.73C137.152 204.225 138.635 209.913 140.052 215.521L140.092 215.68L139.872 215.692C137.292 215.842 134.627 215.998 132.491 216.083L132.312 216.091Z" fill="#B3B3B3"/>
<path d="M99.7766 285.815H94.7551L92.3652 268.094H99.7766V285.815Z" fill="#FFB8B8"/>
<path d="M101.057 290.268H84.8657V290.08C84.8657 286.901 87.693 284.315 91.1681 284.315H101.057V290.268Z" fill="#2F2E41"/>
<path d="M147.094 282.025L142.31 283.42L134.152 267.2L141.214 265.141L147.094 282.025Z" fill="#FFB8B8"/>
<path d="M134.366 290.409L134.303 290.231C133.248 287.202 135.084 283.952 138.395 282.987L147.817 280.24L149.793 285.912L134.366 290.409Z" fill="#2F2E41"/>
<path d="M121.679 163.162C127.235 163.162 131.739 159.042 131.739 153.959C131.739 148.875 127.235 144.755 121.679 144.755C116.123 144.755 111.619 148.875 111.619 153.959C111.619 159.042 116.123 163.162 121.679 163.162Z" fill="#FFB8B8"/>
<path d="M126.195 152.253C126.253 148.541 124.554 144.864 121.929 143.016C120.66 142.115 119.135 141.643 117.578 141.668C116.021 141.693 114.513 142.214 113.273 143.156C110.688 145.088 109.07 148.818 109.207 152.527C114.999 152.543 120.791 152.558 126.195 152.253Z" fill="#2F2E41"/>
<path d="M102.643 280.111L102.442 280.093C98.073 279.7 93.5556 279.295 89.2864 279.249L89.0542 279.246L89.0859 279.036C90.0974 272.333 90.5262 265.366 90.9409 258.627C91.3504 251.974 91.7737 245.093 92.7598 238.559C93.177 236.809 93.5836 235.08 93.9888 233.358C97.3416 219.102 100.508 205.636 107.045 192.307L107.107 192.181L107.257 192.198C113.39 192.877 119.284 194.924 123.852 197.962L123.94 198.021L123.936 198.121C123.81 200.172 123.795 202.229 123.892 204.281C125.947 206.838 127.323 209.87 127.892 213.098C128.462 216.327 128.206 219.646 127.149 222.749C128.948 228.249 130.807 233.933 132.705 239.541C137.312 251.097 142.079 263.056 146.967 275.178L147.047 275.377L146.821 275.425C143.305 276.181 139.678 276.959 136.1 277.262L135.964 277.273L135.9 277.164C126.825 261.738 119.4 245.403 113.746 228.427C112.525 231.835 110.766 234.91 109.061 237.889C107.438 240.585 106.004 243.39 104.768 246.284C104.014 251.95 103.813 258.089 103.62 264.026C103.437 269.639 103.265 274.941 102.665 279.926L102.643 280.111Z" fill="#2F2E41"/>
<path d="M118.244 143.186C122.604 142.326 127.428 143.144 130.852 145.836C134.277 148.527 136.016 153.184 134.609 157.177C133.202 161.171 128.426 163.981 124.107 162.949C125.344 159.76 123.952 155.843 120.928 154.006C117.341 151.827 116.354 146.625 118.244 143.186Z" fill="#2F2E41"/>
<path d="M123.538 198.363L123.379 198.296C117.816 195.974 112.361 194.193 107.251 192.567L107.094 192.536L107.094 192.12L107.195 192.153C107.217 192.11 107.241 192.061 107.265 192.012C107.335 191.87 107.383 191.774 107.423 191.711L107.422 191.71C107.848 190.916 108.187 190.148 108.514 189.406C108.852 188.64 109.201 187.849 109.652 187.012C108.574 186.061 107.824 184.794 107.509 183.392C107.195 181.991 107.332 180.526 107.9 179.207C109.029 176.759 111.908 174.852 114.932 174.536C116.041 171.744 118.51 165.879 118.51 165.879C118.51 165.879 123.703 165.749 125.791 165.506L125.827 165.502L125.861 165.509C130.42 166.423 134.226 170.37 135.117 175.108C135.869 179.106 134.727 183.679 131.903 187.986C130.445 190.103 128.842 192.117 127.107 194.015C125.834 195.47 124.633 196.844 123.635 198.229L123.538 198.363Z" fill="#B3B3B3"/>
<path d="M133.607 148.64C130.555 148.223 128.158 145.368 128.505 142.563C128.852 139.757 131.885 137.464 134.962 137.682C138.04 137.9 140.652 140.591 140.523 143.413C140.395 146.234 137.505 149.172 133.607 148.64Z" fill="#2F2E41"/>
<path d="M133.131 146.821C130.079 146.404 127.682 143.549 128.029 140.743C128.266 138.824 129.761 137.146 131.667 136.346C129.205 136.839 127.087 138.802 126.8 141.118C126.453 143.924 128.85 146.779 131.902 147.195C133.036 147.359 134.193 147.211 135.249 146.767C134.551 146.901 133.835 146.919 133.131 146.821Z" fill="#2F2E41"/>
<path d="M73.9209 196.277C74.52 195.385 75.4289 194.746 76.4723 194.483C77.5156 194.221 78.6193 194.353 79.5705 194.855C79.7652 194.958 79.9514 195.076 80.1275 195.208L92.6115 188.217L92.3548 195.172L80.5392 200.744C79.872 201.37 79.0263 201.774 78.119 201.9C77.2118 202.026 76.2878 201.867 75.4749 201.446C75.0135 201.229 74.6031 200.918 74.2702 200.532C73.9373 200.146 73.6895 199.695 73.543 199.207C73.3964 198.72 73.3543 198.207 73.4194 197.702C73.4845 197.197 73.6554 196.712 73.9209 196.277Z" fill="#FFB8B8"/>
<path d="M84.1851 192.178L84.305 192.102C96.3804 184.484 108.863 176.608 122.281 167.582L122.368 167.523L122.463 167.596C124.841 169.44 126.091 172.963 125.37 175.792C124.703 178.408 122.234 180.42 119.361 180.693L103.211 189.333C98.026 192.4 92.6587 195.574 87.3513 198.665L87.2009 198.752L87.1146 198.567C86.1002 196.391 85.052 194.144 84.2521 192.33L84.1851 192.178Z" fill="#B3B3B3"/>
<path d="M336.565 291H0.435401C0.319925 291 0.209179 290.954 0.127526 290.873C0.0458721 290.791 0 290.681 0 290.565C0 290.45 0.0458721 290.34 0.127526 290.258C0.209179 290.177 0.319925 290.131 0.435401 290.131H336.565C336.68 290.131 336.791 290.177 336.872 290.258C336.954 290.34 337 290.45 337 290.565C337 290.681 336.954 290.791 336.872 290.873C336.791 290.954 336.68 291 336.565 291Z" fill="#CACACA"/>
</g>
<defs>
<clipPath id="clip0_897_158548">
<rect width="337" height="291" fill="white"/>
</clipPath>
</defs>
</svg>
