<svg width="441" height="613" viewBox="0 0 441 613" fill="none" xmlns="http://www.w3.org/2000/svg">
<g clip-path="url(#clip0_666_118890)">
<path d="M34.3659 343C36.8725 343.881 39.5637 344.101 42.1804 343.641C44.797 343.18 47.2508 342.054 49.3055 340.371C54.5381 335.982 56.179 328.754 57.5135 322.059L61.4618 302.257L53.1957 307.944C47.2508 312.034 41.1724 316.256 37.0566 322.18C32.9407 328.104 31.1451 336.192 34.4511 342.603" fill="#C8D9C8"/>
<path d="M35.6419 368.353C34.6015 360.779 33.531 353.107 34.2626 345.451C34.9109 338.652 36.9867 332.013 41.2129 326.566C43.4562 323.682 46.1858 321.21 49.279 319.262C50.0854 318.754 50.8278 320.031 50.0249 320.537C44.6725 323.917 40.5326 328.908 38.202 334.791C35.6281 341.333 35.2148 348.464 35.6582 355.413C35.9261 359.615 36.4956 363.79 37.0675 367.96C37.1127 368.149 37.0845 368.347 36.9887 368.516C36.8928 368.684 36.7365 368.81 36.5513 368.868C36.3623 368.919 36.1609 368.893 35.9908 368.797C35.8206 368.7 35.6955 368.541 35.6424 368.352L35.6419 368.353Z" fill="#F2F2F2"/>
<path d="M43.1309 356.2C44.2057 357.833 45.6834 359.162 47.4214 360.058C49.1595 360.955 51.0994 361.389 53.0542 361.319C58.0789 361.081 62.2661 357.578 66.0351 354.251L77.1855 344.414L69.8061 344.061C64.4991 343.807 59.0552 343.568 54.0005 345.206C48.9457 346.843 44.2841 350.777 43.3599 356.005" fill="#C8D9C8"/>
<path d="M32.7017 372.707C37.7106 363.851 43.5201 354.009 53.9015 350.863C56.7878 349.991 59.8142 349.679 62.8179 349.943C63.7647 350.024 63.5282 351.482 62.5834 351.401C57.5484 350.983 52.5232 352.312 48.3536 355.163C44.3413 357.892 41.2171 361.686 38.5732 365.71C36.9535 368.174 35.5027 370.743 34.052 373.309C33.5884 374.129 32.2327 373.537 32.7017 372.707Z" fill="#F2F2F2"/>
<path d="M433.491 263.379H157.341C156.491 263.378 155.675 263.039 155.073 262.438C154.471 261.837 154.133 261.022 154.132 260.172V3.90907C154.133 3.05879 154.471 2.24364 155.073 1.6424C155.675 1.04116 156.491 0.702894 157.341 0.701782H433.491C434.342 0.702894 435.158 1.04116 435.76 1.6424C436.361 2.24364 436.7 3.05879 436.701 3.90907V260.171C436.7 261.021 436.362 261.837 435.76 262.438C435.158 263.039 434.342 263.378 433.491 263.379Z" fill="white"/>
<path d="M433.491 263.379H157.341C156.491 263.378 155.675 263.039 155.073 262.438C154.471 261.837 154.133 261.022 154.132 260.172V3.90907C154.133 3.05879 154.471 2.24364 155.073 1.6424C155.675 1.04116 156.491 0.702894 157.341 0.701782H433.491C434.342 0.702894 435.158 1.04116 435.76 1.6424C436.361 2.24364 436.7 3.05879 436.701 3.90907V260.171C436.7 261.021 436.362 261.837 435.76 262.438C435.158 263.039 434.342 263.378 433.491 263.379ZM157.341 1.98217C156.832 1.98328 156.343 2.1862 155.982 2.54654C155.622 2.90687 155.419 3.39527 155.417 3.90486V260.171C155.419 260.681 155.622 261.169 155.982 261.529C156.343 261.89 156.832 262.093 157.341 262.094H433.491C434.001 262.093 434.49 261.89 434.851 261.529C435.211 261.169 435.414 260.681 435.415 260.171V3.90907C435.414 3.39948 435.211 2.91108 434.851 2.55075C434.49 2.19041 434.001 1.98748 433.491 1.98638L157.341 1.98217Z" fill="#CACACA"/>
<path d="M287.828 67.2924C287.25 67.2934 286.697 67.5232 286.289 67.9315C285.881 68.3397 285.652 68.893 285.652 69.4699C285.652 70.0467 285.881 70.6 286.289 71.0082C286.697 71.4165 287.25 71.6463 287.828 71.6473H407.397C407.974 71.6463 408.527 71.4165 408.935 71.0082C409.343 70.6 409.572 70.0467 409.572 69.4699C409.572 68.893 409.343 68.3397 408.935 67.9315C408.527 67.5232 407.974 67.2934 407.397 67.2924H287.828Z" fill="#8F8F8F"/>
<path d="M287.827 80.3583C287.25 80.3597 286.697 80.5897 286.29 80.9979C285.882 81.4061 285.653 81.9591 285.653 82.5357C285.653 83.1123 285.882 83.6653 286.29 84.0735C286.697 84.4817 287.25 84.7118 287.827 84.7132H348.869C349.446 84.7118 349.999 84.4817 350.407 84.0735C350.814 83.6653 351.043 83.1123 351.043 82.5357C351.043 81.9591 350.814 81.4061 350.407 80.9979C349.999 80.5897 349.446 80.3597 348.869 80.3583H287.827Z" fill="#8F8F8F"/>
<path d="M183.32 150.622C182.743 150.623 182.19 150.853 181.783 151.261C181.375 151.67 181.146 152.223 181.146 152.799C181.146 153.376 181.375 153.929 181.783 154.337C182.19 154.745 182.743 154.975 183.32 154.977H407.513C408.09 154.975 408.642 154.745 409.05 154.337C409.457 153.929 409.686 153.376 409.686 152.799C409.686 152.223 409.457 151.67 409.05 151.261C408.642 150.853 408.09 150.623 407.513 150.622H183.32Z" fill="#E4E4E4"/>
<path d="M183.32 163.688C182.743 163.689 182.19 163.919 181.783 164.327C181.375 164.735 181.146 165.289 181.146 165.865C181.146 166.442 181.375 166.995 181.783 167.403C182.19 167.811 182.743 168.041 183.32 168.043H348.986C349.563 168.041 350.116 167.811 350.523 167.403C350.931 166.995 351.16 166.442 351.16 165.865C351.16 165.289 350.931 164.735 350.523 164.327C350.116 163.919 349.563 163.689 348.986 163.688H183.32Z" fill="#E4E4E4"/>
<path d="M183.32 176.458C182.743 176.459 182.19 176.689 181.783 177.097C181.375 177.506 181.146 178.059 181.146 178.635C181.146 179.212 181.375 179.765 181.783 180.173C182.19 180.581 182.743 180.811 183.32 180.813H407.513C408.09 180.811 408.642 180.581 409.05 180.173C409.457 179.765 409.686 179.212 409.686 178.635C409.686 178.059 409.457 177.506 409.05 177.097C408.642 176.689 408.09 176.459 407.513 176.458H183.32Z" fill="#E4E4E4"/>
<path d="M183.32 189.524C182.743 189.525 182.19 189.755 181.783 190.163C181.375 190.572 181.146 191.125 181.146 191.701C181.146 192.278 181.375 192.831 181.783 193.239C182.19 193.647 182.743 193.877 183.32 193.879H348.986C349.563 193.877 350.116 193.647 350.523 193.239C350.931 192.831 351.16 192.278 351.16 191.701C351.16 191.125 350.931 190.572 350.523 190.163C350.116 189.755 349.563 189.525 348.986 189.524H183.32Z" fill="#E4E4E4"/>
<path d="M183.32 202.634C182.743 202.636 182.19 202.866 181.783 203.274C181.375 203.682 181.146 204.235 181.146 204.812C181.146 205.388 181.375 205.941 181.783 206.349C182.19 206.758 182.743 206.988 183.32 206.989H407.513C408.09 206.988 408.642 206.758 409.05 206.349C409.457 205.941 409.686 205.388 409.686 204.812C409.686 204.235 409.457 203.682 409.05 203.274C408.642 202.866 408.09 202.636 407.513 202.634H183.32Z" fill="#E4E4E4"/>
<path d="M183.32 215.7C182.743 215.701 182.19 215.931 181.783 216.34C181.375 216.748 181.146 217.301 181.146 217.877C181.146 218.454 181.375 219.007 181.783 219.415C182.19 219.823 182.743 220.053 183.32 220.055H348.986C349.563 220.053 350.116 219.823 350.523 219.415C350.931 219.007 351.16 218.454 351.16 217.877C351.16 217.301 350.931 216.748 350.523 216.34C350.116 215.931 349.563 215.701 348.986 215.7H183.32Z" fill="#E4E4E4"/>
<path d="M218.831 107.286C212.639 107.286 206.586 105.452 201.437 102.014C196.289 98.5768 192.276 93.691 189.907 87.9746C187.537 82.2583 186.917 75.9681 188.125 69.8996C189.333 63.8312 192.315 58.2569 196.693 53.8817C201.071 49.5066 206.65 46.5271 212.723 45.32C218.796 44.1128 225.09 44.7323 230.811 47.1001C236.532 49.4679 241.421 53.4776 244.861 58.6222C248.301 63.7668 250.137 69.8153 250.137 76.0026C250.128 84.2967 246.827 92.2483 240.958 98.1131C235.088 103.978 227.131 107.277 218.831 107.286Z" fill="#E43B4E"/>
<path d="M123.797 225.573C123.743 224.431 123.439 223.315 122.906 222.303C122.374 221.291 121.626 220.408 120.715 219.717C119.804 219.025 118.753 218.541 117.634 218.3C116.516 218.058 115.359 218.065 114.243 218.318L103.895 203.746L93.499 207.87L108.402 228.244C108.953 230.088 110.162 231.666 111.799 232.68C113.437 233.693 115.389 234.071 117.287 233.741C119.185 233.412 120.895 232.399 122.095 230.893C123.295 229.387 123.901 227.494 123.797 225.573Z" fill="#A0616A"/>
<path d="M103.628 224.493L72.3164 183.902L84.0487 147.056C84.9085 137.793 90.7094 135.206 90.9563 135.101L91.3328 134.939L101.542 162.145L94.046 182.119L112.445 213.04L103.628 224.493Z" fill="#807F8F"/>
<path d="M212.37 99.3645C211.235 99.5067 210.145 99.8959 209.176 100.505C208.208 101.113 207.385 101.927 206.765 102.888C206.146 103.849 205.745 104.934 205.59 106.066C205.435 107.199 205.531 108.352 205.871 109.443L192.131 120.88L197.049 130.918L216.225 114.496C218.023 113.804 219.504 112.478 220.388 110.768C221.273 109.058 221.499 107.084 221.023 105.219C220.548 103.354 219.405 101.728 217.81 100.649C216.215 99.5696 214.279 99.1127 212.37 99.3645Z" fill="#FFD8C8"/>
<path d="M212.852 119.541L174.774 153.874L137.104 145.035C127.795 144.894 124.766 139.315 124.641 139.077L124.451 138.715L150.806 126.44L171.315 132.364L200.744 111.643L212.852 119.541Z" fill="#807F8F"/>
<path d="M146.894 363.618L157.125 363.617L161.991 324.184L146.892 324.185L146.894 363.618Z" fill="#FFD8C8"/>
<path d="M176.856 373.109L144.702 373.111L144.702 360.697L167.835 360.696C170.227 360.695 172.522 361.645 174.214 363.335C175.906 365.026 176.856 367.319 176.856 369.709L176.856 373.109Z" fill="#2F2E41"/>
<path d="M106.002 363.618L116.233 363.617L121.101 324.184L106.001 324.185L106.002 363.618Z" fill="#FFD8C8"/>
<path d="M135.965 373.109L103.811 373.111L103.81 360.697L126.943 360.696C128.128 360.695 129.301 360.929 130.396 361.382C131.49 361.834 132.485 362.498 133.322 363.335C134.16 364.172 134.824 365.166 135.278 366.26C135.731 367.353 135.965 368.526 135.965 369.709L135.965 373.109Z" fill="#2F2E41"/>
<path d="M102.364 219.683L103.199 278.055L104.034 354.773L122.392 353.105L131.572 247.202L143.256 353.105H162.209L164.118 246.368L157.442 223.019L102.364 219.683Z" fill="#2F2E41"/>
<path d="M138.298 227.522C118.322 227.523 99.9343 218.489 99.6861 218.365L99.4799 218.262L97.8035 178.061C97.3174 176.64 87.7453 148.609 86.1241 139.699C84.4816 130.672 108.287 122.75 111.178 121.824L111.834 114.562L138.511 111.69L141.892 120.981L151.463 124.567C152.548 124.974 153.446 125.765 153.987 126.789C154.527 127.813 154.673 129 154.397 130.124L149.078 151.74L162.069 223.254L159.272 223.375C152.568 226.4 145.332 227.521 138.298 227.522Z" fill="#807F8F"/>
<path d="M135.43 104.738C144.738 99.6537 148.158 87.9917 143.07 78.6905C137.982 69.3893 126.311 65.971 117.003 71.0556C107.695 76.1401 104.274 87.802 109.363 97.1032C114.451 106.404 126.121 109.823 135.43 104.738Z" fill="#FFD8C8"/>
<path d="M110.659 106.478C114.32 110.374 121.118 108.282 121.595 102.959C121.632 102.546 121.63 102.13 121.587 101.717C121.341 99.3596 119.978 97.219 120.304 94.7294C120.378 94.1098 120.609 93.5193 120.975 93.0139C123.892 89.1107 130.739 94.7597 133.492 91.2263C135.18 89.0597 133.196 85.6484 134.492 83.2269C136.201 80.0308 141.265 81.6074 144.441 79.8571C147.974 77.9096 147.763 72.4925 145.437 69.1975C142.601 65.1792 137.627 63.035 132.716 62.726C127.805 62.417 122.927 63.7436 118.342 65.5292C113.132 67.558 107.966 70.3617 104.76 74.9392C100.861 80.5059 100.486 87.9899 102.436 94.4991C103.622 98.4588 107.67 103.296 110.659 106.478Z" fill="#2F2E41"/>
<path d="M245.768 373.604H2.34009C2.17064 373.604 2.00812 373.537 1.8883 373.417C1.76848 373.297 1.70117 373.135 1.70117 372.965C1.70117 372.796 1.76848 372.634 1.8883 372.514C2.00812 372.394 2.17064 372.327 2.34009 372.327H245.768C245.937 372.327 246.1 372.394 246.22 372.514C246.339 372.634 246.407 372.796 246.407 372.965C246.407 373.135 246.339 373.297 246.22 373.417C246.1 373.537 245.937 373.604 245.768 373.604Z" fill="#CACACA"/>
<path d="M217.022 87.8186C216.458 87.8192 215.914 87.6058 215.501 87.2213L205.178 77.6399C204.744 77.2364 204.488 76.6773 204.466 76.0855C204.445 75.4937 204.659 74.9175 205.063 74.4835C205.466 74.0496 206.025 73.7934 206.617 73.7712C207.21 73.7491 207.786 73.9628 208.221 74.3654L216.965 82.4812L234.265 65.1946C234.472 64.9858 234.719 64.82 234.99 64.7066C235.262 64.5933 235.554 64.5347 235.848 64.5341C236.142 64.5336 236.434 64.5911 236.706 64.7035C236.978 64.8158 237.225 64.9807 237.433 65.1888C237.642 65.3968 237.807 65.6439 237.919 65.9158C238.031 66.1877 238.089 66.4791 238.088 66.7732C238.088 67.0674 238.029 67.3586 237.915 67.63C237.802 67.9015 237.636 68.1478 237.427 68.355L218.604 87.1642C218.396 87.372 218.15 87.5367 217.878 87.649C217.607 87.7613 217.316 87.8189 217.022 87.8186Z" fill="white"/>
</g>
<path d="M210.298 506.939C177.277 506.88 41.3823 503.974 8.44706 507.322C-1.23042 508.306 1.9263 508.338 10.3944 510.611C17.9016 512.625 48.5126 532.998 20.2311 521.522C16.9014 520.171 2.74332 511.395 3.82398 510.898C21.1281 502.936 19.1518 501.084 32.5298 487.706" stroke="#464646" stroke-width="3" stroke-linecap="round"/>
<path d="M259.122 520.12C256.938 520.12 255.03 519.736 253.398 518.968C251.79 518.224 250.542 517.132 249.654 515.692C248.766 514.228 248.322 512.476 248.322 510.436C248.322 508.516 248.682 506.752 249.402 505.144C250.146 503.536 251.214 502.048 252.606 500.68C254.718 498.64 257.178 497.068 259.986 495.964C262.818 494.86 265.734 494.308 268.734 494.308C270.222 494.308 271.53 494.572 272.658 495.1C273.786 495.604 274.674 496.288 275.322 497.152C275.97 498.016 276.294 498.964 276.294 499.996C276.294 500.668 276.138 501.292 275.826 501.868C275.514 502.42 275.166 502.864 274.782 503.2C274.398 503.536 274.086 503.704 273.846 503.704C273.654 503.704 273.462 503.62 273.27 503.452C273.078 503.26 272.982 503.104 272.982 502.984C272.982 502.84 273.15 502.636 273.486 502.372C273.822 502.108 274.146 501.76 274.458 501.328C274.794 500.872 274.962 500.32 274.962 499.672C274.962 498.808 274.662 498.052 274.062 497.404C273.486 496.732 272.67 496.216 271.614 495.856C270.582 495.472 269.394 495.28 268.05 495.28C265.386 495.28 262.794 495.844 260.274 496.972C257.754 498.076 255.546 499.564 253.65 501.436C252.33 502.756 251.334 504.148 250.662 505.612C249.99 507.076 249.654 508.768 249.654 510.688C249.654 512.536 250.086 514.084 250.95 515.332C251.838 516.556 253.026 517.48 254.514 518.104C256.002 518.704 257.67 519.004 259.518 519.004C261.63 519.004 263.874 518.668 266.25 517.996C267.642 517.612 268.818 517.18 269.778 516.7C270.738 516.196 271.458 515.728 271.938 515.296C272.394 514.888 272.73 514.588 272.946 514.396C273.162 514.204 273.342 514.108 273.486 514.108C273.654 514.108 273.738 514.216 273.738 514.432C273.738 514.672 273.594 514.972 273.306 515.332C273.042 515.692 272.742 516.004 272.406 516.268C271.566 516.916 270.498 517.504 269.202 518.032C267.93 518.536 266.658 518.956 265.386 519.292C264.258 519.58 263.178 519.784 262.146 519.904C261.114 520.048 260.106 520.12 259.122 520.12ZM274.098 519.148C273.714 519.148 273.522 518.956 273.522 518.572C273.522 518.068 273.702 517.276 274.062 516.196C274.422 515.092 274.89 513.832 275.466 512.416C276.066 510.976 276.702 509.5 277.374 507.988C277.758 507.148 278.154 506.332 278.562 505.54C278.97 504.724 279.354 504.016 279.714 503.416C283.266 497.416 285.474 494.416 286.338 494.416C286.674 494.416 286.842 494.584 286.842 494.92C286.842 495.136 286.674 495.544 286.338 496.144C286.026 496.72 285.606 497.404 285.078 498.196C284.574 498.964 284.022 499.744 283.422 500.536C282.846 501.328 282.294 502.06 281.766 502.732C281.262 503.38 280.854 503.872 280.542 504.208C280.278 504.52 279.978 504.976 279.642 505.576C279.33 506.176 279.018 506.8 278.706 507.448C278.394 508.072 278.142 508.624 277.95 509.104L276.582 512.488C276.942 512.008 277.41 511.468 277.986 510.868C279.354 509.356 280.77 508.216 282.234 507.448C283.722 506.656 284.97 506.26 285.978 506.26C286.53 506.26 286.974 506.428 287.31 506.764C287.646 507.1 287.814 507.508 287.814 507.988C287.814 508.924 287.202 510.496 285.978 512.704C284.754 514.888 284.142 516.232 284.142 516.736C284.142 517 284.286 517.132 284.574 517.132C285.246 517.132 285.978 516.892 286.77 516.412C287.562 515.908 288.378 515.272 289.218 514.504C290.058 513.736 290.874 512.968 291.666 512.2C291.762 512.104 291.906 512.056 292.098 512.056C292.458 512.056 292.638 512.2 292.638 512.488C292.638 512.752 292.47 513.052 292.134 513.388C290.526 514.996 289.146 516.196 287.994 516.988C286.842 517.78 285.63 518.176 284.358 518.176C283.398 518.176 282.918 517.732 282.918 516.844C282.918 516.508 282.978 516.184 283.098 515.872C283.218 515.56 283.41 515.14 283.674 514.612L285.33 511.336C285.738 510.52 286.038 509.836 286.23 509.284C286.422 508.732 286.518 508.312 286.518 508.024C286.518 507.616 286.266 507.412 285.762 507.412C284.874 507.412 283.83 507.772 282.63 508.492C281.454 509.188 280.194 510.244 278.85 511.66C278.082 512.476 277.386 513.34 276.762 514.252C276.162 515.164 275.682 516.148 275.322 517.204L274.89 518.464C274.722 518.92 274.458 519.148 274.098 519.148ZM292.651 519.148C291.643 519.148 290.851 518.8 290.275 518.104C289.699 517.408 289.411 516.556 289.411 515.548C289.411 513.82 289.987 512.044 291.139 510.22C291.451 509.716 291.811 509.224 292.219 508.744C292.627 508.24 293.071 507.76 293.551 507.304C294.271 506.608 295.027 506.032 295.819 505.576C296.611 505.12 297.379 504.892 298.123 504.892C299.347 504.892 299.959 505.468 299.959 506.62C299.959 508.06 299.119 509.368 297.439 510.544C295.879 511.6 294.343 512.128 292.831 512.128C292.567 512.128 292.327 512.116 292.111 512.092C291.919 512.044 291.739 511.996 291.571 511.948C291.331 512.404 291.115 512.992 290.923 513.712C290.731 514.432 290.635 515.056 290.635 515.584C290.635 517.168 291.331 517.96 292.723 517.96C293.851 517.96 294.919 517.768 295.927 517.384C296.935 516.976 298.135 516.22 299.527 515.116C300.391 514.444 301.039 513.904 301.471 513.496C301.903 513.088 302.371 512.656 302.875 512.2C303.019 512.104 303.151 512.056 303.271 512.056C303.391 512.056 303.511 512.092 303.631 512.164C303.751 512.236 303.811 512.344 303.811 512.488C303.811 512.752 303.571 513.124 303.091 513.604C302.683 513.988 302.251 514.396 301.795 514.828C301.339 515.236 300.619 515.812 299.635 516.556C298.579 517.372 297.427 518.008 296.179 518.464C294.931 518.92 293.755 519.148 292.651 519.148ZM292.615 510.976C293.383 510.976 294.115 510.856 294.811 510.616C295.507 510.376 296.167 510.028 296.791 509.572C298.183 508.54 298.879 507.568 298.879 506.656C298.879 506.248 298.627 506.044 298.123 506.044C297.163 506.044 296.047 506.632 294.775 507.808C294.151 508.384 293.635 508.912 293.227 509.392C292.843 509.848 292.483 510.352 292.147 510.904C292.291 510.952 292.447 510.976 292.615 510.976ZM304.695 519.004C303.423 519.004 302.427 518.632 301.707 517.888C300.987 517.144 300.627 516.148 300.627 514.9C300.627 512.74 301.647 510.388 303.687 507.844C304.743 506.548 305.811 505.564 306.891 504.892C307.995 504.196 309.027 503.848 309.987 503.848C310.827 503.848 311.475 504.136 311.931 504.712C312.387 505.288 312.615 506.008 312.615 506.872C312.615 507.4 312.543 507.94 312.399 508.492C312.303 508.876 312.111 509.068 311.823 509.068C311.367 509.068 311.139 508.816 311.139 508.312C311.139 508.096 311.175 507.82 311.247 507.484C311.343 507.124 311.391 506.776 311.391 506.44C311.391 505.48 310.923 505 309.987 505C309.483 505 308.871 505.18 308.151 505.54C307.455 505.9 306.759 506.38 306.063 506.98C305.367 507.556 304.755 508.216 304.227 508.96C302.619 511.144 301.815 513.1 301.815 514.828C301.815 516.82 302.715 517.816 304.515 517.816C305.643 517.816 306.723 517.648 307.755 517.312C308.787 516.952 309.999 516.22 311.391 515.116C312.255 514.444 312.903 513.904 313.335 513.496C313.767 513.088 314.235 512.656 314.739 512.2C314.883 512.104 315.015 512.056 315.135 512.056C315.255 512.056 315.375 512.092 315.495 512.164C315.615 512.236 315.675 512.344 315.675 512.488C315.675 512.752 315.435 513.124 314.955 513.604C314.547 513.988 314.115 514.396 313.659 514.828C313.203 515.236 312.483 515.812 311.499 516.556C310.443 517.372 309.315 517.984 308.115 518.392C306.939 518.8 305.799 519.004 304.695 519.004ZM322.014 520.192C321.774 520.192 321.594 520.048 321.474 519.76L320.97 518.536C320.442 517.264 319.686 516.004 318.702 514.756C317.718 513.484 316.746 512.32 315.786 511.264C315.258 512.344 314.79 513.316 314.382 514.18C313.974 515.044 313.602 515.86 313.266 516.628C312.93 517.372 312.57 518.152 312.186 518.968C312.09 519.208 311.922 519.328 311.682 519.328C311.274 519.328 311.07 519.16 311.07 518.824C311.07 518.68 311.118 518.5 311.214 518.284C311.334 518.044 311.442 517.804 311.538 517.564C312.162 516.052 312.966 514.252 313.95 512.164C314.958 510.076 316.098 507.796 317.37 505.324C319.794 500.596 321.738 497.212 323.202 495.172C323.538 494.692 323.862 494.26 324.174 493.876C324.51 493.492 324.798 493.3 325.038 493.3C325.47 493.3 325.686 493.528 325.686 493.984C325.686 494.608 324.774 496.264 322.95 498.952C322.806 499.168 322.554 499.528 322.194 500.032C321.834 500.536 321.45 501.088 321.042 501.688C320.634 502.264 320.25 502.804 319.89 503.308C319.554 503.788 319.326 504.124 319.206 504.316L316.614 509.464C322.422 506.08 325.542 504.388 325.974 504.388C326.358 504.388 326.55 504.604 326.55 505.036C326.55 505.3 326.406 505.492 326.118 505.612C325.062 506.116 324.222 506.524 323.598 506.836C322.998 507.148 322.386 507.472 321.762 507.808C321.234 508.144 320.55 508.552 319.71 509.032C318.894 509.512 317.922 510.064 316.794 510.688C317.37 511.312 317.994 512.044 318.666 512.884C319.338 513.7 319.962 514.552 320.538 515.44C321.138 516.304 321.63 517.108 322.014 517.852C322.398 518.596 322.59 519.196 322.59 519.652C322.59 520.012 322.398 520.192 322.014 520.192ZM336.477 519.4C336.069 519.4 335.865 519.196 335.865 518.788C335.865 518.404 336.093 518.212 336.549 518.212C336.957 518.212 337.461 518.188 338.061 518.14C338.661 518.068 339.189 518.02 339.645 517.996C339.717 517.54 339.957 516.868 340.365 515.98C340.773 515.092 341.313 514.084 341.985 512.956C342.657 511.828 343.413 510.664 344.253 509.464L350.265 500.896C350.529 500.488 350.889 499.924 351.345 499.204C351.825 498.46 352.389 497.56 353.037 496.504C352.317 496.552 351.657 496.612 351.057 496.684C350.481 496.756 349.965 496.828 349.509 496.9C348.837 496.996 348.393 497.068 348.177 497.116C347.961 497.164 347.793 497.188 347.673 497.188C347.265 497.188 347.061 496.96 347.061 496.504C347.061 496.24 347.229 496.072 347.565 496C348.981 495.736 350.361 495.532 351.705 495.388C353.073 495.244 354.417 495.172 355.737 495.172C357.033 495.172 358.089 495.28 358.905 495.496C359.289 495.616 359.541 495.736 359.661 495.856C359.805 495.976 359.877 496.132 359.877 496.324C359.877 496.708 359.697 496.9 359.337 496.9C359.217 496.9 359.049 496.852 358.833 496.756C358.617 496.66 358.281 496.576 357.825 496.504C357.393 496.408 356.733 496.36 355.845 496.36C355.509 496.36 355.209 496.36 354.945 496.36C354.705 496.36 354.501 496.372 354.333 496.396C354.309 496.9 353.853 497.788 352.965 499.06L351.165 501.616L346.557 508.348C345.693 509.596 344.901 510.796 344.181 511.948C343.461 513.1 342.789 514.18 342.165 515.188C341.805 515.788 341.409 516.664 340.977 517.816C341.889 517.72 342.645 517.66 343.245 517.636C343.845 517.588 344.277 517.564 344.541 517.564C345.069 517.564 345.537 517.588 345.945 517.636C346.377 517.66 346.749 517.696 347.061 517.744C347.421 517.816 347.601 517.996 347.601 518.284C347.601 518.668 347.385 518.86 346.953 518.86C346.665 518.86 346.293 518.836 345.837 518.788C345.405 518.764 345.021 518.752 344.685 518.752C343.605 518.752 342.285 518.86 340.725 519.076C340.605 519.268 340.437 519.364 340.221 519.364C340.029 519.364 339.885 519.28 339.789 519.112C339.069 519.208 338.433 519.28 337.881 519.328C337.329 519.376 336.861 519.4 336.477 519.4ZM353.536 520.984C353.08 520.984 352.852 520.624 352.852 519.904C352.852 518.848 353.44 517 354.616 514.36C355.816 511.72 357.592 508.264 359.944 503.992C359.032 503.992 358.168 504.112 357.352 504.352C356.56 504.568 356.14 504.844 356.092 505.18C356.068 505.276 356.008 505.372 355.912 505.468C355.84 505.54 355.72 505.576 355.552 505.576C355.168 505.576 354.976 505.384 354.976 505C354.976 504.376 355.468 503.86 356.452 503.452C357.436 503.044 358.816 502.84 360.592 502.84L363.076 498.736C363.244 498.472 363.424 498.184 363.616 497.872C363.808 497.536 364.024 497.176 364.264 496.792C364.504 496.456 364.78 496.288 365.092 496.288C365.284 496.288 365.428 496.348 365.524 496.468C365.62 496.564 365.668 496.672 365.668 496.792C365.668 497.152 365.14 498.112 364.084 499.672C362.764 501.616 362.056 502.672 361.96 502.84C362.32 502.84 362.86 502.876 363.58 502.948C364.3 502.996 365.152 503.08 366.136 503.2C366.496 503.224 366.676 503.404 366.676 503.74C366.676 504.124 366.46 504.316 366.028 504.316C365.86 504.316 365.524 504.292 365.02 504.244C364.516 504.172 363.976 504.112 363.4 504.064C362.824 504.016 362.332 504.004 361.924 504.028L361.384 504.064C356.512 512.632 354.088 517.96 354.112 520.048L354.148 520.336V520.408C354.148 520.792 353.944 520.984 353.536 520.984ZM377.724 522.028C377.268 522.028 377.04 521.824 377.04 521.416C377.04 518.584 378.696 514.168 382.008 508.168C382.248 507.736 382.62 507.1 383.124 506.26C382.308 506.356 381.624 506.536 381.072 506.8C380.544 507.04 380.196 507.16 380.028 507.16C379.596 507.16 379.38 506.956 379.38 506.548C379.38 505.924 380.868 505.384 383.844 504.928C384.252 504.232 384.768 503.368 385.392 502.336C386.04 501.304 386.808 500.092 387.696 498.7C388.344 497.668 388.896 496.768 389.352 496C389.808 495.208 390.18 494.488 390.468 493.84C390.564 493.6 390.72 493.48 390.936 493.48C391.392 493.48 391.62 493.72 391.62 494.2C391.62 494.368 391.332 494.932 390.756 495.892C390.204 496.828 389.328 498.268 388.128 500.212L385.284 504.784C386.196 504.688 387.156 504.616 388.164 504.568C389.172 504.52 390.204 504.496 391.26 504.496C393.372 504.496 397.248 504.676 402.888 505.036C403.368 504.004 403.872 502.996 404.4 502.012C404.952 501.004 405.528 500.008 406.128 499.024C406.992 497.56 407.748 496.42 408.396 495.604C409.044 494.764 409.524 494.224 409.836 493.984C410.148 493.744 410.4 493.624 410.592 493.624C410.952 493.624 411.132 493.816 411.132 494.2C411.132 494.392 411.024 494.56 410.808 494.704C410.376 495.016 409.848 495.58 409.224 496.396C408.6 497.212 407.904 498.28 407.136 499.6C405.984 501.544 405 503.392 404.184 505.144C405.024 505.144 405.444 505.348 405.444 505.756C405.444 505.924 405.384 506.068 405.264 506.188C405.144 506.308 404.964 506.356 404.724 506.332L403.644 506.26C401.22 511.66 400.008 515.356 400.008 517.348V518.14C400.008 518.428 399.804 518.572 399.396 518.572C399.012 518.572 398.82 518.152 398.82 517.312C398.82 515.2 399.996 511.48 402.348 506.152C399.42 505.984 397.008 505.864 395.112 505.792C393.24 505.72 391.884 505.684 391.044 505.684C388.692 505.684 386.544 505.792 384.6 506.008L383.052 508.708C381.876 510.796 380.952 512.668 380.28 514.324C379.608 515.956 379.152 517.18 378.912 517.996C378.672 518.932 378.516 519.652 378.444 520.156C378.372 520.66 378.312 521.128 378.264 521.56C378.24 521.872 378.06 522.028 377.724 522.028ZM408.083 519.148C407.075 519.148 406.283 518.8 405.707 518.104C405.131 517.408 404.843 516.556 404.843 515.548C404.843 513.82 405.419 512.044 406.571 510.22C406.883 509.716 407.243 509.224 407.651 508.744C408.059 508.24 408.503 507.76 408.983 507.304C409.703 506.608 410.459 506.032 411.251 505.576C412.043 505.12 412.811 504.892 413.555 504.892C414.779 504.892 415.391 505.468 415.391 506.62C415.391 508.06 414.551 509.368 412.871 510.544C411.311 511.6 409.775 512.128 408.263 512.128C407.999 512.128 407.759 512.116 407.543 512.092C407.351 512.044 407.171 511.996 407.003 511.948C406.763 512.404 406.547 512.992 406.355 513.712C406.163 514.432 406.067 515.056 406.067 515.584C406.067 517.168 406.763 517.96 408.155 517.96C409.283 517.96 410.351 517.768 411.359 517.384C412.367 516.976 413.567 516.22 414.959 515.116C415.823 514.444 416.471 513.904 416.903 513.496C417.335 513.088 417.803 512.656 418.307 512.2C418.451 512.104 418.583 512.056 418.703 512.056C418.823 512.056 418.943 512.092 419.063 512.164C419.183 512.236 419.243 512.344 419.243 512.488C419.243 512.752 419.003 513.124 418.523 513.604C418.115 513.988 417.683 514.396 417.227 514.828C416.771 515.236 416.051 515.812 415.067 516.556C414.011 517.372 412.859 518.008 411.611 518.464C410.363 518.92 409.187 519.148 408.083 519.148ZM408.047 510.976C408.815 510.976 409.547 510.856 410.243 510.616C410.939 510.376 411.599 510.028 412.223 509.572C413.615 508.54 414.311 507.568 414.311 506.656C414.311 506.248 414.059 506.044 413.555 506.044C412.595 506.044 411.479 506.632 410.207 507.808C409.583 508.384 409.067 508.912 408.659 509.392C408.275 509.848 407.915 510.352 407.579 510.904C407.723 510.952 407.879 510.976 408.047 510.976ZM414.439 519.4C414.055 519.4 413.863 519.244 413.863 518.932C413.863 518.788 413.899 518.644 413.971 518.5C414.067 518.356 414.139 518.236 414.187 518.14L417.463 511.516C418.855 508.684 419.551 507.112 419.551 506.8C419.551 506.464 419.719 506.296 420.055 506.296C420.511 506.296 420.739 506.524 420.739 506.98C420.739 507.22 420.631 507.604 420.415 508.132C420.199 508.66 419.923 509.272 419.587 509.968C419.011 511.216 418.531 512.176 418.147 512.848C418.867 512.008 419.599 511.216 420.343 510.472C421.087 509.728 421.843 509.02 422.611 508.348C424.891 506.356 426.643 505.36 427.867 505.36C428.707 505.36 429.127 505.756 429.127 506.548C429.127 507.316 428.875 507.7 428.371 507.7C428.131 507.7 427.951 507.496 427.831 507.088C427.759 506.8 427.591 506.656 427.327 506.656C426.919 506.656 426.127 507.1 424.951 507.988C423.655 508.948 422.347 510.088 421.027 511.408C419.731 512.728 418.351 514.408 416.887 516.448L415.087 518.968C414.991 519.088 414.895 519.184 414.799 519.256C414.727 519.352 414.607 519.4 414.439 519.4ZM429.425 519.148C428.417 519.148 427.625 518.8 427.049 518.104C426.473 517.408 426.185 516.556 426.185 515.548C426.185 513.82 426.761 512.044 427.913 510.22C428.225 509.716 428.585 509.224 428.993 508.744C429.401 508.24 429.845 507.76 430.325 507.304C431.045 506.608 431.801 506.032 432.593 505.576C433.385 505.12 434.153 504.892 434.897 504.892C436.121 504.892 436.733 505.468 436.733 506.62C436.733 508.06 435.893 509.368 434.213 510.544C432.653 511.6 431.117 512.128 429.605 512.128C429.341 512.128 429.101 512.116 428.885 512.092C428.693 512.044 428.513 511.996 428.345 511.948C428.105 512.404 427.889 512.992 427.697 513.712C427.505 514.432 427.409 515.056 427.409 515.584C427.409 517.168 428.105 517.96 429.497 517.96C430.625 517.96 431.693 517.768 432.701 517.384C433.709 516.976 434.909 516.22 436.301 515.116C437.165 514.444 437.813 513.904 438.245 513.496C438.677 513.088 439.145 512.656 439.649 512.2C439.793 512.104 439.925 512.056 440.045 512.056C440.165 512.056 440.285 512.092 440.405 512.164C440.525 512.236 440.585 512.344 440.585 512.488C440.585 512.752 440.345 513.124 439.865 513.604C439.457 513.988 439.025 514.396 438.569 514.828C438.113 515.236 437.393 515.812 436.409 516.556C435.353 517.372 434.201 518.008 432.953 518.464C431.705 518.92 430.529 519.148 429.425 519.148ZM429.389 510.976C430.157 510.976 430.889 510.856 431.585 510.616C432.281 510.376 432.941 510.028 433.565 509.572C434.957 508.54 435.653 507.568 435.653 506.656C435.653 506.248 435.401 506.044 434.897 506.044C433.937 506.044 432.821 506.632 431.549 507.808C430.925 508.384 430.409 508.912 430.001 509.392C429.617 509.848 429.257 510.352 428.921 510.904C429.065 510.952 429.221 510.976 429.389 510.976Z" fill="#464646"/>
<defs>
<clipPath id="clip0_666_118890">
<rect width="435" height="373" fill="white" transform="translate(1.70117 0.701782)"/>
</clipPath>
</defs>
</svg>
