<svg width="18" height="17" viewBox="0 0 18 17" fill="none" xmlns="http://www.w3.org/2000/svg">
<g id="elements">
<path id="Vector" d="M5.23783 12.2621C4.75883 11.7831 4.83845 9.74814 4.83845 9.74814M5.23783 12.2621C5.71684 12.7411 7.75173 12.6614 7.75173 12.6614M5.23783 12.2621L8.16683 9.33301M12.7626 4.73728C12.2836 4.25827 10.2487 4.33798 10.2487 4.33798M12.7626 4.73728C13.2416 5.21629 13.1619 7.2512 13.1619 7.2512M12.7626 4.73728L9.8335 7.66634" stroke="black" stroke-linecap="round" stroke-linejoin="round"/>
<path id="Rectangle 2058" d="M1.0835 8.49967C1.0835 4.76772 1.0835 2.90175 2.24287 1.74238C3.40223 0.583008 5.26821 0.583008 9.00016 0.583008C12.7321 0.583008 14.5981 0.583008 15.7575 1.74238C16.9168 2.90175 16.9168 4.76772 16.9168 8.49967C16.9168 12.2316 16.9168 14.0976 15.7575 15.257C14.5981 16.4163 12.7321 16.4163 9.00016 16.4163C5.26821 16.4163 3.40223 16.4163 2.24287 15.257C1.0835 14.0976 1.0835 12.2316 1.0835 8.49967Z" stroke="black"/>
</g>
</svg>
