<svg width="16" height="16" viewBox="0 0 16 16" fill="none" xmlns="http://www.w3.org/2000/svg">
<path d="M6.0801 3.47597C6.66347 3.302 7.30277 3.2002 8.0001 3.2002C10.6765 3.2002 12.498 4.69993 13.5842 6.02279C14.1281 6.68531 14.4001 7.01657 14.4001 8.0002C14.4001 8.98382 14.1281 9.31508 13.5842 9.9776C12.498 11.3005 10.6765 12.8002 8.0001 12.8002C5.32369 12.8002 3.50215 11.3005 2.41603 9.9776C1.87207 9.31508 1.6001 8.98382 1.6001 8.0002C1.6001 7.01657 1.87207 6.68531 2.41603 6.02279C2.72401 5.64768 3.09113 5.25835 3.5201 4.89302" stroke="black" stroke-linecap="round"/>
<path d="M10 8C10 9.10457 9.10457 10 8 10C6.89543 10 6 9.10457 6 8C6 6.89543 6.89543 6 8 6C9.10457 6 10 6.89543 10 8Z" stroke="black"/>
</svg>
