<svg width="373" height="261" viewBox="0 0 373 261" fill="none" xmlns="http://www.w3.org/2000/svg">
<g clip-path="url(#clip0_673_103915)">
<path opacity="0.1" d="M373 167.475C373.006 174.54 372.255 181.579 370.761 188.437C370.259 190.745 369.675 193.008 369.01 195.225C368.195 197.958 367.252 200.64 366.185 203.258C365.647 204.58 365.078 205.878 364.478 207.153C364.488 214.397 363.175 221.565 360.624 228.204C356.01 240.114 347.786 249.745 337.449 255.342C330.977 258.851 323.904 260.694 316.734 260.741H70.808C59.8654 260.769 49.1115 257.503 39.6397 251.275C38.2399 250.354 36.876 249.372 35.5481 248.331C32.6647 246.067 29.9557 243.529 27.4504 240.744C24.0587 236.973 21.0706 232.761 18.5483 228.194C12.6225 217.5 9.48325 205.117 9.49426 192.479C3.49304 180.511 -0.00634766 166.176 -0.00634766 150.771C-0.00634766 131.335 5.55467 113.606 14.6911 100.184C16.5959 97.3801 18.6823 94.7418 20.933 92.2911C23.1537 89.866 25.5406 87.6455 28.0711 85.6506C30.0949 84.0515 32.2109 82.6085 34.4048 81.3315C35.3201 80.7988 36.2385 80.3021 37.1727 79.8378C37.9929 79.4239 38.8226 79.0388 39.6618 78.6753C40.6689 78.2386 41.6886 77.8391 42.721 77.4768C43.7534 77.1144 44.7721 76.7953 45.7771 76.5194C47.2549 76.1091 48.7581 75.7755 50.2867 75.5188C51.5534 75.3064 52.8202 75.1589 54.0869 75.0437C55.094 74.9621 56.1095 74.9141 57.1334 74.8997H57.6876C58.8151 74.8997 59.9361 74.9501 61.0477 75.0365C61.1649 74.7702 61.2915 74.5002 61.4087 74.2339C61.8521 73.2765 62.3113 72.3191 62.7736 71.3797V71.3545C62.8528 71.1926 62.932 71.0306 63.0143 70.8722C63.388 70.1056 63.7775 69.3462 64.1766 68.5939C64.3602 68.234 64.5408 67.8957 64.7276 67.5538C64.7688 67.471 64.8099 67.3918 64.8574 67.309C65.0475 66.9491 65.2406 66.5892 65.437 66.2293C66.4145 64.456 67.431 62.7104 68.4867 60.9924C68.5785 60.8448 68.664 60.7009 68.7559 60.5569C68.9205 60.2906 69.0725 60.0278 69.2562 59.7651C69.6932 59.0704 70.1429 58.3722 70.5958 57.6847C70.9125 57.1988 71.2292 56.713 71.5712 56.2451C72.3946 55.0357 73.2401 53.8336 74.1047 52.6459C74.9692 51.4581 75.8813 50.2632 76.8029 49.0934C76.9295 48.9315 77.0562 48.7731 77.1892 48.6111L78.5415 46.9375C78.608 46.8583 78.665 46.7864 78.7283 46.7144C78.8898 46.5164 79.045 46.3185 79.2192 46.1241C79.9444 45.2531 80.6886 44.3929 81.436 43.5435C85.2535 39.2324 89.3204 35.2164 93.6094 31.5221C93.7773 31.3709 93.9483 31.227 94.1161 31.083C94.9205 30.392 95.7376 29.7117 96.5546 29.0423C101.049 25.3794 105.747 22.0492 110.619 19.0725C110.954 18.8565 111.296 18.6514 111.642 18.4462C116.01 15.8214 120.502 13.4712 125.098 11.4062C127.602 10.2808 130.15 9.22983 132.742 8.25325C134.459 7.61619 136.182 7.00792 137.927 6.45365C140.625 5.57304 143.357 4.77882 146.122 4.07097C154.271 1.9931 162.56 0.70952 170.9 0.23422C173.434 0.0830532 175.995 0.00747089 178.586 0.00747089C191.086 -0.0113364 203.537 1.77866 215.638 5.33429C215.763 5.5492 215.935 5.7244 216.136 5.8434C216.337 5.9624 216.561 6.0213 216.788 6.01454H217.852C218.314 6.15491 218.774 6.30248 219.236 6.45365C221.818 7.30066 224.363 8.22326 226.871 9.22144L227.505 9.48058C233.695 11.9823 239.718 14.9895 245.527 18.4786C250.763 21.6175 255.805 25.1577 260.617 29.0747C261.358 29.6793 262.089 30.29 262.809 30.9066C263.683 30.266 264.572 29.6553 265.475 29.0747C268.965 26.8171 272.671 25.0225 276.521 23.7262C284.571 21.019 293.088 20.6404 301.299 22.6249C311.829 25.1623 321.361 31.4609 329.06 40.4193C332.196 44.0729 334.989 48.0872 337.395 52.3975C337.569 52.707 337.743 53.0202 337.911 53.3369C339.975 57.1648 341.748 61.1852 343.212 65.3547C343.266 65.5058 343.32 65.6534 343.368 65.8046C344.72 69.7065 345.81 73.719 346.63 77.8079C346.668 78.0131 346.712 78.2218 346.75 78.4306C347.516 82.3876 348.037 86.401 348.308 90.4411C348.308 90.5851 348.308 90.7327 348.333 90.8802C348.466 92.9702 348.534 95.0829 348.536 97.2184C348.536 99.126 348.479 101.019 348.374 102.894C348.374 103.1 348.349 103.315 348.333 103.524C348.305 104.071 348.264 104.604 348.222 105.155C350.641 107.371 352.905 109.797 354.993 112.411C355.916 113.555 356.809 114.744 357.672 115.977C360.303 119.723 362.615 123.745 364.576 127.988C369.922 139.498 373 153.01 373 167.475Z" fill="#E43B4E"/>
<path opacity="0.1" d="M337.214 238.318C337.214 246.499 329.753 254.154 316.734 260.748H70.8078C59.4293 260.748 48.7728 256.069 39.6395 247.91C37.3435 244.814 36.1338 241.607 36.1338 238.314C36.1338 229.618 44.5703 221.502 59.1569 214.642L59.5686 214.455C63.6855 212.537 68.287 210.726 73.316 209.024C73.4427 208.981 73.5725 208.941 73.6992 208.891C77.6894 207.559 81.9341 206.297 86.4331 205.104C86.5756 205.068 86.715 205.029 86.8575 205C88.5929 204.532 90.3632 204.097 92.1715 203.661L92.8682 203.495C106.027 200.393 120.984 197.931 137.204 196.261H137.223C139.495 196.021 141.791 195.806 144.111 195.617C146.692 195.383 149.305 195.185 151.946 195.001C153.963 194.854 156.006 194.728 158.055 194.613C158.063 194.609 158.071 194.607 158.079 194.607C158.087 194.607 158.095 194.609 158.103 194.613C167.347 194.084 176.898 193.806 186.665 193.806C210.815 193.806 233.642 195.491 253.869 198.485C253.887 198.482 253.907 198.482 253.926 198.485C257.035 198.946 260.088 199.432 263.065 199.95C263.917 200.101 264.766 200.253 265.599 200.407C268.958 201.024 272.23 201.675 275.416 202.362C312.88 210.456 337.214 223.554 337.214 238.318Z" fill="#E43B4E"/>
<path d="M275.992 87.5616C275.992 87.5616 272.642 86.0175 261.982 91.5711C251.322 97.1246 249.992 96.4228 247.234 95.5878C244.476 94.7528 242.937 94.5368 239.979 89.8974C239.979 89.8974 237.892 77.0447 235.862 75.0507C233.832 73.0568 225.262 76.1881 225.262 76.1881C225.262 76.1881 214.973 78.8695 213.013 63.2309C213.013 63.2309 214.403 51.4543 212.509 47.8407C212.509 47.8407 216.335 49.7123 222.643 46.689C228.952 43.6656 234.003 49.9463 234.003 49.9463C234.003 49.9463 235.586 54.6252 235.428 57.4182C235.27 60.2112 236.27 61.2586 239.279 59.9089C239.279 59.9089 240.758 57.519 238.664 53.5671C236.571 49.6151 235.076 46.6746 235.659 43.6081C236.242 40.5415 237.923 36.2837 243.323 34.1565C248.722 32.0294 256.054 31.6371 259.572 29.9563C263.09 28.2754 263.958 27.2029 263.958 27.2029C263.958 27.2029 261.792 29.6683 266.894 40.124C271.996 50.5797 268.743 55.1147 268.743 55.1147C268.743 55.1147 266.029 62.4679 254.046 61.8704C254.046 61.8704 242.5 62.3491 248.795 67.9135C248.795 67.9135 252.827 66.9813 258.853 64.8038C264.88 62.6263 269.231 71.6135 270.311 77.8653C271.391 84.1171 275.992 87.5616 275.992 87.5616Z" fill="#E43B4E"/>
<path d="M260.472 35.121L260.535 35.0994C260.997 37.0933 255.839 45.1124 251.427 51.4865L251.376 51.4398C257.596 42.4633 260.83 36.665 260.472 35.121Z" fill="#444053"/>
<path d="M251.465 51.3174L251.494 51.3966C247.969 56.4858 243.538 62.5541 239.991 67.0639C239.653 67.4922 239.317 67.9421 238.994 68.4028L238.893 68.3092C239.209 67.8485 239.554 67.395 239.893 66.9667C243.437 62.4749 247.937 56.4103 251.465 51.3174Z" fill="#444053"/>
<path d="M238.978 68.1941L239.048 68.3309C232.594 77.4908 232.166 91.7257 232.15 91.8373L230.789 90.0377C230.804 89.9225 232.48 77.4189 238.978 68.1941Z" fill="#444053"/>
<path d="M268.522 82.5945C268.522 82.5945 260.922 78.0955 254.981 79.7151C249.04 81.3348 235.679 73.9924 235.679 73.9924C235.679 73.9924 230.01 71.3758 228.87 68.3921C228.87 68.3921 224.978 63.7131 224.753 61.298C224.528 58.883 220.744 52.7967 218.273 52.5627" stroke="#444053" stroke-miterlimit="10"/>
<path d="M267.404 86.9243C267.404 86.9243 263.572 83.9874 264.019 80.5681" stroke="#444053" stroke-miterlimit="10"/>
<path d="M261.526 90.7144C261.526 90.7144 256.044 88.4541 255.509 79.5857" stroke="#444053" stroke-miterlimit="10"/>
<path d="M252.687 93.0107C252.687 93.0107 247.449 88.0725 249.188 79.4417" stroke="#444053" stroke-miterlimit="10"/>
<path d="M242.05 90.5993C242.05 90.5993 238.567 82.2851 241.667 76.8755" stroke="#444053" stroke-miterlimit="10"/>
<path d="M268.595 77.113C268.595 77.113 264.633 78.5527 265.482 80.9138" stroke="#444053" stroke-miterlimit="10"/>
<path d="M263.813 68.9536C263.813 68.9536 258.508 70.8648 258.385 79.3913" stroke="#444053" stroke-miterlimit="10"/>
<path d="M256.415 66.9668C256.415 66.9668 251.585 73.7405 251.94 79.8951" stroke="#444053" stroke-miterlimit="10"/>
<path d="M247.959 69.623C247.959 69.623 243.165 74.8347 243.776 77.7321" stroke="#444053" stroke-miterlimit="10"/>
<path d="M245.068 67.7838C245.068 67.7838 240.571 68.698 239.941 67.0208" stroke="#444053" stroke-miterlimit="10"/>
<path d="M239.225 61.6147C239.225 61.6147 241.496 65.034 242.075 64.2674" stroke="#444053" stroke-miterlimit="10"/>
<path d="M261.748 59.4516C261.748 59.4516 250.41 60.3874 247.845 56.5002" stroke="#444053" stroke-miterlimit="10"/>
<path d="M236.853 44.3818C236.853 44.3818 242.17 57.357 246.037 59.009" stroke="#444053" stroke-miterlimit="10"/>
<path d="M242.42 38.2019C242.42 38.2019 245.685 50.1369 249.733 53.8621" stroke="#444053" stroke-miterlimit="10"/>
<path d="M266.517 49.6007C266.517 49.6007 257.897 53.8046 252.722 49.5503" stroke="#444053" stroke-width="0.75" stroke-miterlimit="10"/>
<path d="M250.097 35.6572C250.097 35.6572 252.067 44.4285 254.721 46.5484" stroke="#444053" stroke-width="0.75" stroke-miterlimit="10"/>
<path d="M265.216 39.7712C265.216 39.7712 260.371 41.8588 258.565 40.2607" stroke="#444053" stroke-width="0.75" stroke-miterlimit="10"/>
<path d="M235.074 64.4797C235.074 64.4797 235.074 72.128 233.243 72.6715" stroke="#444053" stroke-miterlimit="10"/>
<path d="M220.097 74.3885C220.097 74.3885 227.381 75.1083 230.728 70.8289" stroke="#444053" stroke-miterlimit="10"/>
<path d="M233.199 55.4458C233.199 55.4458 231.438 63.2021 226.58 65.2932" stroke="#444053" stroke-miterlimit="10"/>
<path d="M215.733 66.2182C215.733 66.2182 220.883 68.2518 225.313 63.0725" stroke="#444053" stroke-miterlimit="10"/>
<path d="M227.47 48.7764C227.47 48.7764 226.985 55.3629 223.834 58.4474" stroke="#444053" stroke-miterlimit="10"/>
<path d="M215.93 56.1799C215.93 56.1799 220.202 56.2123 221.203 54.6287" stroke="#444053" stroke-miterlimit="10"/>
<path d="M246.829 81.1909H125.158V150.994H246.829V81.1909Z" fill="#33323D"/>
<path d="M285.116 172.2H87.2568V218.148H285.116V172.2Z" fill="#33323D"/>
<path d="M134.487 183.686H235.944L256.158 261H113.108L134.487 183.686Z" fill="white"/>
<path d="M81.6196 144.807V168.666V173.691V218.144H119.521V175.735H252.852V218.144H290.753V173.691V168.666V144.807H81.6196Z" fill="#504F60"/>
<path opacity="0.1" d="M290.753 144.807H81.6196V168.662H290.753V144.807Z" fill="#33323D"/>
<path opacity="0.8" d="M279.482 160.273C281.2 160.273 282.592 158.69 282.592 156.738C282.592 154.786 281.2 153.204 279.482 153.204C277.765 153.204 276.373 154.786 276.373 156.738C276.373 158.69 277.765 160.273 279.482 160.273Z" fill="#8CCF4D"/>
<path opacity="0.8" d="M265.488 160.273C267.205 160.273 268.598 158.69 268.598 156.738C268.598 154.786 267.205 153.204 265.488 153.204C263.77 153.204 262.378 154.786 262.378 156.738C262.378 158.69 263.77 160.273 265.488 160.273Z" fill="#FA5959"/>
<path d="M242.36 64.4006H129.629V140.387H242.36V64.4006Z" fill="white"/>
<path d="M259.509 175.306C259.746 178.247 257.792 181.101 258.363 183.981C258.483 184.596 258.717 185.179 258.803 185.78C259.037 187.49 258.141 189.109 257.283 190.542L249.926 202.844C249.631 203.384 249.278 203.879 248.875 204.32C247.465 205.759 245.356 205.594 243.51 206.018C242.212 206.318 240.986 206.931 239.916 207.818C239.869 207.86 239.838 207.921 239.829 207.987C239.82 208.054 239.834 208.122 239.868 208.178C240.172 208.652 240.576 209.033 241.043 209.284C241.51 209.536 242.025 209.65 242.541 209.618C242.734 209.906 242.541 210.337 242.275 210.539C241.879 210.849 241.325 210.931 241.258 211.694C241.23 211.959 241.277 212.228 241.391 212.461C241.689 212.976 242.151 213.34 242.68 213.476C245.214 214.361 247.978 212.807 249.885 210.69C251.791 208.574 253.159 205.903 255.031 203.747C256.067 202.556 257.248 201.534 258.312 200.378C260.44 198.075 262.112 195.271 263.696 192.46C264.218 191.645 264.613 190.733 264.861 189.764C265.057 188.807 264.969 187.796 265.197 186.845C265.494 185.604 266.296 184.614 266.961 183.57C268.268 181.526 269.139 179.028 268.965 176.509C268.791 173.989 267.423 171.509 265.333 170.653C264.685 170.359 263.971 170.31 263.297 170.512C262.438 170.811 261.808 171.617 261.222 172.387L259.826 174.219C259.478 174.625 259.201 175.103 259.012 175.627C258.922 175.891 258.901 176.179 258.952 176.456C259.003 176.734 259.124 176.988 259.3 177.189" fill="#FBBEBE"/>
<path opacity="0.05" d="M259.509 175.306C259.746 178.247 257.792 181.101 258.363 183.981C258.483 184.596 258.717 185.179 258.803 185.78C259.037 187.49 258.141 189.109 257.283 190.542L249.926 202.844C249.631 203.384 249.278 203.879 248.875 204.32C247.465 205.759 245.356 205.594 243.51 206.018C242.212 206.318 240.986 206.931 239.916 207.818C239.869 207.86 239.838 207.921 239.829 207.987C239.82 208.054 239.834 208.122 239.868 208.178C240.172 208.652 240.576 209.033 241.043 209.284C241.51 209.536 242.025 209.65 242.541 209.618C242.734 209.906 242.541 210.337 242.275 210.539C241.879 210.849 241.325 210.931 241.258 211.694C241.23 211.959 241.277 212.228 241.391 212.461C241.689 212.976 242.151 213.34 242.68 213.476C245.214 214.361 247.978 212.807 249.885 210.69C251.791 208.574 253.159 205.903 255.031 203.747C256.067 202.556 257.248 201.534 258.312 200.378C260.44 198.075 262.112 195.271 263.696 192.46C264.218 191.645 264.613 190.733 264.861 189.764C265.057 188.807 264.969 187.796 265.197 186.845C265.494 185.604 266.296 184.614 266.961 183.57C268.268 181.526 269.139 179.028 268.965 176.509C268.791 173.989 267.423 171.509 265.333 170.653C264.685 170.359 263.971 170.31 263.297 170.512C262.438 170.811 261.808 171.617 261.222 172.387L259.826 174.219C259.478 174.625 259.201 175.103 259.012 175.627C258.922 175.891 258.901 176.179 258.952 176.456C259.003 176.734 259.124 176.988 259.3 177.189" fill="black"/>
<path d="M265.079 250.994C263.471 252.106 261.469 252.178 259.601 251.916C259.284 251.876 258.945 251.851 258.752 252.114C258.473 252.499 258.803 253.06 259.142 253.37C260.246 254.309 261.541 254.915 262.907 255.13C264.126 255.323 265.356 255.416 266.587 255.407C269.944 255.472 273.32 255.536 276.645 254.986C276.837 254.969 277.024 254.907 277.193 254.802C277.407 254.632 277.556 254.374 277.608 254.082C277.839 253.103 277.399 252.045 276.737 251.365C276.075 250.685 275.223 250.303 274.39 249.925L271.47 248.633C270.783 248.327 269.684 247.525 268.937 247.586C267.572 247.712 266.239 250.224 265.079 250.994Z" fill="#3F3D56"/>
<path opacity="0.05" d="M265.079 250.994C263.471 252.106 261.469 252.178 259.601 251.916C259.284 251.876 258.945 251.851 258.752 252.114C258.473 252.499 258.803 253.06 259.142 253.37C260.246 254.309 261.541 254.915 262.907 255.13C264.126 255.323 265.356 255.416 266.587 255.407C269.944 255.472 273.32 255.536 276.645 254.986C276.837 254.969 277.024 254.907 277.193 254.802C277.407 254.632 277.556 254.374 277.608 254.082C277.839 253.103 277.399 252.045 276.737 251.365C276.075 250.685 275.223 250.303 274.39 249.925L271.47 248.633C270.783 248.327 269.684 247.525 268.937 247.586C267.572 247.712 266.239 250.224 265.079 250.994Z" fill="black"/>
<path d="M267.116 206.922C265.903 208.761 264.643 210.881 264.943 213.159C265.105 214.387 265.71 215.47 266.153 216.604C266.708 218.163 267.119 219.785 267.379 221.441C267.835 223.849 268.291 226.264 268.57 228.708C268.886 231.468 267.398 239.455 267.258 242.237C267.224 242.907 267.157 243.634 266.745 244.116C266.584 244.307 266.369 244.476 266.299 244.71C266.254 244.948 266.288 245.196 266.394 245.408C267.081 247.168 268.484 248.475 270.042 249.223C271.6 249.972 275.391 251.257 277.082 251.325C277.307 251.356 277.534 251.321 277.744 251.224C277.972 251.069 278.152 250.836 278.257 250.559C279.479 247.906 278.304 238.462 278.323 235.464C278.323 232.944 278.859 230.482 278.764 227.984C278.685 225.98 278.213 224.025 278.042 222.024C277.76 218.745 278.289 215.456 278.821 212.216C279.226 209.736 279.631 207.253 280.151 204.798C280.467 203.305 280.835 201.793 281.56 200.479C282.133 199.446 282.912 198.586 283.568 197.6C285.385 194.893 286.191 191.482 285.813 188.105C285.775 187.774 281.595 189.311 281.231 189.491C279.731 190.216 278.35 191.226 277.149 192.478C276.199 193.522 275.423 194.922 274.574 196.095C273.377 197.751 272.196 199.42 271.03 201.102C269.706 203.033 268.402 204.973 267.116 206.922Z" fill="#464353"/>
<path opacity="0.05" d="M267.116 206.803C265.903 208.642 264.643 210.762 264.943 213.044C265.105 214.268 265.71 215.351 266.153 216.485C266.708 218.045 267.119 219.666 267.379 221.322C267.835 223.73 268.291 226.145 268.57 228.589C268.886 231.35 267.398 239.34 267.258 242.122C267.224 242.788 267.157 243.519 266.745 243.997C266.584 244.188 266.369 244.357 266.299 244.591C266.251 244.836 266.285 245.093 266.394 245.311C267.081 247.067 268.484 248.378 270.042 249.123C271.6 249.868 275.391 250.562 277.082 250.623C277.307 250.654 277.534 250.619 277.744 250.523C277.972 250.367 278.152 250.134 278.257 249.857C279.479 247.204 278.304 238.361 278.323 235.366C278.323 232.847 278.859 230.381 278.764 227.884C278.685 225.879 278.213 223.925 278.042 221.923C277.76 218.644 278.289 215.355 278.821 212.119C279.226 209.636 279.631 207.152 280.151 204.698C280.467 203.204 280.835 201.692 281.56 200.379C282.133 199.349 282.912 198.485 283.568 197.521C285.383 194.813 286.189 191.403 285.813 188.026C285.775 187.691 281.595 189.228 281.231 189.412C279.729 190.137 278.349 191.15 277.149 192.406C276.199 193.454 275.423 194.85 274.574 196.005C273.377 197.661 272.196 199.331 271.03 201.016C269.706 202.935 268.402 204.864 267.116 206.803Z" fill="black"/>
<path d="M253.597 166.427C257.362 166.427 260.415 162.958 260.415 158.678C260.415 154.399 257.362 150.929 253.597 150.929C249.831 150.929 246.778 154.399 246.778 158.678C246.778 162.958 249.831 166.427 253.597 166.427Z" fill="#FBBEBE"/>
<path d="M259.734 158.354C260.363 159.497 261.189 160.484 262.161 161.257C263.133 162.03 264.232 162.573 265.393 162.853L264.88 164.966C263.993 168.612 262.98 172.467 260.519 174.994C260.788 173.759 260.44 172.431 259.826 171.369C259.169 170.336 258.39 169.411 257.511 168.619L253.587 164.739C253.47 164.641 253.37 164.519 253.292 164.379C253.197 164.107 253.197 163.803 253.292 163.53C253.793 161.763 255.221 160.651 256.377 159.463C256.958 158.844 257.479 158.155 257.929 157.408C258.733 156.137 259.218 157.408 259.734 158.354Z" fill="#FBBEBE"/>
<path d="M244.612 150.889L244.46 149.45C245.537 149.767 246.557 148.73 247.244 147.65C247.931 146.57 248.571 145.304 249.619 144.857C250.886 144.31 252.241 145.185 253.457 145.905C254.821 146.767 256.317 147.323 257.866 147.542C258.113 147.552 258.357 147.598 258.594 147.679C259.386 147.999 259.762 149.119 259.876 150.152C259.99 151.185 259.959 152.264 260.352 153.179C260.646 153.87 261.156 154.384 261.466 155.065C262.299 156.9 261.495 159.405 262.375 161.205L260.19 158.927C259.987 158.718 259.705 158.502 259.487 158.678C259.268 158.855 259.3 159.121 259.227 159.362C259.015 160.082 258.239 160.283 257.672 160.006C257.105 159.729 256.697 159.117 256.282 158.567C255.316 157.271 254.167 156.134 252.799 155.579C252.206 155.321 251.573 155.21 250.94 155.253C250.307 155.296 249.689 155.492 249.128 155.828C248.108 156.483 247.361 158.009 246.113 158.063C244.4 158.135 243.687 154.51 242.893 153.078C243.182 152.829 243.385 152.473 243.468 152.071C243.55 151.669 243.505 151.247 243.342 150.879C243.482 150.818 244.59 150.656 244.612 150.889Z" fill="#464353"/>
<path d="M273.031 250.933C271.684 252.299 269.934 253.04 268.129 253.01C267.67 253.01 267.033 253.111 267.03 253.633C267.038 253.788 267.084 253.937 267.163 254.064C267.735 255.144 268.637 255.946 269.697 256.318C270.679 256.656 271.73 256.598 272.756 256.541L275.749 256.364C276.312 256.328 276.879 256.296 277.443 256.217C278.007 256.138 278.615 256.004 279.204 255.907C280.646 255.673 282.106 255.594 283.561 255.673C283.948 255.691 284.394 255.673 284.635 255.342C284.876 255.011 284.746 254.414 284.657 253.935C284.48 252.949 284.657 251.916 284.492 250.926C284.204 249.188 282.89 247.859 281.44 247.23C280.094 246.647 277.706 245.981 276.43 246.949C275.061 247.993 274.238 249.691 273.031 250.933Z" fill="#3F3D56"/>
<path d="M275.996 192.766C276.262 194.206 277.475 195.286 277.513 196.725C277.541 197.891 276.806 198.885 276.281 199.875C275.778 200.912 275.355 201.995 275.014 203.114C274.015 206.017 272.776 208.807 271.315 211.446C270.612 212.709 269.827 214.084 269.988 215.571C270.099 216.264 270.313 216.932 270.622 217.543L272.727 222.298C273.19 223.247 273.552 224.256 273.804 225.303C273.985 226.206 274.004 227.142 274.121 228.064C274.453 230.979 275.657 233.916 274.947 236.741C274.884 236.986 274.662 237.281 274.495 237.101C275.188 238.577 275.761 240.067 275.695 241.741C275.666 242.619 275.429 243.54 275.717 244.354C275.88 244.67 275.988 245.02 276.034 245.383C276.034 245.62 275.936 245.847 275.913 246.103C275.856 246.776 276.398 247.337 276.965 247.542C277.532 247.748 278.143 247.74 278.713 247.935C279.812 248.295 280.591 249.374 281.531 250.123C282.484 250.874 283.609 251.291 284.768 251.322C284.932 251.342 285.098 251.304 285.243 251.214C285.326 251.132 285.393 251.031 285.439 250.917C285.484 250.803 285.508 250.68 285.509 250.555C285.559 249.959 285.48 249.358 285.278 248.805C285.076 248.252 284.757 247.764 284.35 247.384C284.173 247.256 284.026 247.08 283.922 246.873C283.869 246.689 283.855 246.493 283.881 246.301C284.052 243.684 284.011 241.055 283.758 238.447C283.643 237.621 283.606 236.784 283.647 235.949C283.71 235.255 283.894 234.564 283.824 233.869C283.755 233.174 283.447 232.548 283.264 231.879C282.947 230.691 283.029 229.417 282.994 228.172C282.937 226.012 282.504 223.896 282.07 221.794C281.902 220.97 281.712 220.102 281.196 219.49C280.759 218.972 280.052 218.472 280.217 217.781C280.307 217.525 280.443 217.293 280.616 217.1C280.82 216.81 280.97 216.476 281.057 216.117C281.144 215.759 281.165 215.384 281.12 215.016C281.305 215.072 281.502 215.053 281.675 214.961C281.849 214.868 281.989 214.71 282.07 214.513C285.493 212.681 288.261 209.009 289.48 204.935C289.549 204.635 289.655 204.347 289.797 204.082C290.114 203.578 290.665 203.362 291.152 203.081C292.685 202.207 293.746 200.562 294.718 198.953C295.285 198.017 295.849 197.053 296.093 195.955C296.226 195.245 296.29 194.521 296.283 193.796L296.368 190.045C296.385 189.803 296.364 189.559 296.305 189.325C296.224 189.101 296.103 188.899 295.95 188.731C295.021 187.608 293.801 186.851 292.467 186.572C291.567 186.388 290.649 186.424 289.74 186.338C287.976 186.172 286.234 185.553 284.47 185.697C281.696 185.928 279.229 188.112 277.921 190.902C277.462 191.899 276.981 192.766 275.996 192.766Z" fill="#464353"/>
<path d="M260.605 168.378C260.645 168.956 260.577 169.538 260.405 170.084C260.19 170.61 259.645 171.016 259.173 170.804C259.316 170.444 258.936 170.016 258.584 170.063C258.41 170.107 258.248 170.198 258.113 170.329C257.977 170.46 257.871 170.627 257.805 170.815C257.569 171.35 257.49 171.956 257.58 172.546C257.691 173.266 258.065 173.986 257.967 174.706C257.887 175.317 257.492 175.929 257.704 176.505C257.84 176.764 258.011 176.997 258.21 177.196C258.489 177.584 258.625 178.079 258.592 178.578C258.558 179.077 258.357 179.542 258.03 179.878L263.344 179.996C263.151 181.008 263.547 182.041 264.003 182.937C265.279 185.4 267.039 187.494 269.146 189.055C271.253 190.616 273.65 191.602 276.148 191.935C276.013 192.025 275.897 192.149 275.809 192.296C275.721 192.443 275.663 192.611 275.639 192.787C275.615 192.962 275.625 193.142 275.669 193.313C275.713 193.484 275.79 193.641 275.894 193.774C276.325 194.26 277.056 194.199 277.598 193.882C278.14 193.565 278.567 193.043 279.061 192.64C279.933 191.935 280.998 191.608 282.063 191.719C282.728 191.791 283.374 192.036 284.043 192.079C286.012 192.198 287.704 190.589 289.588 189.919C290.969 189.437 292.53 189.437 293.705 188.458C294.205 188.037 294.614 187.346 294.468 186.658C294.344 186.264 294.149 185.903 293.895 185.6C293.227 184.621 292.834 183.441 292.359 182.329C291.411 180.124 290.108 178.142 288.517 176.484C287.319 175.29 286.049 174.192 284.717 173.197C284.393 172.923 284.047 172.682 283.685 172.478C283.201 172.299 282.729 172.081 282.272 171.826C281.639 171.38 281.287 170.592 280.809 169.955C279.755 168.558 278.136 167.914 276.838 166.816C275.967 166.096 275.201 165.11 274.159 164.754C273.655 164.581 273.117 164.567 272.61 164.394C271.464 163.998 270.628 162.839 269.5 162.371C268.607 162.011 267.626 162.097 266.682 161.964C265.644 161.818 264.652 161.39 263.79 160.715C263.504 160.453 263.184 160.244 262.84 160.096C261.418 159.603 261.301 162.616 261.168 163.663C260.956 165.265 260.605 166.805 260.605 168.378Z" fill="#E43B4E"/>
<path d="M261.992 178.492C262.229 181.432 260.275 184.283 260.845 187.166C260.966 187.781 261.2 188.364 261.286 188.965C261.523 190.675 260.624 192.295 259.766 193.724L252.409 205.997C252.114 206.537 251.761 207.032 251.358 207.473C249.948 208.912 247.839 208.747 245.993 209.171C244.695 209.471 243.469 210.085 242.398 210.971C242.352 211.013 242.321 211.073 242.312 211.14C242.303 211.207 242.317 211.275 242.351 211.331C242.655 211.806 243.059 212.187 243.526 212.439C243.993 212.69 244.508 212.804 245.024 212.771C245.217 213.062 245.024 213.49 244.758 213.692C244.362 214.005 243.808 214.088 243.741 214.851C243.713 215.116 243.76 215.384 243.874 215.618C244.173 216.132 244.635 216.495 245.163 216.633C247.697 217.518 250.461 215.963 252.368 213.847C254.274 211.73 255.642 209.06 257.517 206.904C258.553 205.713 259.734 204.69 260.795 203.535C262.926 201.232 264.579 198.428 266.178 195.617C266.701 194.801 267.095 193.889 267.344 192.921C267.54 191.964 267.452 190.952 267.68 190.002C267.977 188.76 268.778 187.767 269.443 186.727C270.751 184.682 271.622 182.185 271.448 179.665C271.274 177.146 269.906 174.666 267.816 173.809C267.168 173.514 266.454 173.465 265.779 173.669C264.924 173.968 264.291 174.774 263.705 175.544L262.309 177.376C261.96 177.781 261.685 178.259 261.498 178.783C261.407 179.047 261.386 179.334 261.437 179.611C261.487 179.887 261.608 180.141 261.783 180.342" fill="#FBBEBE"/>
<path d="M265.716 166.409C264.747 166.474 263.683 166.582 262.999 167.367C262.714 167.727 262.483 168.138 262.315 168.583C261.653 170.12 261.007 171.725 260.959 173.435C260.918 174.803 261.276 176.138 261.45 177.491C261.602 178.614 261.216 179.759 261.133 180.896C262.334 180.479 263.917 179.91 265.007 179.205C265.72 178.674 266.479 178.225 267.271 177.866C268.427 177.43 270.368 178.179 271.457 178.794C271.518 177.916 270.941 176.394 271.001 175.515C271.011 175.148 271.069 174.784 271.172 174.436C271.337 174.067 271.531 173.716 271.752 173.388C272.172 172.616 272.366 171.712 272.305 170.806C272.244 169.901 271.932 169.04 271.413 168.349C270.441 167.104 268.915 166.636 267.461 166.445C266.545 166.324 265.621 166.286 264.699 166.334" fill="#E43B4E"/>
<path d="M122.241 141.229L115.996 130.936C115.996 130.936 115.879 128.387 115.47 127.793C115.062 127.2 115.382 125.875 115.382 125.875C115.382 125.875 115.822 125.155 115.442 125.08C115.062 125.004 115.382 123.392 115.382 123.392L115.353 120.811C115.353 120.811 115.705 118.327 115.413 117.734C115.327 117.572 115.284 117.386 115.289 117.198C115.294 117.01 115.347 116.827 115.442 116.672C115.442 116.672 115.79 115.25 115.442 114.872C115.094 114.494 115.179 112.292 115.265 110.535C115.35 108.779 114.653 107.789 114.653 107.526C114.653 107.264 112.348 104.679 112.348 104.445C112.348 104.211 110.888 103.254 110.011 103.006C109.133 102.757 108.7 102.541 108.728 102.408C108.757 102.275 107.357 101.75 107.357 101.75C107.357 101.75 106.131 101.649 105.663 100.954C105.194 100.259 103.762 100.058 103.728 100.051L103.699 99.9139C103.699 99.8636 103.683 99.8132 103.674 99.7628C103.789 99.5534 103.895 99.3371 103.99 99.1149L104.073 98.9134C104.586 98.9171 105.087 98.7398 105.507 98.4059C105.714 98.2108 105.884 97.969 106.004 97.6958C106.124 97.4226 106.194 97.1239 106.207 96.8186C106.232 96.2068 106.114 95.5983 105.865 95.055C105.609 94.4612 105.232 93.8421 105.365 93.1942C105.422 92.9171 105.568 92.6724 105.644 92.3988C105.757 91.8648 105.682 91.3015 105.435 90.8296C105.213 90.3509 104.906 89.9262 104.659 89.4619C104.345 88.8674 104.136 88.21 104.041 87.5255C104.024 87.1613 103.947 86.8039 103.816 86.4709C103.684 86.2363 103.509 86.0363 103.303 85.8842C102.389 85.1434 101.287 84.764 100.165 84.8045C99.37 84.8333 98.5815 85.078 97.7897 84.9664C97.3181 84.8743 96.854 84.737 96.4027 84.5561C95.4241 84.225 94.2935 84.0918 93.4416 84.7289C92.5897 85.366 92.2509 86.6185 91.6714 87.6083C91.1615 88.4721 90.4046 89.1991 90.0246 90.1277C90.0246 90.1277 90.0246 90.0917 90.0246 90.0773C89.9289 90.2887 89.8556 90.5122 89.8061 90.7432C89.6973 91.4765 89.7418 92.2285 89.9359 92.9387C89.9788 93.321 90.1474 93.6708 90.4078 93.9177C90.696 94.13 91.0918 94.0796 91.4275 94.148L91.3895 94.3352C91.0477 96.1957 91.3337 98.1342 92.1908 99.7663C93.0478 101.398 94.4133 102.605 96.0163 103.146C96.0163 103.214 96.0163 103.279 96.0163 103.348C96.0156 103.538 96.005 103.728 95.9846 103.916C95.9846 103.916 93.0489 103.229 92.2604 103.693C91.4718 104.157 89.9264 104.521 89.6921 104.773C89.4577 105.025 88.875 104.841 88.3493 106.396C87.8236 107.951 87.7666 109.538 87.0826 110.269C86.3985 111 86.0628 111.493 86.0312 112.022C85.9995 112.551 86.1198 112.684 85.857 112.849C85.5941 113.015 85.2236 113.71 85.3313 113.976C85.3716 114.158 85.3629 114.35 85.3065 114.526C85.25 114.703 85.1484 114.856 85.0146 114.966C84.8761 115.076 84.7655 115.226 84.6938 115.401C84.6221 115.575 84.5919 115.768 84.6061 115.959C84.6061 115.959 84.4287 116.679 84.0202 116.855C83.6117 117.032 83.3488 118.112 83.3488 118.112L82.0251 119.839L79.4029 116.542C79.2059 116.296 78.9312 116.148 78.6386 116.131C78.3461 116.114 78.0595 116.23 77.8416 116.452L76.5527 117.77C76.056 117.907 75.607 118.21 75.2638 118.641C74.9845 118.97 74.7583 119.352 74.5956 119.771L73.8926 120.491C73.6704 120.803 73.5345 121.184 73.5018 121.584C73.4692 121.984 73.5412 122.386 73.7089 122.74L75.3905 124.853V124.871C74.7948 124.93 74.2286 125.193 73.7659 125.623C71.2577 128.143 71.2324 130.457 71.6061 131.515C71.9798 132.573 75.1656 136.644 75.1656 136.644C75.1656 136.644 77.0151 139.376 79.6848 140.826L79.6658 140.851C79.6108 140.916 79.559 140.985 79.5106 141.056L79.4662 141.121L79.4251 141.186L79.3776 141.265C79.3648 141.286 79.3532 141.308 79.3427 141.33L79.2921 141.424C79.2803 141.444 79.2697 141.466 79.2604 141.488C79.2382 141.532 79.2192 141.575 79.2002 141.618C79.1933 141.632 79.1869 141.646 79.1812 141.661C79.1559 141.719 79.1306 141.776 79.1084 141.841L79.0831 141.906C79.0672 141.949 79.0546 141.992 79.0387 142.039C79.0289 142.067 79.0204 142.096 79.0134 142.125L78.9754 142.255C78.9651 142.286 78.9566 142.317 78.95 142.349C78.95 142.395 78.9247 142.442 78.9152 142.493C78.9057 142.543 78.8994 142.55 78.893 142.583C78.8867 142.615 78.8614 142.737 78.8487 142.82C78.8487 142.849 78.8487 142.881 78.8329 142.914C78.817 142.946 78.817 143.025 78.8075 143.083C78.798 143.14 78.8075 143.162 78.8075 143.205L78.7885 143.367V143.497C78.7885 143.558 78.7885 143.619 78.7727 143.684C78.7569 143.749 78.7727 143.759 78.7727 143.799C78.7727 143.903 78.7727 144.008 78.7727 144.119C78.7157 147.992 78.9152 148.554 78.9152 148.554C79.0455 148.911 79.2579 149.223 79.5304 149.455C79.8028 149.687 80.1252 149.832 80.4638 149.875C80.6299 149.889 80.7971 149.88 80.961 149.846C82.4811 149.547 86.028 148.852 87.2947 149.126C88.0516 149.284 89.4482 149.047 90.4426 148.834L90.7055 148.777L90.886 149.435L91.4623 149.255L91.9532 149.576L92.2699 149.781C92.8463 151.998 95.1834 151.242 95.1834 151.242L95.7376 151.602L101.371 151.768C102.004 152.201 102.672 152.562 103.367 152.847C103.458 152.882 103.553 152.906 103.648 152.919C104.175 152.968 104.704 152.979 105.232 152.952C105.663 152.952 105.995 152.919 105.995 152.919C105.995 152.919 105.938 151.181 105.856 149.234C107.602 149.185 109.345 149.023 111.075 148.748C114.083 148.151 115.337 145.041 115.8 143.378C115.938 144.057 116.036 144.746 116.094 145.44C116.217 146.051 116.374 146.652 116.563 147.24C116.724 147.71 116.937 148.155 117.196 148.564C119.413 147.704 118.07 146.405 117.605 145.851C117.139 145.296 117.922 144.825 117.922 144.825C117.922 144.825 118.536 144.361 118.476 143.932C118.416 143.504 118.387 143.04 120.376 143.072C122.365 143.104 122.241 141.229 122.241 141.229ZM91.4212 120.098C91.4465 120.285 91.7379 122.326 91.9722 122.862C92.0421 123.217 92.0646 123.581 92.0387 123.942C90.8638 123.834 89.6382 123.777 89.6382 123.777C89.6727 123.825 89.6946 123.884 89.7016 123.946L89.5147 123.899L89.2487 123.827L91.4148 120.08L91.4212 120.098ZM87.1269 127.858L89.1632 128.218L89.3342 128.247C89.2766 128.604 89.2417 128.964 89.2297 129.327C89.2297 129.363 89.274 129.402 89.3405 129.449C89.3122 129.631 89.2995 129.815 89.3025 130C89.3342 130.18 90.2843 130.576 91.3768 130.903C91.361 130.971 91.3483 131.036 91.3325 131.094C90.3666 130.518 88.8497 130.248 88.6755 129.82C88.5013 129.391 83.333 127.34 83.333 127.34L82.82 127.048L84.1785 127.34L84.5522 127.297C85.3988 127.547 86.2589 127.735 87.1269 127.858Z" fill="url(#paint0_linear_673_103915)"/>
<path d="M115.597 142.669C115.597 142.669 114.79 148.226 110.682 149.047C106.575 149.867 92.8621 149.705 92.8621 149.705C92.8621 149.705 85.0209 148.421 82.1866 140.895C79.3523 133.369 77.5281 130.37 79.9698 130.241C82.4114 130.111 95.5065 135.28 96.257 135.337C97.0076 135.395 116.322 123.896 115.597 142.669Z" fill="#65617D"/>
<path opacity="0.05" d="M115.597 142.669C115.597 142.669 114.79 148.226 110.682 149.047C106.575 149.867 92.8621 149.705 92.8621 149.705C92.8621 149.705 85.0209 148.421 82.1866 140.895C79.3523 133.369 77.5281 130.37 79.9698 130.241C82.4114 130.111 95.5065 135.28 96.257 135.337C97.0076 135.395 116.322 123.896 115.597 142.669Z" fill="black"/>
<path d="M78.8263 148.856C78.9536 149.212 79.1633 149.522 79.4332 149.753C79.703 149.984 80.023 150.128 80.359 150.17C80.5253 150.181 80.6922 150.17 80.8562 150.137C82.3605 149.842 85.8884 149.151 87.133 149.417C87.8804 149.572 89.2643 149.338 90.2492 149.129C90.9047 148.989 91.3861 148.856 91.3861 148.856C91.3861 148.856 90.227 144.483 90.0845 144.353C89.942 144.224 84.875 140.754 84.875 140.754L80.8657 140.427C80.326 140.518 79.8382 140.843 79.504 141.334C79.0828 141.917 78.7186 142.87 78.6933 144.436C78.6268 148.291 78.8263 148.856 78.8263 148.856Z" fill="#3F3D56"/>
<path opacity="0.05" d="M78.8265 148.856C78.9538 149.212 79.1636 149.522 79.4334 149.753C79.7033 149.985 80.0232 150.128 80.3593 150.17C79.9666 149.594 79.6029 148.993 79.2699 148.37L79.2921 145.181C79.2124 144.307 79.3141 143.423 79.5891 142.601C79.8641 141.779 80.3046 141.042 80.8755 140.448C80.8755 140.448 78.7632 140.61 78.703 144.458C78.6429 148.305 78.8265 148.856 78.8265 148.856Z" fill="black"/>
<path opacity="0.1" d="M96.2156 141.881L99.9493 138.559L105.821 131.983L104.237 131.9C104 132.073 103.335 132.62 103.309 133.275C103.281 134.078 101.726 133.333 100.912 133.79C100.098 134.247 96.1396 140.016 95.446 139.977C94.7525 139.937 94.2015 139.577 93.9101 140.139L93.8911 140.175L96.2156 141.881Z" fill="black"/>
<path opacity="0.1" d="M79.4946 141.341C79.6276 141.413 79.7638 141.485 79.9 141.55C82.7343 142.932 86.2337 145.825 86.4966 146.351C86.6549 146.671 88.6849 148.071 90.2493 149.122C90.9049 148.982 91.3862 148.849 91.3862 148.849C91.3862 148.849 90.2271 144.476 90.0846 144.346C89.9421 144.217 84.8751 140.747 84.8751 140.747L80.8659 140.419C80.3207 140.512 79.8288 140.843 79.4946 141.341Z" fill="black"/>
<path d="M71.6284 131.918C72.0021 132.969 75.1563 137.015 75.1563 137.015C75.1563 137.015 77.1514 139.973 79.9889 141.334C82.8265 142.694 86.3227 145.609 86.5824 146.135C86.7502 146.473 89.0113 148.021 90.6011 149.083L90.959 149.32L91.7475 149.842L92.1655 150.112C92.1655 150.112 93.1346 149.23 94.1005 148.341C95.0664 147.452 96.0006 146.581 96.0006 146.542C96.0006 146.502 96.406 145.325 96.3173 145.26C96.2286 145.196 96.0735 144.771 95.7061 144.242C95.3184 143.655 94.8137 143.181 94.2335 142.86C93.3942 142.369 92.7247 141.572 92.3334 140.596C92.3334 140.596 92.2067 140.491 92.0167 140.351C91.6228 140.043 91.1828 139.82 90.7183 139.692C90.0849 139.602 88.8942 138.123 88.8942 138.123C88.4311 137.78 88.045 137.319 87.7668 136.777C87.4501 136.057 82.9753 132.551 82.5604 132.228L93.4355 140.167L96.0386 142.068L99.7724 138.749L105.644 132.174L103.706 132.073C100.855 131.932 95.7884 131.713 95.1551 131.878C94.6363 132.014 94.1016 132.054 93.5716 131.997C93.5716 131.997 92.1275 132.069 91.1712 131.497C90.2148 130.925 88.7105 130.655 88.5363 130.23C88.3621 129.805 83.2445 127.768 83.2445 127.768C83.2445 127.768 76.2774 123.561 73.785 126.059C71.2927 128.556 71.2516 130.86 71.6284 131.918Z" fill="#65617D"/>
<path d="M94.1035 107.785L94.9997 111.172L96.1588 118.799L100.412 119.127L101.628 116.823L102.857 114.505C102.857 114.505 103.623 111.424 104.174 108.444C104.659 105.806 104.979 103.243 104.45 102.966C103.978 102.721 103.671 101.832 103.468 100.875C103.443 100.76 103.42 100.637 103.401 100.515C103.26 99.7059 103.164 98.8872 103.116 98.064C103.116 98.064 94.208 97.5385 95.4526 101.714C95.6746 102.427 95.7881 103.178 95.7883 103.934C95.7883 104.129 95.7883 104.319 95.7566 104.499C95.6949 105.147 95.5162 105.773 95.2317 106.338C94.9473 106.904 94.5632 107.396 94.1035 107.785Z" fill="#EE8E9E"/>
<path d="M92.2539 107.228L92.5706 112.986L93.2926 117.885L94.1034 120.156L94.8286 132.566C94.8286 132.566 101.796 133.484 103.499 132.548C103.625 132.493 103.735 132.4 103.816 132.278C105.865 128.762 105.194 118.576 105.194 118.576L105.973 112L105.453 108.588L104.187 108.437L103.218 108.318C103.218 108.318 102.999 108.624 102.682 109.099C101.824 110.384 100.247 112.918 100.355 113.973C100.497 115.412 100.181 116.899 99.6865 117.129C99.1925 117.359 98.7903 117.755 98.7048 117.359C98.5817 117.028 98.5508 116.661 98.6161 116.308C98.7048 115.747 98.2393 114.037 98.2393 114.037C98.2393 114.037 97.4602 112.033 97.5172 111.18C97.5742 110.327 97.4317 109.337 97.2006 109.106C96.9694 108.876 96.6495 108.646 96.9092 107.595C97.1689 106.544 95.7691 104.496 95.7691 104.496L92.2539 107.228Z" fill="#E3E8F4"/>
<path opacity="0.1" d="M101.466 121.596L101.758 131.425L103.427 132.48C103.552 132.422 103.661 132.328 103.743 132.206C105.792 128.69 105.121 118.504 105.121 118.504L105.903 111.928L105.381 108.516L104.114 108.365C104.602 105.727 104.918 103.168 104.389 102.887C103.918 102.642 103.61 101.753 103.411 100.799L102.508 107.753C102.508 107.753 102.584 108.379 102.61 109.027C102.647 109.437 102.622 109.851 102.537 110.251C102.42 110.789 102.4 111.349 102.48 111.896C101.957 112.939 101.698 114.876 101.571 116.744C101.4 119.227 101.466 121.596 101.466 121.596Z" fill="black"/>
<path d="M103.436 100.626C103.436 100.626 104.896 100.832 105.358 101.523C105.821 102.214 107.037 102.314 107.037 102.314C107.037 102.314 108.424 102.84 108.395 102.97C108.367 103.099 108.801 103.301 109.662 103.563C110.524 103.826 111.977 104.78 111.977 105.003C111.977 105.226 114.261 107.796 114.261 108.059C114.261 108.322 114.954 109.308 114.869 111.05C114.783 112.792 114.694 115.009 115.043 115.369C115.391 115.729 115.043 117.143 115.043 117.143C114.949 117.297 114.897 117.479 114.892 117.666C114.887 117.853 114.929 118.038 115.014 118.198C115.302 118.788 114.954 121.254 114.954 121.254L114.986 123.82C114.986 123.82 114.669 125.429 115.043 125.497C115.416 125.565 114.986 126.285 114.986 126.285C114.986 126.285 114.669 127.599 115.071 128.193C115.473 128.787 115.591 131.313 115.591 131.313L121.782 141.539C121.782 141.539 121.871 143.414 119.904 143.381C117.937 143.349 117.963 143.81 118.023 144.234C118.083 144.659 117.472 145.123 117.472 145.123C117.472 145.123 116.693 145.584 117.155 146.142C117.617 146.7 118.947 147.985 116.75 148.838C116.491 148.432 116.278 147.991 116.116 147.524C115.93 146.944 115.776 146.351 115.654 145.75C115.654 145.75 115.451 143.248 115.046 142.921C114.641 142.593 114.698 141.013 114.698 141.013C114.698 141.013 115.277 139.732 114.466 139.214C113.656 138.695 101.913 131.295 101.913 131.295L101.628 121.462C101.628 121.462 101.425 114.195 102.641 111.762C102.562 111.215 102.581 110.656 102.698 110.118C102.901 109.527 102.67 107.62 102.67 107.62L103.436 100.626Z" fill="#3F3D56"/>
<path opacity="0.1" d="M95.8548 104.586C95.8548 104.586 92.9476 103.905 92.1654 104.366C91.3832 104.827 89.8536 105.187 89.6319 105.446C89.4102 105.705 88.8243 105.514 88.3018 107.058C87.7793 108.602 87.7254 110.182 87.0572 110.906C86.389 111.629 86.047 112.122 86.0185 112.648C85.99 113.173 86.104 113.307 85.8443 113.469C85.5846 113.63 85.2109 114.325 85.3218 114.588C85.4326 114.851 91.3388 120.638 91.3388 120.638C91.3388 120.638 91.6302 122.841 91.8899 123.399C92.1495 123.957 91.6017 131.652 91.0221 132.177C90.4426 132.703 94.9142 132.659 94.9142 132.659C94.9142 132.659 95.1169 127.621 95.2911 127.347C95.4653 127.074 95.1739 121.693 95.1739 121.693C95.1739 121.693 95.1454 117.089 95.5223 115.873C95.8991 114.656 95.8389 110.611 95.8389 110.611C95.8389 110.611 96.1715 108.185 96.5768 107.62C96.9822 107.055 95.8548 104.586 95.8548 104.586Z" fill="black"/>
<path d="M95.7691 104.489C95.7691 104.489 92.8619 103.808 92.0797 104.265C91.2974 104.722 89.7647 105.09 89.5462 105.345C89.3276 105.601 88.7354 105.41 88.2161 106.958C87.6967 108.505 87.6365 110.078 86.9715 110.802C86.3065 111.525 85.9581 112.018 85.9296 112.544C85.9011 113.069 86.0183 113.202 85.7554 113.368C85.4926 113.533 85.122 114.221 85.236 114.484C85.3501 114.746 91.2531 120.534 91.2531 120.534C91.2531 120.534 91.5413 122.737 91.8041 123.294C92.067 123.852 91.5128 131.547 90.9333 132.073C90.3537 132.598 94.8412 132.552 94.8412 132.552C94.8412 132.552 95.0438 127.513 95.2149 127.243C95.3859 126.973 95.1009 121.585 95.1009 121.585C95.1009 121.585 95.0723 116.985 95.4492 115.768C95.8261 114.552 95.7817 110.506 95.7817 110.506C95.7817 110.506 96.1142 108.081 96.5196 107.515C96.925 106.95 95.7691 104.489 95.7691 104.489Z" fill="#3F3D56"/>
<path opacity="0.1" d="M95.4651 101.706C95.6871 102.42 95.8006 103.171 95.8008 103.927C97.2218 104.4 98.7411 104.321 100.118 103.701C101.495 103.082 102.65 101.958 103.401 100.508C103.259 99.6987 103.164 98.88 103.116 98.0568C103.116 98.0568 94.2205 97.5277 95.4651 101.706Z" fill="black"/>
<path d="M91.0664 96.5091C91.0653 98.4388 91.7158 100.295 92.8837 101.696C94.0516 103.097 95.6479 103.934 97.3435 104.037C99.039 104.139 100.704 103.498 101.996 102.246C103.288 100.993 104.108 99.2253 104.286 97.3063C104.465 95.3873 103.989 93.4636 102.956 91.932C101.923 90.4003 100.412 89.3775 98.7356 89.0745C97.0588 88.7714 95.3436 89.2112 93.9437 90.3033C92.5439 91.3953 91.5661 93.0562 91.2121 94.9434C91.115 95.458 91.0662 95.9828 91.0664 96.5091Z" fill="#EE8E9E"/>
<path d="M86.8132 113.944L85.2297 114.501C85.2702 114.683 85.2616 114.874 85.2051 115.05C85.1487 115.226 85.0469 115.378 84.913 115.488C84.7753 115.597 84.6655 115.746 84.5948 115.919C84.5241 116.092 84.4952 116.284 84.5109 116.474C84.5109 116.474 84.3367 117.194 83.9313 117.363C83.526 117.532 83.2663 118.612 83.2663 118.612L81.9362 120.354C81.9362 120.354 81.4422 120.814 81.5308 121.045C81.6195 121.275 81.0083 121.34 81.0083 121.34L81.325 127.192L84.0738 127.786L85.7808 127.588L87.1679 126.998L88.3839 126.174L88.9318 124.565L91.364 120.354L86.8132 113.944Z" fill="#3F3D56"/>
<path d="M81.4043 121.79C81.4043 121.79 77.8764 116.006 75.2416 119.126C72.6067 122.247 76.312 127.315 77.1797 127.149C78.0474 126.983 82.1865 126.721 82.1865 126.721L81.4043 121.79Z" fill="#EE8E9E"/>
<path d="M89.7155 119.289L74.1312 110.249C73.8913 110.109 73.5975 110.218 73.4751 110.49L67.3981 124.022C67.2757 124.295 67.3709 124.628 67.6108 124.768L83.1951 133.808C83.435 133.947 83.7288 133.839 83.8512 133.566L89.9282 120.034C90.0506 119.762 89.9554 119.428 89.7155 119.289Z" fill="#3F3D56"/>
<path d="M88.2659 120.093L74.436 112.07L69.1164 123.916L82.9462 131.938L88.2659 120.093Z" fill="#E43B4E"/>
<path d="M71.245 117.967C71.385 117.967 71.4984 117.839 71.4984 117.68C71.4984 117.521 71.385 117.392 71.245 117.392C71.1051 117.392 70.9917 117.521 70.9917 117.68C70.9917 117.839 71.1051 117.967 71.245 117.967Z" fill="#E6E8EC"/>
<path d="M86.2146 126.876C86.4473 126.876 86.6358 126.661 86.6358 126.397C86.6358 126.133 86.4473 125.918 86.2146 125.918C85.982 125.918 85.7935 126.133 85.7935 126.397C85.7935 126.661 85.982 126.876 86.2146 126.876Z" fill="#E6E8EC"/>
<path d="M79.1212 123.006C79.0895 127.347 86.9877 128.268 86.9877 128.268L89.005 128.628L89.9107 128.79L90.2876 124.55C90.2876 124.55 89.8727 124.479 89.3565 124.342C88.5901 124.14 87.5989 123.791 87.393 123.298C87.0605 122.481 79.1434 118.666 79.1212 123.006Z" fill="#EE8E9E"/>
<path opacity="0.1" d="M91.2119 94.9434C91.3935 94.9587 91.5648 95.0452 91.6965 95.1882C91.9181 95.4581 91.9308 95.9368 92.2221 96.1024C92.3311 96.1546 92.451 96.1696 92.5673 96.1455C93.3369 96.0232 93.7802 95.037 94.5213 94.7635C94.9521 94.6376 95.4077 94.6821 95.8134 94.8894C95.9782 94.9501 96.1265 95.0579 96.2441 95.2026C96.4911 95.5625 96.3169 96.1024 96.4309 96.5415C96.5893 97.1533 97.2321 97.3945 97.7863 97.4737C98.3405 97.5528 98.9676 97.5996 99.3381 98.0747C99.4607 98.2528 99.5487 98.4585 99.5962 98.6782C99.6437 98.8978 99.6496 99.1264 99.6136 99.3489C99.5803 99.5037 99.5803 99.6655 99.6136 99.8203C99.7656 100.313 100.516 100.238 100.713 99.8491C100.858 99.5648 100.814 99.3308 101.153 99.2517C101.395 99.2298 101.638 99.2781 101.859 99.392C102.448 99.622 103.069 99.7304 103.693 99.7124C104.089 98.7516 104.302 97.7066 104.318 96.6456C104.334 95.5847 104.153 94.5319 103.786 93.5562C103.419 92.5805 102.875 91.704 102.189 90.9842C101.503 90.2643 100.691 89.7173 99.8059 89.3791C98.9209 89.0409 97.9831 88.919 97.0538 89.0216C96.1246 89.1241 95.2249 89.4487 94.4137 89.9741C93.6026 90.4995 92.8983 91.2138 92.3471 92.0702C91.7958 92.9266 91.4101 93.9057 91.2151 94.9434H91.2119Z" fill="black"/>
<path d="M99.6107 99.6223C99.5775 99.4674 99.5775 99.3057 99.6107 99.1508C99.6468 98.929 99.641 98.7009 99.5935 98.4818C99.546 98.2627 99.4579 98.0577 99.3352 97.8803C98.9646 97.4016 98.3408 97.3584 97.7834 97.2757C97.226 97.1929 96.5863 96.9553 96.428 96.3435C96.314 95.9044 96.4881 95.3681 96.2411 95.0082C96.1254 94.861 95.9765 94.7527 95.8104 94.695C95.4051 94.4867 94.9495 94.4411 94.5183 94.5655C93.7773 94.839 93.3339 95.8252 92.5644 95.9476C92.4481 95.9734 92.3277 95.9583 92.2192 95.9044C91.9279 95.7388 91.9025 95.2601 91.6935 94.9902C91.342 94.5691 90.6738 94.8426 90.2462 94.5295C89.987 94.2835 89.8194 93.9349 89.7775 93.5541C89.586 92.8483 89.5427 92.1013 89.6509 91.373C89.9011 90.1528 90.8638 89.3142 91.475 88.2668C92.0482 87.2951 92.3712 86.0641 93.2294 85.4199C94.0877 84.7756 95.1929 84.9196 96.1651 85.2471C96.6121 85.4284 97.0719 85.5656 97.5395 85.6574C98.3218 85.7654 99.1071 85.5243 99.8925 85.4955C101.006 85.4546 102.099 85.8343 103.002 86.5752C103.206 86.7262 103.379 86.925 103.509 87.1583C103.64 87.4891 103.717 87.8438 103.737 88.2057C103.83 88.8852 104.037 89.5379 104.348 90.1276C104.589 90.5919 104.896 91.0094 105.115 91.4881C105.359 91.9574 105.434 92.5159 105.324 93.0466C105.248 93.3165 105.102 93.5613 105.045 93.8384C104.918 94.4791 105.289 95.0945 105.542 95.6848C105.789 96.2251 105.906 96.8297 105.881 97.4376C105.868 97.7406 105.799 98.0371 105.68 98.3084C105.56 98.5798 105.393 98.82 105.188 99.0141C104.757 99.3532 104.245 99.5307 103.721 99.5216C103.087 99.5435 102.454 99.435 101.853 99.2012C101.631 99.089 101.389 99.0408 101.147 99.0609C100.808 99.14 100.852 99.374 100.706 99.6583C100.513 100.04 99.7658 100.115 99.6107 99.6223Z" fill="#3F3D56"/>
<path opacity="0.1" d="M96.0416 142.075L99.7754 138.757L105.647 132.181L103.709 132.08C103.481 132.314 103.336 132.634 103.3 132.98C103.272 133.783 101.717 133.034 100.903 133.495C100.089 133.955 96.1303 139.721 95.4368 139.682C94.7432 139.642 94.1922 139.282 93.9008 139.84L93.8818 139.876C93.7663 140.027 93.6108 140.132 93.4385 140.175L96.0416 142.075Z" fill="black"/>
<path d="M88.5205 141.845L90.3953 148.651L90.6898 149.73L91.5829 149.453L93.5527 148.838L102.319 146.102C103.423 146.048 104.503 145.721 105.485 145.145C107.143 144.09 109.039 143.62 110.932 143.795C112.092 143.918 113.38 143.349 114.451 141.103C114.451 141.103 116.88 132.951 110.749 130.615C104.618 128.279 104.323 131.857 104.323 131.857L104.238 131.914C104 132.087 103.335 132.634 103.31 133.289C103.281 134.092 101.726 133.347 100.912 133.804C100.099 134.261 96.14 140.031 95.4465 139.991C94.7529 139.951 94.2019 139.591 93.9105 140.153L93.8915 140.189C93.6762 140.524 93.0333 140.603 92.6058 140.614C92.4729 140.622 92.3397 140.622 92.2067 140.614L92.1497 140.632L91.7064 140.783L88.5205 141.845Z" fill="#65617D"/>
<path opacity="0.1" d="M89.0049 128.632L89.9106 128.794L90.2875 124.554C90.2875 124.554 89.8726 124.482 89.3564 124.345C89.4926 124.939 89.1822 127.225 89.0049 128.632Z" fill="black"/>
<path opacity="0.1" d="M112.661 108.815C112.661 108.815 115.35 107.926 114.685 116.607C114.223 121.906 112.241 126.885 109.045 130.777C109.045 130.777 103.316 133.635 100.741 133.174C98.1665 132.714 96.2885 132.616 96.2885 132.616C95.4773 132.151 94.5897 131.882 93.6822 131.828C92.2381 131.763 89.2011 130.748 89.1409 130.414C89.0807 130.079 89.8946 125.252 89.5462 124.893C89.5462 124.893 93.5967 125.08 94.002 125.411C94.4074 125.742 94.9869 125.508 95.4208 125.411C95.8546 125.314 97.1847 124.004 99.8164 125.155C99.8164 125.155 100.713 125.252 101.061 124.99C101.345 124.839 101.668 124.816 101.967 124.925C102.192 124.84 102.405 124.719 102.6 124.565C102.686 124.435 103.382 124.565 103.382 124.565C103.424 124.586 103.469 124.597 103.514 124.596C103.56 124.596 103.604 124.584 103.646 124.563C103.687 124.541 103.723 124.509 103.753 124.47C103.782 124.43 103.804 124.384 103.816 124.335C103.908 124.066 104.046 123.822 104.222 123.615C104.222 123.615 105.001 118.619 106.476 116.744C106.594 116.627 106.685 116.479 106.74 116.312C106.795 116.146 106.813 115.966 106.793 115.79C106.673 115.257 109.19 107.76 112.661 108.815Z" fill="black"/>
<path d="M112.588 108.145C112.588 108.145 115.28 107.26 114.615 115.938C114.155 121.237 112.173 126.216 108.975 130.108C108.975 130.108 103.246 132.969 100.671 132.508C98.0968 132.048 96.2157 131.94 96.2157 131.94C95.4057 131.474 94.5191 131.205 93.6125 131.152C92.1653 131.083 89.1283 130.072 89.0713 129.737C89.0143 129.402 89.8218 124.576 89.4766 124.212C89.4766 124.212 93.527 124.403 93.9324 124.734C94.3378 125.065 94.9141 124.828 95.348 124.734C95.7819 124.641 97.1119 123.327 99.7468 124.475C99.7468 124.475 100.643 124.576 100.988 124.313C101.272 124.164 101.595 124.139 101.894 124.245C102.118 124.158 102.331 124.037 102.527 123.885C102.613 123.752 103.306 123.885 103.306 123.885C103.348 123.906 103.393 123.916 103.438 123.916C103.484 123.916 103.528 123.904 103.57 123.882C103.611 123.86 103.647 123.829 103.677 123.789C103.706 123.75 103.728 123.704 103.74 123.654C103.832 123.386 103.97 123.141 104.146 122.935C104.146 122.935 104.928 117.939 106.404 116.064C106.521 115.947 106.612 115.798 106.667 115.632C106.722 115.466 106.741 115.286 106.72 115.11C106.603 114.592 109.118 107.105 112.588 108.145Z" fill="#3F3D56"/>
<path opacity="0.1" d="M91.6968 140.765L95.516 146.02L95.5413 145.991C95.5699 145.89 95.9467 144.774 95.858 144.706C95.7694 144.638 95.1075 142.996 93.7774 142.305C93.1009 141.931 92.5328 141.344 92.1401 140.614L91.6968 140.765Z" fill="black"/>
<path opacity="0.1" d="M91.7472 149.86L92.1653 150.13C92.1653 150.13 93.1343 149.248 94.1002 148.359C95.0661 147.47 96.0003 146.599 96.0003 146.56C96.0003 146.52 96.4057 145.343 96.317 145.278C96.2284 145.214 96.0732 144.789 95.7058 144.26C93.1153 143.436 94.7558 145.48 94.9838 145.574C94.9838 145.574 91.8327 144.749 91.6586 148.654C91.6435 149.059 91.6733 149.464 91.7472 149.86Z" fill="black"/>
<path d="M94.9427 151.512L95.4937 151.872L101.077 152.034C101.703 152.467 102.365 152.828 103.053 153.114C103.144 153.145 103.237 153.168 103.332 153.182C103.85 153.23 104.37 153.241 104.89 153.215C105.317 153.215 105.647 153.182 105.647 153.182C105.647 153.182 105.384 145.181 105.184 144.339C105.089 143.936 104.621 144.022 104.158 144.224C103.812 144.385 103.477 144.578 103.158 144.8C103.158 144.8 100.789 145.062 100.412 145.293C100.035 145.523 98.9646 145.16 98.2996 145.293C97.6345 145.426 96.447 144.404 96.447 144.404C93.2073 143.187 95.0314 145.455 95.2626 145.555C95.2626 145.555 92.0957 144.731 91.9342 148.636C91.7727 152.542 94.9427 151.512 94.9427 151.512Z" fill="#3F3D56"/>
<path d="M103.015 148.424C103.075 150.08 104.212 152.135 104.89 153.222C105.317 153.222 105.647 153.189 105.647 153.189C105.647 153.189 105.384 145.188 105.184 144.346C105.089 143.943 104.621 144.03 104.158 144.231C103.598 145.426 102.964 147.085 103.015 148.424Z" fill="#565387"/>
<path opacity="0.1" d="M103.015 148.424C103.075 150.08 104.212 152.135 104.89 153.222C105.317 153.222 105.647 153.189 105.647 153.189C105.647 153.189 105.384 145.188 105.184 144.346C105.089 143.943 104.621 144.03 104.158 144.231C103.598 145.426 102.964 147.085 103.015 148.424Z" fill="black"/>
<path opacity="0.05" d="M102.058 148.644C102.445 150.242 102.438 152.034 103.053 153.121C103.144 153.152 103.237 153.175 103.332 153.189C103.85 153.238 104.37 153.248 104.89 153.222C105.317 153.222 105.647 153.189 105.647 153.189C105.647 153.189 105.384 145.188 105.184 144.346C105.089 143.943 104.62 144.03 104.158 144.231C103.811 144.392 103.477 144.585 103.157 144.807C103.157 144.807 101.568 146.596 102.058 148.644Z" fill="black"/>
<path opacity="0.1" d="M82.7979 132.422C82.7979 132.422 85.572 133.444 87.9218 137.079L82.7979 132.422Z" fill="black"/>
<g opacity="0.1">
<path d="M105.333 92.9673C105.333 92.9925 105.333 93.0141 105.317 93.0393C105.291 93.1331 105.258 93.2245 105.219 93.3128C105.25 93.1946 105.288 93.0791 105.333 92.9673Z" fill="black"/>
<path d="M89.6445 91.3729C89.6915 91.1428 89.7639 90.9203 89.8599 90.7107C89.8599 90.7647 89.8282 90.8223 89.8155 90.8799C89.71 91.6085 89.7544 92.3551 89.9454 93.061C89.9874 93.441 90.1535 93.7891 90.4109 94.0364C90.8416 94.3495 91.5098 94.0759 91.8613 94.4971C92.083 94.767 92.0957 95.2457 92.387 95.4113C92.4956 95.4652 92.616 95.4803 92.7322 95.4544C93.5018 95.3321 93.9451 94.3459 94.6862 94.0724C95.1172 93.9462 95.5733 93.9919 95.9783 94.2019C96.1443 94.2596 96.2933 94.3679 96.4089 94.515C96.656 94.875 96.4818 95.4113 96.5958 95.8504C96.7541 96.4622 97.397 96.7034 97.9512 96.7826C98.5054 96.8617 99.1325 96.9085 99.503 97.3872C99.6257 97.5646 99.7138 97.7696 99.7613 97.9887C99.8088 98.2078 99.8147 98.4359 99.7785 98.6577C99.7453 98.8126 99.7453 98.9743 99.7785 99.1292C99.9305 99.6223 100.681 99.5467 100.877 99.158C101.023 98.8737 100.979 98.6397 101.318 98.5606C101.56 98.5405 101.802 98.5887 102.024 98.7009C102.625 98.9347 103.258 99.0432 103.892 99.0213C104.416 99.0304 104.928 98.8529 105.359 98.5138C105.547 98.3459 105.7 98.1334 105.808 97.8911C105.71 98.3319 105.488 98.7239 105.175 99.0069C104.745 99.346 104.232 99.5235 103.709 99.5143C103.074 99.5363 102.441 99.4278 101.84 99.194C101.618 99.0818 101.376 99.0336 101.134 99.0536C100.795 99.1328 100.839 99.3668 100.697 99.6511C100.497 100.04 99.7468 100.115 99.5948 99.6223C99.5632 99.4672 99.5632 99.3059 99.5948 99.1508C99.631 98.929 99.6251 98.7009 99.5776 98.4818C99.5301 98.2627 99.442 98.0577 99.3193 97.8803C98.9488 97.4016 98.3249 97.3584 97.7675 97.2756C97.2102 97.1929 96.5705 96.9553 96.4121 96.3434C96.2981 95.9043 96.4723 95.3681 96.2253 95.0081C96.1104 94.8615 95.9626 94.7533 95.7977 94.695C95.3913 94.4867 94.9347 94.4411 94.5025 94.5654C93.7646 94.839 93.3181 95.8252 92.5485 95.9475C92.4323 95.9733 92.3119 95.9583 92.2033 95.9043C91.912 95.7388 91.8867 95.2601 91.6776 94.9901C91.3261 94.569 90.6611 94.8426 90.2304 94.5294C89.9711 94.2835 89.8036 93.9349 89.7617 93.5541C89.5734 92.8474 89.5332 92.1004 89.6445 91.3729Z" fill="black"/>
</g>
<path opacity="0.1" d="M105.783 117.69C105.251 118.504 104.646 119.256 104.177 120.113C103.668 120.957 103.421 121.97 103.474 122.992C103.959 122.427 104.184 121.642 104.488 120.933C105.007 119.731 105.78 118.713 106.435 117.611C106.559 117.399 107.357 116.172 106.955 116.121C106.619 116.067 105.964 117.413 105.783 117.69Z" fill="black"/>
<path d="M108.633 194.703C109.016 196.099 109.403 197.499 109.881 198.856C110.742 201.215 111.826 203.461 113.114 205.554C113.944 206.932 114.836 208.261 115.787 209.535C116.978 211.129 118.32 212.735 118.726 214.772C118.97 215.949 118.887 217.176 118.989 218.371C119.09 219.566 119.435 220.847 120.293 221.567C120.905 222.082 121.687 222.237 122.437 222.37C122.976 222.467 123.647 222.499 123.926 221.97C124.023 221.754 124.074 221.515 124.075 221.272L124.204 219.512C124.23 219.13 124.35 218.645 124.686 218.627C125.022 218.609 125.189 219.116 125.474 219.346C125.854 219.649 126.424 219.346 126.633 218.889C126.807 218.394 126.818 217.845 126.665 217.342C126.435 216.34 126.02 215.405 125.448 214.598C124.877 213.792 124.162 213.132 123.349 212.663C122.785 212.404 122.245 212.085 121.734 211.709C121.216 211.197 120.786 210.579 120.468 209.888C117.529 204.388 114.574 198.86 112.5 192.874C112.091 191.805 111.815 190.676 111.68 189.52C111.578 188.343 111.74 187.159 111.806 185.978C111.929 183.857 111.756 181.728 111.293 179.669C111.192 179.128 111.013 178.61 110.764 178.135C109.909 176.663 107.914 176.444 106.647 177.459C106.181 177.867 105.794 178.38 105.512 178.967C105.229 179.554 105.057 180.201 105.007 180.867C104.915 182.062 105.52 183.3 105.827 184.413C106.758 187.846 107.693 191.276 108.633 194.703Z" fill="#A1616A"/>
<path opacity="0.05" d="M108.633 194.703C109.016 196.099 109.403 197.499 109.881 198.856C110.742 201.215 111.826 203.461 113.114 205.554C113.944 206.932 114.836 208.261 115.787 209.535C116.978 211.129 118.32 212.735 118.726 214.772C118.97 215.949 118.887 217.176 118.989 218.371C119.09 219.566 119.435 220.847 120.293 221.567C120.905 222.082 121.687 222.237 122.437 222.37C122.976 222.467 123.647 222.499 123.926 221.97C124.023 221.754 124.074 221.515 124.075 221.272L124.204 219.512C124.23 219.13 124.35 218.645 124.686 218.627C125.022 218.609 125.189 219.116 125.474 219.346C125.854 219.649 126.424 219.346 126.633 218.889C126.807 218.394 126.818 217.845 126.665 217.342C126.435 216.34 126.02 215.405 125.448 214.598C124.877 213.792 124.162 213.132 123.349 212.663C122.785 212.404 122.245 212.085 121.734 211.709C121.216 211.197 120.786 210.579 120.468 209.888C117.529 204.388 114.574 198.86 112.5 192.874C112.091 191.805 111.815 190.676 111.68 189.52C111.578 188.343 111.74 187.159 111.806 185.978C111.929 183.857 111.756 181.728 111.293 179.669C111.192 179.128 111.013 178.61 110.764 178.135C109.909 176.663 107.914 176.444 106.647 177.459C106.181 177.867 105.794 178.38 105.512 178.967C105.229 179.554 105.057 180.201 105.007 180.867C104.915 182.062 105.52 183.3 105.827 184.413C106.758 187.846 107.693 191.276 108.633 194.703Z" fill="black"/>
<path d="M90.17 253.506C90.743 253.733 91.3522 253.816 91.9561 253.751C92.0005 253.19 92.6655 253.064 93.1595 253.093C93.3985 253.084 93.6353 253.146 93.8467 253.272C93.9703 253.362 94.0653 253.492 94.1856 253.586C94.4002 253.719 94.6408 253.79 94.8855 253.791L97.457 254.036C98.6034 254.147 99.7973 254.248 100.871 253.784C101.085 253.707 101.275 253.562 101.419 253.366C101.71 252.891 101.419 252.211 101.017 251.865C100.614 251.52 100.095 251.365 99.6896 251.012C98.7966 250.238 98.6731 248.791 98.2012 247.633C97.8658 246.902 97.452 246.221 96.9693 245.606C96.6195 245.078 96.2119 244.603 95.7564 244.192C94.724 243.346 93.5396 243.364 92.3267 243.242C91.4716 243.155 90.6672 243.098 90.0528 243.961C89.2928 245.041 89.5968 247.201 89.6443 248.46C89.7036 250.155 89.8794 251.843 90.17 253.506Z" fill="#514E7F"/>
<path opacity="0.05" d="M90.17 253.506C90.743 253.733 91.3522 253.816 91.9561 253.751C92.0005 253.19 92.6655 253.064 93.1595 253.093C93.3985 253.084 93.6353 253.146 93.8467 253.272C93.9703 253.362 94.0653 253.492 94.1856 253.586C94.4002 253.719 94.6408 253.79 94.8855 253.791L97.457 254.036C98.6034 254.147 99.7973 254.248 100.871 253.784C101.085 253.707 101.275 253.562 101.419 253.366C101.71 252.891 101.419 252.211 101.017 251.865C100.614 251.52 100.095 251.365 99.6896 251.012C98.7966 250.238 98.6731 248.791 98.2012 247.633C97.8658 246.902 97.452 246.221 96.9693 245.606C96.6195 245.078 96.2119 244.603 95.7564 244.192C94.724 243.346 93.5396 243.364 92.3267 243.242C91.4716 243.155 90.6672 243.098 90.0528 243.961C89.2928 245.041 89.5968 247.201 89.6443 248.46C89.7036 250.155 89.8794 251.843 90.17 253.506Z" fill="black"/>
<path d="M91.2088 196.657C90.4234 196.945 90.0814 198.057 90.227 198.982C90.3727 199.907 90.8604 200.706 91.2626 201.527C92.409 203.855 92.903 206.519 93.8658 208.948C94.5846 210.748 95.5569 212.439 96.2662 214.261C96.9756 216.082 97.4158 218.137 96.9851 220.07C96.7761 221.009 96.3708 221.869 96.1016 222.794C95.8351 223.797 95.6611 224.828 95.5822 225.872C95.2335 229.416 95.1709 232.989 95.3954 236.547C95.3973 236.981 95.477 237.409 95.6297 237.807C95.7912 238.167 96.0699 238.526 95.9464 238.886C95.8926 239.034 95.7754 239.142 95.7184 239.286C95.5537 239.689 95.8831 240.117 96.1839 240.405C96.1302 240.513 96.0579 240.608 95.9715 240.684C95.885 240.76 95.786 240.816 95.6804 240.848C95.8962 241.004 96.062 241.235 96.1532 241.507C96.2445 241.778 96.2564 242.076 96.1871 242.356C95.9211 242.403 95.9052 242.867 96.0731 243.112C96.2409 243.357 96.5069 243.508 96.6273 243.785C96.6981 244.011 96.6904 244.259 96.6056 244.478C96.5208 244.698 96.3654 244.872 96.1712 244.965C95.7756 245.139 95.344 245.176 94.9298 245.073C94.2276 244.962 93.534 244.789 92.8555 244.555C92.5008 244.476 92.1832 244.254 91.961 243.93C91.7387 243.606 91.6268 243.202 91.6458 242.792C91.489 241.327 91.4413 239.849 91.5033 238.375C91.6141 231.234 91.5033 224.086 91.2309 216.949C91.1201 214.07 90.36 211.28 89.3815 208.631C88.8405 207.278 88.2391 205.956 87.5795 204.672C86.1671 201.735 84.9194 198.482 85.2424 195.152C85.2772 194.793 85.3912 194.364 85.7047 194.307C85.8273 194.292 85.9511 194.315 86.0626 194.375C86.7132 194.72 87.3427 195.115 87.9469 195.556C88.9398 196.217 90.0591 196.595 91.2088 196.657Z" fill="#464353"/>
<path opacity="0.05" d="M91.2088 196.657C90.4234 196.945 90.0814 198.057 90.227 198.982C90.3727 199.907 90.8604 200.706 91.2626 201.527C92.409 203.855 92.903 206.519 93.8658 208.948C94.5846 210.748 95.5569 212.439 96.2662 214.261C96.9756 216.082 97.4158 218.137 96.9851 220.07C96.7761 221.009 96.3708 221.869 96.1016 222.794C95.8351 223.797 95.6611 224.828 95.5822 225.872C95.2335 229.416 95.1709 232.989 95.3954 236.547C95.3973 236.981 95.477 237.409 95.6297 237.807C95.7912 238.167 96.0699 238.526 95.9464 238.886C95.8926 239.034 95.7754 239.142 95.7184 239.286C95.5537 239.689 95.8831 240.117 96.1839 240.405C96.1302 240.513 96.0579 240.608 95.9715 240.684C95.885 240.76 95.786 240.816 95.6804 240.848C95.8962 241.004 96.062 241.235 96.1532 241.507C96.2445 241.778 96.2564 242.076 96.1871 242.356C95.9211 242.403 95.9052 242.867 96.0731 243.112C96.2409 243.357 96.5069 243.508 96.6273 243.785C96.6981 244.011 96.6904 244.259 96.6056 244.478C96.5208 244.698 96.3654 244.872 96.1712 244.965C95.7756 245.139 95.344 245.176 94.9298 245.073C94.2276 244.962 93.534 244.789 92.8555 244.555C92.5008 244.476 92.1832 244.254 91.961 243.93C91.7387 243.606 91.6268 243.202 91.6458 242.792C91.489 241.327 91.4413 239.849 91.5033 238.375C91.6141 231.234 91.5033 224.086 91.2309 216.949C91.1201 214.07 90.36 211.28 89.3815 208.631C88.8405 207.278 88.2391 205.956 87.5795 204.672C86.1671 201.735 84.9194 198.482 85.2424 195.152C85.2772 194.793 85.3912 194.364 85.7047 194.307C85.8273 194.292 85.9511 194.315 86.0626 194.375C86.7132 194.72 87.3427 195.115 87.9469 195.556C88.9398 196.217 90.0591 196.595 91.2088 196.657Z" fill="black"/>
<path d="M80.5907 187.976C80.1812 187.677 79.7089 187.508 79.2226 187.486C78.6589 187.519 78.1775 187.94 77.7373 188.343C77.2158 188.798 76.7207 189.291 76.2553 189.819C75.2914 190.986 74.6199 192.426 74.3103 193.987C74.0007 195.549 74.0643 197.177 74.4945 198.701C74.96 200.289 75.8119 201.689 76.6543 203.06L78.3644 205.853C80.9739 210.111 83.5834 214.369 86.3164 218.526C86.317 218.628 86.3461 218.727 86.3996 218.81C86.4532 218.892 86.5282 218.952 86.6141 218.983C86.7122 219.012 86.8358 219.008 86.8959 219.102C86.9237 219.16 86.9359 219.226 86.9308 219.293C86.9247 219.6 86.8733 219.904 86.7787 220.192C86.7344 220.287 86.7231 220.398 86.7471 220.502C86.8358 220.736 87.2094 220.603 87.3298 220.822C87.409 220.966 87.3108 221.153 87.2063 221.276C87.1018 221.398 86.9719 221.535 86.9909 221.704C87.0099 221.873 87.2696 222.064 87.2601 222.273C87.2601 222.395 87.1651 222.489 87.0986 222.586C87.0055 222.741 86.9631 222.928 86.9787 223.114C86.9943 223.301 87.067 223.476 87.1841 223.608C87.3646 225.638 86.3924 227.567 86.1992 229.59C85.8825 232.786 87.1651 235.906 87.3203 239.113C87.311 239.474 87.3715 239.833 87.4976 240.164C87.7605 240.719 88.4477 241.053 88.4129 241.683C88.3631 241.942 88.2986 242.197 88.2197 242.446C88.1658 242.806 88.3178 243.166 88.3242 243.526C88.3305 243.886 88.0487 244.329 87.751 244.185C87.9748 245.034 88.1743 245.891 88.3495 246.754L94.3349 247.316C94.3994 246.705 94.3813 246.085 94.2811 245.48C94.1576 244.822 93.8979 244.21 93.7617 243.558C93.6732 243.238 93.6482 242.899 93.6888 242.566C93.7293 242.233 93.8342 241.914 93.996 241.633C93.84 241.635 93.6884 241.574 93.5679 241.462C93.4473 241.349 93.3657 241.192 93.3373 241.017C93.2872 240.666 93.2926 240.308 93.3532 239.959C93.5115 238.185 92.856 236.436 92.875 234.654C92.894 233.25 93.3278 231.901 93.5464 230.522C94.015 227.571 93.5274 224.371 94.6833 221.675C95.3831 220.052 96.3522 218.252 95.5668 216.679C95.1804 215.902 94.4964 215.369 94.0499 214.635C93.6859 213.941 93.4128 213.191 93.2392 212.407C92.3176 209.168 90.826 206.159 89.5181 203.078C89.1551 202.306 88.8856 201.481 88.7169 200.627C88.6245 199.877 88.5906 199.12 88.6155 198.363C88.6155 197.005 88.5426 195.648 88.397 194.3C88.3675 193.709 88.219 193.134 87.9632 192.619C87.7047 192.229 87.3821 191.9 87.0131 191.651C85.0496 190.121 82.7125 189.246 80.5907 187.976Z" fill="#464353"/>
<path d="M87.7635 256.001C88.3382 256.224 88.9481 256.306 89.5528 256.242C89.5971 255.68 90.259 255.554 90.7531 255.583C90.992 255.574 91.2289 255.636 91.4403 255.763C91.5638 255.853 91.6588 255.986 91.7823 256.076C91.9963 256.212 92.2373 256.282 92.4822 256.281L95.0505 256.526C96.2001 256.638 97.3908 256.742 98.4675 256.274C98.6811 256.198 98.8704 256.053 99.0122 255.857C99.3036 255.382 99.0122 254.705 98.6101 254.359C98.2079 254.014 97.6885 253.856 97.2863 253.503C96.3901 252.729 96.2697 251.286 95.7947 250.127C95.4624 249.394 95.0495 248.712 94.566 248.097C94.215 247.57 93.8064 247.096 93.3499 246.686C92.3206 245.836 91.1331 245.854 89.9233 245.732C89.0651 245.646 88.2607 245.592 87.6495 246.452C86.8895 247.532 87.1935 249.691 87.2378 250.955C87.2973 252.65 87.4731 254.337 87.7635 256.001Z" fill="#514E7F"/>
<path d="M114.292 176.196C117.566 176.196 120.221 173.179 120.221 169.458C120.221 165.737 117.566 162.72 114.292 162.72C111.018 162.72 108.364 165.737 108.364 169.458C108.364 173.179 111.018 176.196 114.292 176.196Z" fill="#A1616A"/>
<path d="M108.699 171.459C107.851 172.29 106.631 172.351 105.517 172.481C103.133 172.759 100.813 173.523 98.6667 174.734C98.3697 174.88 98.1007 175.09 97.875 175.353C97.6824 175.639 97.5453 175.968 97.4728 176.318C97.2689 177.076 97.1926 177.871 97.248 178.661C97.3256 179.427 97.5196 180.173 97.8212 180.864C98.6439 182.799 99.9136 184.445 101.495 185.625C101.773 185.861 102.09 186.034 102.426 186.133C103.205 186.316 103.959 185.805 104.728 185.575C105.428 185.367 106.166 185.394 106.853 185.651C107.486 185.895 108.18 186.342 108.807 186.043C109.208 185.788 109.52 185.384 109.691 184.898C110.296 183.598 110.837 182.259 111.309 180.889C111.479 180.354 111.674 179.83 111.895 179.32C112.582 177.833 113.77 176.685 114.362 175.141C114.422 175.023 114.458 174.892 114.468 174.756C114.478 174.62 114.461 174.484 114.419 174.356C114.309 174.184 114.157 174.053 113.982 173.978C113.106 173.409 112.308 172.697 111.613 171.866C111.223 171.441 110.508 170.293 109.947 170.192C109.317 170.07 109.127 171.041 108.699 171.459Z" fill="#A1616A"/>
<path d="M108.839 185.15C108.152 185.51 107.341 185.356 106.597 185.179C104.678 184.722 102.737 184.261 100.96 183.318C100.405 183.077 99.9239 182.657 99.576 182.109C99.3599 181.641 99.2285 181.128 99.1896 180.601L98.8729 178.082C98.7589 177.207 98.9553 176.397 98.9743 175.512C98.9864 175.414 98.9811 175.314 98.9588 175.218C98.9365 175.122 98.8976 175.032 98.8444 174.954C98.736 174.85 98.596 174.8 98.4549 174.813C97.565 174.831 97.0267 175.893 96.4028 176.613C96.0422 177.029 95.6113 177.357 95.136 177.578C94.566 177.844 93.8693 178.031 93.6318 178.679C93.5368 178.949 93.5494 179.255 93.4481 179.525C93.0491 180.605 91.3485 180.245 90.9146 181.324C90.7911 181.627 90.8006 182.005 90.5979 182.242C90.3952 182.48 90.0152 182.476 89.7017 182.534C88.4635 182.764 87.8649 184.387 86.8072 185.154C85.9173 185.802 84.7709 185.787 83.8113 186.291C83.2793 186.572 82.8074 187.011 82.2437 187.195C81.68 187.378 81.0435 187.281 80.4386 187.299C80.3741 187.292 80.3091 187.3 80.2475 187.323C80.1859 187.346 80.1292 187.383 80.0808 187.432C80.0432 187.497 80.0183 187.571 80.008 187.648C79.9976 187.725 80.0019 187.804 80.0206 187.879C80.3139 190.007 81.0899 192.012 82.2721 193.695C83.4543 195.379 85.002 196.684 86.7628 197.481C86.9672 197.555 87.1613 197.662 87.3392 197.798C87.8776 198.255 87.9726 199.238 88.5838 199.562C88.8044 199.65 89.0421 199.667 89.2708 199.611C89.4994 199.555 89.7099 199.428 89.879 199.245C90.2162 198.876 90.5335 198.484 90.8291 198.072C91.3872 197.409 92.1197 196.971 92.9161 196.823C93.6508 196.689 94.471 196.787 95.0664 196.272C95.3099 196.018 95.5364 195.744 95.7441 195.451C96.1852 194.984 96.7087 194.628 97.28 194.408C98.841 193.707 100.491 193.295 102.166 193.187C103.728 193.09 105.333 193.252 106.809 192.676C107.192 192.541 107.545 192.314 107.845 192.01C108.162 191.62 108.398 191.154 108.535 190.646C109.067 188.878 109.172 186.98 108.839 185.15Z" fill="#E43B4E"/>
<path d="M101.198 175.22C101.635 175.173 102.075 175.22 102.515 175.22C103.031 175.22 103.541 175.076 104.057 175.073C104.875 175.088 105.666 175.399 106.317 175.962C106.968 176.525 107.443 177.309 107.674 178.2C107.717 178.343 107.725 178.496 107.696 178.643C107.679 178.716 107.639 178.779 107.585 178.821C107.53 178.863 107.464 178.882 107.398 178.873C107.227 178.341 107.003 177.833 106.73 177.358C106.239 176.596 105.54 176.042 104.741 175.782C103.945 175.525 103.107 175.491 102.296 175.681C101.958 175.753 101.628 175.854 101.299 175.958L99.7154 176.455C99.4241 176.545 99.1295 176.635 98.8477 176.753C98.6292 176.847 98.2555 177.189 98.0401 177.203C97.7488 177.203 97.9831 176.915 98.113 176.721C98.3715 176.32 98.7335 176.021 99.1485 175.864C99.8066 175.558 100.494 175.342 101.198 175.22Z" fill="#E43B4E"/>
<path d="M105.194 195.459C105.577 196.855 105.96 198.255 106.441 199.612C107.302 201.972 108.386 204.218 109.675 206.31C110.505 207.688 111.397 209.017 112.348 210.291C113.535 211.885 114.862 213.491 115.287 215.524C115.53 216.705 115.448 217.932 115.549 219.123C115.651 220.315 115.996 221.6 116.851 222.319C117.465 222.83 118.248 222.985 118.998 223.122C119.533 223.219 120.205 223.252 120.487 222.722C120.582 222.506 120.633 222.267 120.635 222.024L120.762 220.264C120.791 219.883 120.911 219.397 121.243 219.379C121.576 219.361 121.75 219.868 122.035 220.099C122.415 220.401 122.985 220.099 123.194 219.642C123.366 219.146 123.378 218.598 123.226 218.094C122.994 217.093 122.579 216.158 122.008 215.352C121.436 214.546 120.722 213.886 119.91 213.415C119.346 213.156 118.804 212.836 118.292 212.461C117.773 211.949 117.343 211.33 117.025 210.636C114.083 205.14 111.128 199.612 109.057 193.623C108.649 192.554 108.372 191.427 108.234 190.272C108.136 189.095 108.294 187.911 108.364 186.73C108.487 184.61 108.313 182.48 107.851 180.421C107.75 179.88 107.57 179.362 107.319 178.888C106.467 177.412 104.469 177.196 103.202 178.211C102.735 178.619 102.348 179.132 102.065 179.719C101.782 180.306 101.609 180.953 101.558 181.62C101.466 182.815 102.074 184.053 102.378 185.165C103.314 188.601 104.252 192.032 105.194 195.459Z" fill="#A1616A"/>
<path d="M122.916 164.693C122.963 164.131 122.52 163.613 122.016 163.253C121.486 162.944 120.977 162.59 120.493 162.195C120.043 161.752 119.796 161.176 119.347 160.733C118.835 160.291 118.255 159.963 117.636 159.765C116.321 159.241 114.939 158.96 113.545 158.934C112.136 158.934 110.695 159.294 109.634 160.111C109.372 160.298 109.146 160.543 108.969 160.831C108.802 161.176 108.694 161.555 108.652 161.946C108.399 163.154 108.057 164.335 107.629 165.477C107.189 166.748 106.72 168.065 105.685 169.048C104.576 170.095 102.882 170.7 102.151 171.967C102.07 172.079 102.013 172.212 101.985 172.353C101.957 172.495 101.958 172.642 101.989 172.784C102.094 173.104 102.429 173.323 102.74 173.525C104.538 174.698 106.09 176.221 106.888 178.038C107.686 179.856 107.664 181.998 106.527 183.671C106.109 184.29 105.533 185.024 105.941 185.647C106.575 186.594 108.693 186.05 109.187 187.051C109.342 187.371 109.251 187.735 109.251 188.084C109.251 189.135 110.141 190.067 111.22 190.553C112.3 191.039 113.551 191.154 114.767 191.215C115.09 190.39 115.122 189.456 114.856 188.606C114.775 188.422 114.743 188.216 114.764 188.012C114.855 187.785 114.996 187.589 115.173 187.443C116.471 186.047 116.196 183.995 115.417 182.336C114.637 180.677 113.421 179.161 112.969 177.416C112.744 176.548 112.744 175.573 113.349 174.853C113.696 174.507 114.07 174.197 114.466 173.928C115.175 173.382 115.72 172.603 116.031 171.697C116.395 170.548 116.348 169.177 117.405 168.403C118.422 167.684 119.85 167.892 120.974 167.399C121.839 167.01 122.846 165.517 122.916 164.693Z" fill="#464353"/>
</g>
<defs>
<linearGradient id="paint0_linear_673_103915" x1="96.846" y1="152.988" x2="96.846" y2="84.279" gradientUnits="userSpaceOnUse">
<stop stop-color="#808080" stop-opacity="0.25"/>
<stop offset="0.54" stop-color="#808080" stop-opacity="0.12"/>
<stop offset="1" stop-color="#808080" stop-opacity="0.1"/>
</linearGradient>
<clipPath id="clip0_673_103915">
<rect width="373" height="261" fill="white"/>
</clipPath>
</defs>
</svg>
