<svg width="16" height="16" viewBox="0 0 16 16" fill="none" xmlns="http://www.w3.org/2000/svg">
<g id="elements">
<path id="Rectangle 2179" d="M1.3335 8.26667C1.3335 6.25534 1.3335 5.24968 1.96434 4.62484C2.59519 4 3.61052 4 5.64119 4H6.35914C8.3898 4 9.40514 4 10.036 4.62484C10.6668 5.24968 10.6668 6.25534 10.6668 8.26667V10.4C10.6668 12.4113 10.6668 13.417 10.036 14.0418C9.40514 14.6667 8.3898 14.6667 6.35914 14.6667H5.64119C3.61052 14.6667 2.59519 14.6667 1.96434 14.0418C1.3335 13.417 1.3335 12.4113 1.3335 10.4V8.26667Z" stroke="black" stroke-linejoin="round"/>
<path id="Rectangle 2180" d="M10.3587 10.6663H10.9742C12.715 10.6663 13.5854 10.6663 14.1262 10.1196C14.667 9.57287 14.667 8.69292 14.667 6.93301V5.06634C14.667 3.30643 14.667 2.42648 14.1262 1.87974C13.5854 1.33301 12.715 1.33301 10.9742 1.33301H10.3587C8.61792 1.33301 7.74752 1.33301 7.20672 1.87974C6.73381 2.35785 6.67444 3.09077 6.66699 4.44412" stroke="black" stroke-linejoin="round"/>
<path id="Vector" d="M4 8H6M4 11.3333H7.33333" stroke="black" stroke-linecap="round"/>
<path id="Vector 4544" d="M7 2L9.66667 4.33333" stroke="black" stroke-linejoin="round"/>
</g>
</svg>
