<svg width="377" height="270" viewBox="0 0 377 270" fill="none" xmlns="http://www.w3.org/2000/svg">
<g clip-path="url(#clip0_673_103884)">
<path d="M160.184 126.111H8.21532C6.1698 126.108 4.20872 125.296 2.76232 123.851C1.31591 122.406 0.502311 120.447 0.5 118.404V7.70677C0.502312 5.66351 1.31591 3.70461 2.76232 2.25981C4.20872 0.81501 6.1698 0.00230929 8.21532 0H160.184C162.229 0.00230806 164.19 0.81501 165.637 2.25981C167.083 3.70461 167.897 5.66351 167.899 7.70677V118.404C167.897 120.447 167.083 122.406 165.637 123.851C164.19 125.296 162.229 126.108 160.184 126.111Z" fill="#E6E6E6"/>
<path d="M149.49 125.877H148.447L132.343 93.4715L131.876 92.5374L119.966 68.567L99.7845 27.9547L99.3216 27.0205L86.0092 0.233643H87.0566L100.364 27.0205L100.832 27.9547L120.499 67.5347L120.962 68.4689L132.867 92.4206L149.49 125.877Z" fill="white"/>
<path d="M167.665 27.0225H0.733765V27.9566H167.665V27.0225Z" fill="white"/>
<path d="M167.665 67.5369H120.167V68.471H167.665V67.5369Z" fill="white"/>
<path d="M46.0979 0.233643H45.1627V126.344H46.0979V0.233643Z" fill="white"/>
<path d="M132.632 92.5359H45.6304V93.47H132.632V92.5359Z" fill="white"/>
<path d="M100.098 49.5102C100.098 57.4718 88.3761 79.9234 83.9737 88.075C83.8138 88.3716 83.5765 88.6195 83.2869 88.7922C82.9974 88.965 82.6664 89.0562 82.3292 89.0562C81.9919 89.0562 81.6609 88.965 81.3714 88.7922C81.0818 88.6195 80.8445 88.3716 80.6847 88.075C76.2822 79.9234 64.5605 57.4718 64.5605 49.5102C64.5605 44.8029 66.4326 40.2883 69.7649 36.9598C73.0971 33.6312 77.6166 31.7612 82.3292 31.7612C87.0417 31.7612 91.5612 33.6312 94.8935 36.9598C98.2257 40.2883 100.098 44.8029 100.098 49.5102Z" fill="#E43B4E"/>
<path d="M82.3292 57.4504C86.7194 57.4504 90.2784 53.8954 90.2784 49.5101C90.2784 45.1248 86.7194 41.5698 82.3292 41.5698C77.9391 41.5698 74.3801 45.1248 74.3801 49.5101C74.3801 53.8954 77.9391 57.4504 82.3292 57.4504Z" fill="#E6E6E6"/>
<path d="M82.3292 96.6851C84.1369 96.6851 85.6024 95.2212 85.6024 93.4155C85.6024 91.6098 84.1369 90.146 82.3292 90.146C80.5215 90.146 79.056 91.6098 79.056 93.4155C79.056 95.2212 80.5215 96.6851 82.3292 96.6851Z" fill="#E43B4E"/>
<path d="M82.4555 142.393C78.873 142.393 75.3708 143.453 72.3919 145.441C69.413 147.429 67.0912 150.255 65.72 153.561C64.3488 156.867 63.9899 160.505 64.6887 164.014C65.3875 167.524 67.1126 170.748 69.6458 173.278C72.179 175.809 75.4065 177.532 78.9202 178.23C82.4338 178.928 86.0758 178.57 89.3855 177.2C92.6952 175.83 95.5239 173.511 97.5139 170.535C99.504 167.56 100.566 164.061 100.565 160.483C100.56 155.687 98.6501 151.089 95.255 147.698C91.8599 144.306 87.2568 142.399 82.4555 142.393ZM82.4555 177.578C79.0711 177.578 75.7626 176.576 72.9483 174.699C70.1341 172.821 67.9404 170.152 66.6449 167.029C65.3493 163.905 65.0099 160.469 65.6697 157.153C66.3295 153.837 67.9588 150.791 70.3516 148.401C72.7444 146.01 75.7932 144.381 79.1124 143.722C82.4317 143.062 85.8723 143.4 88.9992 144.693C92.1262 145.986 94.7989 148.177 96.6796 150.987C98.5602 153.798 99.5642 157.102 99.5647 160.483C99.5594 165.014 97.7552 169.359 94.5479 172.563C91.3406 175.768 86.9919 177.571 82.4555 177.578Z" fill="#E6E6E6"/>
<path d="M91.3678 151.809C90.8742 151.432 90.2506 151.265 89.6341 151.347C89.0177 151.428 88.4589 151.751 88.0805 152.244L80.0006 162.767L76.5824 160.151C76.3381 159.963 76.059 159.825 75.7612 159.745C75.4633 159.665 75.1525 159.644 74.8466 159.684C74.5407 159.724 74.2457 159.824 73.9785 159.978C73.7113 160.132 73.4772 160.337 73.2896 160.581C73.1019 160.826 72.9644 161.105 72.885 161.403C72.8055 161.701 72.7857 162.011 72.8266 162.317C72.8675 162.622 72.9684 162.917 73.1234 163.183C73.2785 163.449 73.4846 163.683 73.73 163.869L79.0092 167.905L79.0327 167.924C79.4371 168.227 79.9295 168.391 80.4355 168.391C80.7958 168.391 81.1514 168.308 81.4749 168.15C81.7983 167.991 82.0809 167.76 82.3011 167.475L91.8025 155.093C92.1805 154.6 92.347 153.977 92.2655 153.361C92.184 152.746 91.8611 152.187 91.3678 151.809Z" fill="#E43B4E"/>
<path d="M258.028 196.817L253.516 186.13L249.644 176.961L246.478 169.46C245.914 168.129 244.844 167.075 243.503 166.53C242.162 165.986 240.659 165.995 239.324 166.555L196.287 184.692C194.957 185.258 193.906 186.327 193.361 187.664C192.816 189.002 192.823 190.5 193.379 191.833L204.933 219.19C205.211 219.85 205.617 220.448 206.127 220.951C206.637 221.454 207.241 221.852 207.905 222.122C208.569 222.392 209.28 222.528 209.996 222.524C210.713 222.519 211.422 222.373 212.082 222.095L255.12 203.963C256.453 203.399 257.508 202.33 258.053 200.991C258.598 199.651 258.589 198.15 258.028 196.817ZM254.647 202.847L211.615 220.979C210.577 221.416 209.409 221.424 208.365 221.001C207.322 220.578 206.489 219.758 206.05 218.723L194.496 191.366C194.134 190.511 194.067 189.56 194.304 188.662C194.404 188.26 194.565 187.875 194.781 187.522C195.243 186.756 195.935 186.156 196.759 185.808L239.796 167.676C240.673 167.306 241.648 167.242 242.565 167.494C242.964 167.6 243.344 167.767 243.692 167.989C244.435 168.448 245.017 169.127 245.356 169.932L248.667 177.774V177.779L252.253 186.266L256.911 197.289C257.348 198.325 257.355 199.493 256.931 200.536C256.507 201.578 255.685 202.409 254.647 202.847Z" fill="#CCCCCC"/>
<path d="M225.369 194.177C224.22 194.664 222.949 194.786 221.728 194.527L193.764 188.545L194.018 187.361L221.982 193.343C222.947 193.545 223.95 193.452 224.862 193.077C225.773 192.701 226.551 192.06 227.092 191.236L242.982 166.856L243.999 167.518L228.109 191.898C227.443 192.914 226.489 193.707 225.369 194.177Z" fill="#CCCCCC"/>
<path d="M225.307 201.437C229.327 201.437 232.586 198.182 232.586 194.166C232.586 190.15 229.327 186.895 225.307 186.895C221.286 186.895 218.027 190.15 218.027 194.166C218.027 198.182 221.286 201.437 225.307 201.437Z" fill="#E43B4E"/>
<path d="M305.503 123.224C305.503 123.224 296.033 117.249 287.061 124.22L281.079 186.457C281.079 186.457 303.509 203.883 308.992 187.452L305.503 123.224Z" fill="#E43B4E"/>
<path d="M307.815 264.683H313.548L315.457 242.676L307.814 242.595L307.815 264.683Z" fill="#FFB8B8"/>
<path d="M324.604 269.999L306.587 270L306.587 263.047L317.643 263.046C319.489 263.046 321.259 263.779 322.565 265.083C323.87 266.387 324.604 268.155 324.604 269.999Z" fill="#2F2E41"/>
<path d="M287.095 264.683H281.362L278.635 242.595H287.096L287.095 264.683Z" fill="#FFB8B8"/>
<path d="M277.267 263.046H288.323V270H270.306C270.306 268.156 271.04 266.387 272.345 265.083C273.65 263.779 275.421 263.046 277.267 263.046Z" fill="#2F2E41"/>
<path d="M320.207 186.706L315.223 260.892L307.497 260.643L297.279 201.145L287.808 259.896L278.836 260.394L276.344 183.718C276.344 183.718 314.226 175.254 320.207 186.706Z" fill="#2F2E41"/>
<path d="M296.687 116.926C303.03 116.926 308.172 111.79 308.172 105.455C308.172 99.1188 303.03 93.9827 296.687 93.9827C290.345 93.9827 285.203 99.1188 285.203 105.455C285.203 111.79 290.345 116.926 296.687 116.926Z" fill="#FFB8B8"/>
<path d="M303.759 120.984L306.749 122.975C306.749 122.975 319.211 122.975 320.207 130.444C321.204 137.912 323.946 188.946 320.955 188.946C317.964 188.946 317.466 184.963 317.466 184.963C317.466 184.963 315.472 185.461 311.485 189.444C307.497 193.427 305.005 193.427 303.509 187.452C302.014 181.478 292.045 135.672 301.516 127.207L303.759 120.984Z" fill="#2F2E41"/>
<path d="M289.304 120.984L286.313 122.975C286.313 122.975 273.852 122.975 272.855 130.444C271.858 137.912 269.117 188.946 272.107 188.946C275.098 188.946 275.596 184.963 275.596 184.963C275.596 184.963 277.59 185.461 281.578 189.444C285.565 193.427 288.058 193.427 289.553 187.452C291.048 181.478 301.017 135.672 291.547 127.207L289.304 120.984Z" fill="#2F2E41"/>
<path d="M306.006 112.45C306.859 111.551 307.426 110.419 307.634 109.197C307.841 107.976 307.681 106.721 307.172 105.591C306.664 104.461 305.83 103.508 304.778 102.852C303.725 102.197 302.501 101.869 301.262 101.91C299.674 101.963 298.177 102.613 296.662 103.089C294.365 103.87 291.914 104.09 289.514 103.732C287.1 103.358 284.922 102.073 283.428 100.142C282.007 98.1913 281.564 95.4856 282.568 93.2914C283.727 90.7582 286.434 89.3624 288.98 88.2283C290.007 87.7148 291.104 87.3548 292.236 87.1599C292.803 87.0658 293.383 87.0897 293.94 87.23C294.498 87.3704 295.02 87.6241 295.475 87.9754C296.19 88.5902 296.61 89.5143 297.388 90.0471C298.265 90.6469 299.404 90.6312 300.461 90.7369C302.842 90.975 305.095 91.9317 306.918 93.4796C308.742 95.0276 310.051 97.0935 310.671 99.4026C311.29 101.712 311.191 104.155 310.387 106.406C309.583 108.658 308.112 110.612 306.169 112.008L306.006 112.45Z" fill="#2F2E41"/>
<path d="M247.417 182.259C247.261 181.542 247.265 180.8 247.428 180.084C247.591 179.369 247.909 178.698 248.359 178.119C248.81 177.54 249.382 177.066 250.035 176.731C250.689 176.397 251.408 176.209 252.142 176.182L259.772 165.447L264.69 170.451L257.408 181.371C257.372 182.606 256.883 183.784 256.035 184.683C255.187 185.581 254.039 186.138 252.807 186.248C251.576 186.357 250.347 186.012 249.353 185.276C248.36 184.541 247.671 183.468 247.417 182.259Z" fill="#FFB8B8"/>
<path d="M315.048 192.059C314.511 191.559 314.09 190.947 313.815 190.267C313.54 189.587 313.418 188.855 313.457 188.122C313.496 187.39 313.695 186.675 314.041 186.027C314.387 185.38 314.87 184.816 315.457 184.376L315.593 171.211L322.49 172.518L322.746 185.636C323.421 186.671 323.693 187.917 323.51 189.138C323.327 190.36 322.702 191.472 321.753 192.263C320.804 193.055 319.597 193.472 318.362 193.434C317.126 193.396 315.947 192.907 315.048 192.059Z" fill="#FFB8B8"/>
<path d="M276.562 160.964L274.6 129.697L274.043 127.512C274.043 127.512 254.202 152.997 254.156 172.169C254.156 172.169 263.876 176.899 265.371 173.414C265.958 172.045 267.965 170.016 276.562 160.964Z" fill="#2F2E41"/>
<path d="M318.463 129.697L320.256 130.832C320.256 130.832 326.68 159.069 324.943 177.993C324.943 177.993 314.725 182.722 313.229 179.237C311.734 175.752 318.463 129.697 318.463 129.697Z" fill="#2F2E41"/>
<path d="M376.032 269.971H197.879C197.755 269.971 197.636 269.921 197.548 269.834C197.46 269.746 197.411 269.627 197.411 269.503C197.411 269.38 197.46 269.261 197.548 269.173C197.636 269.086 197.755 269.036 197.879 269.036H376.032C376.156 269.036 376.275 269.086 376.363 269.173C376.451 269.261 376.5 269.38 376.5 269.503C376.5 269.627 376.451 269.746 376.363 269.834C376.275 269.921 376.156 269.971 376.032 269.971Z" fill="#3F3D56"/>
</g>
<defs>
<clipPath id="clip0_673_103884">
<rect width="376" height="270" fill="white" transform="translate(0.5)"/>
</clipPath>
</defs>
</svg>
